<?xml version="1.0" standalone="no"?>
<!DOCTYPE svg PUBLIC "-//W3C//DTD SVG 1.1//EN" "http://www.w3.org/Graphics/SVG/1.1/DTD/svg11.dtd" >
<svg>
<metadata>
Created by FontForge 20090622 at Mon Sep 14 07:33:12 2020
 By deploy user
Font software Copyright 1990, 1991, 1998 Adobe Systems Incorporated. Typeface designs Copyright The Monotype Corporation. All rights reserved.
</metadata>
<defs>
<font id="GillSans-Bold" horiz-adv-x="333" >
  <font-face 
    font-family="Gill Sans"
    font-weight="700"
    font-stretch="normal"
    units-per-em="1000"
    panose-1="2 11 8 2 2 1 4 2 2 3"
    ascent="682"
    descent="-318"
    x-height="461"
    cap-height="682"
    bbox="-177 -240 1167 957"
    underline-thickness="50"
    underline-position="-50"
    unicode-range="U+0020-U+FB04"
  />
<missing-glyph horiz-adv-x="500" 
d="M12 0v665h475v-665h-475zM88 618l162 -243l161 243h-323zM60 575v-484l40 61l80 120l41 61zM440 575l-162 -242l162 -243v485zM411 48l-161 242l-162 -242h323z" />
    <glyph glyph-name="f_f" unicode="ff" horiz-adv-x="594" 
d="M593 461v-97h-71v-364h-143v364h-162v-364h-145v364h-66v97h66q2 43 5 67t14.5 54t33.5 53q55 56 149 56q27 0 83 -8l7 -1v-117q-3 0 -15.5 2t-26 3t-25.5 1q-23 0 -39 -7t-24 -15.5t-12 -26t-4.5 -28.5t-0.5 -33h162q0 90 28 143q16 29 41.5 48.5t53.5 27t44 9.5t29 2
q43 0 99 -9v-117l-67 7q-51 0 -67 -27.5t-18 -83.5h71z" />
    <glyph glyph-name="fi" unicode="fi" horiz-adv-x="594" 
d="M320 461v-97h-93v-364h-146v364h-60v97h60q0 90 30 144q48 86 175 86q34 0 65 -9v-114q-19 3 -36 3q-25 0 -43 -8t-26.5 -18t-13 -27.5t-5 -28t-0.5 -28.5h93zM458 692q32 0 55.5 -23t23.5 -56q0 -32 -23 -55.5t-56 -23.5t-56 23t-23 56t23.5 56t55.5 23zM531 461v-461
h-144v461h144z" />
    <glyph glyph-name="fl" unicode="fl" horiz-adv-x="594" 
d="M531 682v-682h-144v682h144zM319 461v-97h-93v-364h-145v364h-60v97h60q-4 83 30 144q48 86 175 86q31 0 65 -9v-114q-19 3 -36 3q-25 0 -43 -8t-27 -18t-13.5 -27.5t-5 -28t-0.5 -28.5h93z" />
    <glyph glyph-name="f_f_i" unicode="ffi" horiz-adv-x="896" 
d="M622 461v-97h-93v-364h-146v364h-160v-364h-145v364h-59v97h59q-2 102 46 166t158 64q38 0 65 -9v-113q-27 3 -33 3q-50 0 -70 -26t-21 -85h160q1 24 2 38t6 41t12.5 44.5t23 39.5t37 35t54.5 22.5t74 9.5q36 0 61 -9v-113q-30 3 -36 3q-29 0 -48 -9.5t-27 -27
t-10.5 -34.5t-2.5 -40h93zM760 692q32 0 55.5 -23t23.5 -56q0 -32 -23 -55.5t-56 -23.5t-56 23.5t-23 55.5t23 55.5t56 23.5zM834 461v-461h-144v461h144z" />
    <glyph glyph-name="f_f_l" unicode="ffl" horiz-adv-x="896" 
d="M836 682v-682h-144v682h144zM622 461v-97h-94v-364h-145v364h-161v-364h-144v364h-60v97h60q-3 102 45 166t159 64q35 0 65 -9v-113q-27 3 -34 3q-50 0 -70 -26t-21 -85h161q1 24 2 37.5t5.5 41t12.5 45t23.5 40t36.5 35t54 22t74 9.5q37 0 62 -9v-113q-30 3 -37 3
q-29 0 -47.5 -9.5t-27 -27.5t-11 -34t-2.5 -40h94z" />
    <glyph glyph-name=".notdef" horiz-adv-x="500" 
d="M12 0v665h475v-665h-475zM88 618l162 -243l161 243h-323zM60 575v-484l40 61l80 120l41 61zM440 575l-162 -242l162 -243v485zM411 48l-161 242l-162 -242h323z" />
    <glyph glyph-name=".null" horiz-adv-x="0" 
 />
    <glyph glyph-name="nonmarkingreturn" 
 />
    <glyph glyph-name="space" unicode=" " horiz-adv-x="278" 
 />
    <glyph glyph-name="exclam" unicode="!" horiz-adv-x="271" 
d="M222 77q0 -32 -24 -59t-62 -27q-36 0 -61.5 26t-25.5 61q0 34 25 60t61 26q38 0 62.5 -26t24.5 -61zM220 565q0 -36 -16.5 -145.5t-38.5 -184.5q-5 -19 -10.5 -24.5t-22.5 -5.5q-13 0 -18 7.5t-13 40.5q-14 56 -31 161.5t-17 172.5q0 42 20 73t62 31q24 0 41 -9.5
t25.5 -21t13 -31.5t5 -32t0.5 -32z" />
    <glyph glyph-name="quotedbl" unicode="&#x22;" horiz-adv-x="479" 
d="M299 428l-24 133v121h149v-121l-24 -133h-101zM79 428l-24 133v121h149v-121l-24 -133h-101z" />
    <glyph glyph-name="numbersign" unicode="#" horiz-adv-x="667" 
d="M35 438h146l38 181h112l-38 -181h154l38 181h111l-38 -181h74v-111h-96l-27 -129h123v-110h-147l-38 -180h-111l37 180h-154l-38 -180h-112l38 180h-72v110h95l27 129h-122v111zM423 327h-153l-27 -129h153z" />
    <glyph glyph-name="dollar" unicode="$" horiz-adv-x="542" 
d="M467 604v-123q-75 54 -156 66v-162q100 -32 145.5 -87t45.5 -116q0 -63 -47 -120t-144 -71v-110h-84v110q-36 5 -88.5 25t-86.5 44v118q55 -40 90 -58t85 -26v191q-72 20 -114 50q-30 21 -49 59.5t-19 82.5q0 71 51 120.5t131 57.5v36h84v-36q71 -3 156 -51zM227 415v132
q-36 -9 -51.5 -27t-15.5 -37q0 -45 67 -68zM311 260v-164q42 9 59.5 31t17.5 48q0 57 -77 85z" />
    <glyph glyph-name="percent" unicode="%" horiz-adv-x="719" 
d="M185 690q66 0 113.5 -47t47.5 -114t-47 -114t-114 -47t-114 47t-47 114t47 114t114 47zM185 600q-29 0 -50 -21t-21 -50q0 -30 20.5 -51t50.5 -21q29 0 50 21t21 51q0 29 -21 50t-50 21zM533 316q67 0 114.5 -47t47.5 -115q0 -67 -47.5 -114t-114.5 -47t-114 47t-47 114
q0 68 47.5 115t113.5 47zM532 224q-30 0 -50.5 -20.5t-20.5 -49.5t21 -50t50 -21t49.5 21t20.5 50t-20.5 49.5t-49.5 20.5zM637 691l-478 -699h-83l480 699h81z" />
    <glyph glyph-name="ampersand" unicode="&#x26;" horiz-adv-x="750" 
d="M589 150l137 -150h-207l-50 54q-100 -63 -206 -63q-93 0 -158.5 49.5t-65.5 130.5q0 40 17 74t47 59t47 36t42 24q-20 28 -30.5 45t-21 47t-10.5 59q0 73 56.5 124.5t152.5 51.5q94 0 145.5 -47.5t51.5 -113.5q0 -102 -127 -176l93 -107q46 47 78 107h146
q-63 -137 -137 -204zM335 435q68 41 68 85q0 25 -17 41t-46 16q-25 0 -44 -13.5t-19 -37.5q0 -23 22.5 -52t35.5 -39zM390 142l-121 134q-70 -46 -70 -92q0 -37 27 -59t58 -22q50 0 106 39z" />
    <glyph glyph-name="quotesingle" unicode="'" horiz-adv-x="240" 
d="M69 428l-24 133v121h150v-121l-25 -133h-101z" />
    <glyph glyph-name="parenleft" unicode="(" horiz-adv-x="385" 
d="M379 -230h-103q-113 88 -172 216t-59 247q0 79 25.5 158.5t63 138.5t75 101t67.5 60h103q-178 -189 -178 -453q0 -293 178 -468z" />
    <glyph glyph-name="parenright" unicode=")" horiz-adv-x="385" 
d="M7 691h102q30 -19 67.5 -60.5t75 -100.5t63 -138.5t25.5 -158.5q0 -119 -59 -247t-172 -216h-102q177 174 177 468q0 264 -177 453z" />
    <glyph glyph-name="asterisk" unicode="*" horiz-adv-x="469" 
d="M261 508l101 108q13 13 24 13q13 0 28 -27l22 -42q8 -12 8 -21q0 -11 -22 -17l-151 -35v-14l136 -30q37 -8 37 -25q0 -12 -8 -24l-29 -49q-9 -20 -23 -20q-11 0 -31 23l-92 106l-15 -11l42 -142q4 -11 4 -18q0 -19 -31 -19h-51q-35 0 -35 20q0 7 5 17l42 142l-12 11
l-99 -102q-23 -23 -31 -23q-9 0 -22 23l-26 49q-7 11 -7 23q0 14 23 19l152 30v14l-142 35q-32 8 -32 22q0 11 11 29l27 43q10 19 22 19q8 0 25 -19l99 -108l12 6l-42 140q-3 6 -3 19q0 18 33 18h51q31 0 31 -15q0 -13 -4 -22l-42 -140z" />
    <glyph glyph-name="plus" unicode="+" horiz-adv-x="583" 
d="M227 91v186h-186v128h186v186h129v-186h186v-128h-186v-186h-129z" />
    <glyph glyph-name="comma" unicode="," horiz-adv-x="271" 
d="M50 -169v31q51 58 45 129q-51 22 -51 75q0 34 25.5 55.5t58.5 21.5q37 0 67.5 -29.5t30.5 -84.5q0 -71 -49.5 -130.5t-126.5 -67.5z" />
    <glyph glyph-name="hyphen" unicode="-" 
d="M297 298v-133h-261v133h261z" />
    <glyph glyph-name="period" unicode="." horiz-adv-x="271" 
d="M222 79q0 -34 -24 -61t-62 -27q-36 0 -62 26t-26 61t25.5 61t61.5 26q38 0 62.5 -25.5t24.5 -60.5z" />
    <glyph glyph-name="slash" unicode="/" horiz-adv-x="281" 
d="M5 -9l168 700h103l-170 -700h-101z" />
    <glyph glyph-name="zero" unicode="0" horiz-adv-x="552" 
d="M507 344q0 -98 -20 -169.5t-54 -110t-72 -56t-82 -17.5q-102 0 -165 81q-69 89 -69 269q0 83 15.5 147t39.5 101.5t56 61t61 32t60 8.5q26 0 52.5 -6.5t60 -29t58.5 -58t42 -101.5t17 -152zM350 348q0 120 -18 167.5t-55 47.5q-44 0 -59 -57.5t-15 -171.5q0 -25 0.5 -41
t2 -45.5t6.5 -48.5t13 -39.5t21 -31t31 -10.5q49 0 64 81q9 56 9 149z" />
    <glyph glyph-name="one" unicode="1" horiz-adv-x="552" 
d="M354 691v-691h-156v691h156z" />
    <glyph glyph-name="two" unicode="2" horiz-adv-x="552" 
d="M505 139v-139h-451v20q2 2 30 38l64.5 85.5l56.5 78.5q114 163 114 250q0 40 -27 68t-65 28q-75 0 -164 -85v143q60 38 102.5 51.5t88.5 13.5q112 0 164 -57t52 -136q0 -40 -15.5 -86t-67.5 -131q-20 -32 -102 -142h220z" />
    <glyph glyph-name="three" unicode="3" horiz-adv-x="552" 
d="M75 541v120q71 30 156 30q94 0 156 -45t62 -122q0 -74 -56 -127q-19 -18 -45 -31q21 -9 35.5 -17.5t37 -28.5t35 -53.5t12.5 -76.5q0 -96 -69.5 -147.5t-173.5 -51.5q-94 0 -167 39v132q76 -52 150 -52q43 0 72 25t29 64q0 6 -0.5 12.5t-6.5 21.5t-15.5 26t-31 21.5
t-51.5 13.5v120q45 4 69.5 29t24.5 54q0 31 -26.5 55.5t-69.5 24.5q-38 0 -75 -13q-4 -1 -15 -6l-23 -10.5t-14 -6.5z" />
    <glyph glyph-name="four" unicode="4" horiz-adv-x="552" 
d="M458 691v-414h46v-109h-46v-168h-151v168h-266v109l321 414h96zM307 277v186l-146 -186h146z" />
    <glyph glyph-name="five" unicode="5" horiz-adv-x="552" 
d="M453 682v-137h-218v-128q3 0 12 0.5t15 0.5q91 0 152.5 -58t61.5 -152q0 -93 -59 -151q-66 -66 -188 -66q-51 0 -98 12.5t-67 24.5v124q77 -41 145 -41q53 0 80.5 29.5t27.5 64.5q0 40 -33 69t-102 29q-42 0 -83 -10v389h354z" />
    <glyph glyph-name="six" unicode="6" horiz-adv-x="552" 
d="M423 691l-158 -258q22 6 40 6q85 0 138 -63.5t53 -151.5q0 -101 -64.5 -167t-161.5 -66q-95 0 -160.5 64t-65.5 178q0 115 93 267l118 191h168zM349 220q0 42 -20 71t-57 29q-33 0 -53.5 -26.5t-20.5 -76.5t21 -74.5t54 -24.5q38 0 57 30t19 72z" />
    <glyph glyph-name="seven" unicode="7" horiz-adv-x="552" 
d="M518 682v-8l-249 -683l-136 52l183 503h-252v136h454z" />
    <glyph glyph-name="eight" unicode="8" horiz-adv-x="552" 
d="M403 360q30 -15 50 -34q52 -52 52 -131q0 -35 -12 -68.5t-36.5 -65t-71.5 -51t-110 -19.5q-99 0 -163 55.5t-64 147.5q0 86 59 139q19 17 44 27q-22 15 -35.5 26t-31 44.5t-17.5 75.5q0 79 54.5 132t152.5 53q105 0 158.5 -57.5t53.5 -128.5q0 -68 -41 -112
q-10 -11 -42 -33zM340 499q0 90 -65 90q-32 0 -48 -28q-15 -28 -15 -64q0 -10 1.5 -21t7 -30.5t20.5 -31.5t37 -12q5 0 9.5 0.5t15 6t18 14.5t13.5 29t6 47zM351 195q0 57 -21.5 83.5t-52.5 26.5q-5 0 -10.5 -0.5t-18.5 -6.5t-22.5 -16t-17 -31.5t-7.5 -51.5
q0 -57 23.5 -83.5t53.5 -26.5t51.5 26t21.5 80z" />
    <glyph glyph-name="nine" unicode="9" horiz-adv-x="552" 
d="M110 -9l157 256q-28 -7 -44 -7q-76 0 -132 62t-56 154q0 102 66 168.5t161 66.5q93 0 159 -65.5t66 -169.5q0 -73 -23.5 -136t-66.5 -134l-120 -195h-167zM334 461q0 57 -23.5 79.5t-51.5 22.5q-34 0 -55.5 -29t-21.5 -73q0 -51 22.5 -76t53.5 -25q34 0 55 29t21 72z" />
    <glyph glyph-name="colon" unicode=":" horiz-adv-x="271" 
d="M222 374q0 -35 -24.5 -62t-62.5 -27q-36 0 -61.5 25t-25.5 61t25 61.5t61 25.5q38 0 63 -25.5t25 -58.5zM222 78q0 -33 -24 -60t-62 -27q-36 0 -62 26t-26 60q0 35 26 61.5t62 26.5q38 0 62 -27.5t24 -59.5z" />
    <glyph glyph-name="semicolon" unicode=";" horiz-adv-x="271" 
d="M50 -169v31q51 58 45 129q-51 22 -51 75q0 34 25.5 55.5t58.5 21.5q37 0 67.5 -29.5t30.5 -84.5q0 -71 -49.5 -130.5t-126.5 -67.5zM222 374q0 -35 -24.5 -62t-62.5 -27q-36 0 -61.5 25t-25.5 61t25 61.5t61 25.5q38 0 63 -25.5t25 -58.5z" />
    <glyph glyph-name="less" unicode="&#x3c;" horiz-adv-x="583" 
d="M542 69l-501 213v119l501 212v-139l-347 -131l347 -136v-138z" />
    <glyph glyph-name="equal" unicode="=" horiz-adv-x="583" 
d="M41 169v128h501v-128h-501zM41 385v129h501v-129h-501z" />
    <glyph glyph-name="greater" unicode="&#x3e;" horiz-adv-x="583" 
d="M41 613l501 -213v-118l-501 -213v139l347 131l-347 136v138z" />
    <glyph glyph-name="question" unicode="?" horiz-adv-x="375" 
d="M34 548h-9l25 123q54 20 116 20q84 0 124.5 -41.5t40.5 -100.5q0 -36 -14.5 -72.5t-30 -59t-52.5 -70.5q-49 -62 -49 -120q0 -14 -1 -16q-3 -5 -33 -5q-19 0 -26 15q-24 43 -24 96q0 37 10 63t39 75q28 50 28 75q0 20 -13 36.5t-45 16.5q-42 0 -86 -35zM245 79
q0 -34 -24.5 -61t-61.5 -27q-36 0 -62 26t-26 60t25.5 60t62.5 26t61.5 -26.5t24.5 -57.5z" />
    <glyph glyph-name="at" unicode="@" horiz-adv-x="979" 
d="M868 -11h104q-57 -116 -173 -167.5t-259 -51.5q-141 0 -257 45q-127 50 -190 160.5t-63 239.5q0 73 18.5 142.5t58 133.5t97 112t142 76.5t185.5 28.5q192 0 303.5 -107.5t111.5 -265.5q0 -91 -40.5 -172t-115 -132t-164.5 -51q-46 0 -65.5 15t-26.5 41q-56 -56 -134 -56
q-80 0 -133 56t-53 153q0 51 17.5 105.5t49 103t83 80t113.5 31.5q89 0 130 -66l12 54h129l-74 -350q-7 -36 -7 -44q0 -23 19 -23q46 0 109 76.5t63 180.5q0 47 -17 93.5t-52.5 90.5t-102.5 71t-157 27q-99 0 -175 -30.5t-119 -75.5t-70.5 -104t-36.5 -106.5t-9 -92.5
q0 -65 21 -123.5t66.5 -111.5t129 -84.5t196.5 -31.5q233 0 336 130zM340 183q0 -59 26.5 -86.5t61.5 -27.5q39 0 70.5 26.5t48 66.5t25 78t8.5 69q0 10 -2.5 23.5t-10 36t-28 37.5t-50.5 15q-38 0 -68.5 -24t-47 -62t-25 -77t-8.5 -75z" />
    <glyph glyph-name="A" unicode="A" horiz-adv-x="781" 
d="M475 682l303 -682h-183l-56 135h-305l-51 -135h-180l275 682h197zM489 254l-110 264l-100 -264h210z" />
    <glyph glyph-name="B" unicode="B" horiz-adv-x="698" 
d="M76 682h260q87 0 133 -13q63 -18 96.5 -63t33.5 -94q0 -39 -23.5 -76.5t-68.5 -60.5q144 -44 144 -176q0 -113 -97 -167q-33 -19 -68.5 -25.5t-95.5 -6.5h-314v682zM316 560h-67v-149h64q22 0 35.5 1.5t35 7.5t33 23t11.5 43q0 21 -8.5 36t-19.5 22t-29 11t-28.5 4.5
t-26.5 0.5zM325 288h-76v-164h84q25 0 38.5 0.5t36.5 4.5t35.5 12t22.5 24.5t10 39.5q0 24 -10 40.5t-22 24.5t-36.5 12.5t-39.5 5t-43 0.5z" />
    <glyph glyph-name="C" unicode="C" horiz-adv-x="759" 
d="M700 216v-157q-128 -68 -268 -68q-96 0 -173.5 29.5t-125 79t-73 111t-25.5 128.5q0 66 26 128t75.5 112.5t130 81t180.5 30.5q145 0 245 -60v-157q-20 15 -47 29.5t-79.5 29.5t-106.5 15q-108 0 -177.5 -57t-69.5 -150q0 -97 70.5 -153t171.5 -56q89 0 181 47z" />
    <glyph glyph-name="D" unicode="D" horiz-adv-x="801" 
d="M76 682h278q107 0 185 -27q21 -7 44 -19t55.5 -38.5t57.5 -59.5t43 -84.5t18 -111.5q0 -32 -5.5 -64t-21 -75t-51.5 -83.5t-88 -68.5q-95 -51 -250 -51h-265v682zM334 552h-86v-422h69q103 0 150 20q53 23 83.5 72.5t30.5 120.5q0 144 -115 191q-44 18 -132 18z" />
    <glyph glyph-name="E" unicode="E" horiz-adv-x="633" 
d="M579 125v-125h-503v682h496v-127h-324v-138h309v-128h-309v-164h331z" />
    <glyph glyph-name="F" unicode="F" horiz-adv-x="604" 
d="M546 682v-129h-298v-144h298v-129h-298v-280h-172v682h470z" />
    <glyph glyph-name="G" unicode="G" horiz-adv-x="804" 
d="M715 635v-148q-134 62 -254 62q-94 0 -156 -39q-40 -25 -66.5 -70t-26.5 -105q0 -93 66 -147.5t159 -54.5q60 0 122 24v80h-98v127h271v-281q-52 -44 -130 -68t-162 -24q-111 0 -202 41t-147 121.5t-56 187.5q0 158 115 254t297 96q133 0 268 -56z" />
    <glyph glyph-name="H" unicode="H" horiz-adv-x="833" 
d="M757 682v-682h-171v276h-338v-276h-172v682h172v-274h338v274h171z" />
    <glyph glyph-name="I" unicode="I" horiz-adv-x="324" 
d="M248 682v-682h-172v682h172z" />
    <glyph glyph-name="J" unicode="J" 
d="M260 682v-580q0 -30 -0.5 -48t-4 -51t-11.5 -56t-21.5 -49.5t-36.5 -46t-53 -31.5q-67 -27 -165 -17v134q10 -3 22 -3q57 0 81 42q18 28 18 141v565h171z" />
    <glyph glyph-name="K" unicode="K" horiz-adv-x="719" 
d="M650 682l-222 -320l302 -362h-213l-271 320v-320h-171v682h171v-309l217 309h187z" />
    <glyph glyph-name="L" unicode="L" horiz-adv-x="615" 
d="M596 127v-127h-520v682h172v-555h348z" />
    <glyph glyph-name="M" unicode="M" horiz-adv-x="887" 
d="M811 682v-682h-172v417l-183 -220h-25l-183 220v-417h-172v682h151l216 -259l219 259h149z" />
    <glyph glyph-name="N" unicode="N" horiz-adv-x="840" 
d="M764 682v-682h-142l-377 422v-422h-169v682h155l365 -402v402h168z" />
    <glyph glyph-name="O" unicode="O" horiz-adv-x="853" 
d="M818 340q0 -61 -25 -121.5t-72 -112t-124.5 -83.5t-172.5 -32q-86 0 -160 29.5t-123.5 78.5t-77.5 111.5t-28 129.5q0 61 25.5 122t72.5 113t124 84t170 32q88 0 162.5 -30t124 -79t77 -112t27.5 -130zM642 336q0 96 -58.5 153t-157.5 57q-94 0 -154 -55.5t-60 -153.5
q0 -47 14.5 -84t37.5 -59.5t52.5 -38t57 -21t53.5 -5.5q88 0 151.5 55.5t63.5 151.5z" />
    <glyph glyph-name="P" unicode="P" horiz-adv-x="651" 
d="M76 682h279q97 0 149 -28q45 -24 74.5 -71t29.5 -103q0 -53 -26 -99.5t-72 -74.5q-24 -15 -54 -22.5t-50 -8.5t-57 -1h-101v-274h-172v682zM308 556h-60v-157h56q23 0 35.5 0.5t33 4.5t31 12t19.5 24t9 39q0 22 -9 37.5t-20 23t-31 11.5t-31.5 4.5t-32.5 0.5z" />
    <glyph glyph-name="Q" unicode="Q" horiz-adv-x="853" 
d="M815 -30l11 -14l-133 -113q-69 7 -139.5 30t-121 51.5t-78.5 47t-39 28.5q-96 24 -162 84t-92 124.5t-26 129.5q0 62 25.5 123t73 113t124.5 84.5t170 32.5q71 0 133.5 -19.5t108.5 -53.5t79.5 -78.5t50.5 -95t17 -101.5q0 -105 -66.5 -200t-187.5 -132q27 -17 83 -33.5
t102 -16.5q29 0 67 9zM642 338q0 87 -49 143q-61 68 -167 68q-87 0 -151 -53t-64 -155t63.5 -156.5t152.5 -54.5q93 0 154 56.5t61 151.5z" />
    <glyph glyph-name="R" unicode="R" horiz-adv-x="679" 
d="M76 682h262q41 0 63.5 -1t56 -9t59.5 -24q34 -23 61.5 -64.5t27.5 -96.5q0 -112 -117 -168q55 -27 98 -128l66 -142l23 -49h-187q-7 14 -44 96t-44 96q-17 31 -32 49.5t-32.5 26t-29 9t-34.5 1.5h-25v-278h-172v682zM334 558h-86v-156h71q37 2 48.5 3.5t24.5 8.5
q37 19 37 66q0 78 -95 78z" />
    <glyph glyph-name="S" unicode="S" horiz-adv-x="602" 
d="M532 638v-140q-135 66 -219 66q-28 0 -49 -5.5t-31 -12t-15.5 -16t-6.5 -14t-1 -8.5q0 -15 10.5 -27.5t37 -25.5t48.5 -21.5l69 -25.5q38 -14 66.5 -29t58.5 -40t46.5 -62t16.5 -84q0 -56 -26.5 -97.5t-69.5 -63t-85.5 -31.5t-85.5 -10q-74 0 -145.5 24.5t-95.5 41.5v147
q40 -25 67 -39.5t75.5 -30t94.5 -15.5q102 0 102 62q0 31 -26 47.5t-103 42.5q-37 13 -61.5 23t-58 29.5t-53.5 41.5t-34.5 56.5t-14.5 75.5q0 83 67.5 138.5t190.5 55.5q108 0 231 -53z" />
    <glyph glyph-name="T" unicode="T" horiz-adv-x="719" 
d="M692 682v-128h-246v-554h-173v554h-247v128h666z" />
    <glyph glyph-name="U" unicode="U" horiz-adv-x="826" 
d="M755 682v-371q0 -138 -59 -210q-92 -110 -287 -110q-193 0 -287 121q-52 69 -52 194v376h172v-338q0 -68 12 -106q16 -54 60 -82t98 -28q66 0 105 31.5t54 68.5q12 30 12 116v338h172z" />
    <glyph glyph-name="V" unicode="V" horiz-adv-x="719" 
d="M719 682l-315 -691h-74l-330 691h185l180 -389l171 389h183z" />
    <glyph glyph-name="W" unicode="W" horiz-adv-x="1167" 
d="M1167 682l-301 -691h-73l-210 445l-211 -445h-73l-300 691h180l161 -377l175 377h139l171 -377l162 377h180z" />
    <glyph glyph-name="X" unicode="X" horiz-adv-x="812" 
d="M779 682l-267 -329l296 -353h-220l-185 225l-182 -225h-217l289 353l-273 329h220l163 -201l160 201h216z" />
    <glyph glyph-name="Y" unicode="Y" horiz-adv-x="708" 
d="M709 682l-269 -363v-319h-171v319l-269 363h205l150 -214l150 214h204z" />
    <glyph glyph-name="Z" unicode="Z" horiz-adv-x="698" 
d="M666 682l-372 -554h372v-128h-662l375 554h-349v128h636z" />
    <glyph glyph-name="bracketleft" unicode="[" horiz-adv-x="438" 
d="M419 682v-109h-190v-685h190v-109h-335v903h335z" />
    <glyph glyph-name="backslash" unicode="\" horiz-adv-x="281" 
d="M108 691l168 -700h-101l-170 700h103z" />
    <glyph glyph-name="bracketright" unicode="]" horiz-adv-x="437" 
d="M19 682h334v-903h-334v109h190v685h-190v109z" />
    <glyph glyph-name="asciicircum" unicode="^" horiz-adv-x="583" 
d="M56 292l184 390h108l179 -390h-139l-96 239l-96 -239h-140z" />
    <glyph glyph-name="underscore" unicode="_" horiz-adv-x="500" 
d="M-6 -75h512v-50h-512v50z" />
    <glyph glyph-name="grave" unicode="`" 
d="M14 664h165l74 -146h-74z" />
    <glyph glyph-name="a" unicode="a" horiz-adv-x="531" 
d="M532 114v-81q-68 -42 -136 -42q-31 0 -50 10t-23.5 18.5t-8.5 22.5q-79 -51 -152 -51q-54 0 -91.5 33.5t-37.5 87.5q0 92 128 137q85 30 146 47q0 14 -1.5 23t-7.5 24t-24 23t-46 8q-41 0 -81 -17.5t-59.5 -32.5t-30.5 -28v118q89 56 201 56q139 0 181 -75q14 -24 14 -84
v-182q0 -37 23 -37q15 0 56 22zM307 112v111q-2 -1 -19.5 -7.5t-33 -13l-20.5 -8.5q-54 -25 -54 -67q0 -22 14.5 -35.5t31.5 -13.5q44 0 81 34z" />
    <glyph glyph-name="b" unicode="b" horiz-adv-x="587" 
d="M207 682v-247q21 12 32 17.5t35.5 11.5t51.5 6q93 0 159 -63t66 -175q0 -107 -60.5 -174t-154.5 -67q-69 0 -129 44v-35h-145v682h145zM207 341v-214q45 -34 86 -34q17 0 33.5 5t36 18t31.5 43t12 73q0 59 -22 91q-14 21 -39.5 34t-53.5 13q-45 0 -84 -29z" />
    <glyph glyph-name="c" unicode="c" horiz-adv-x="497" 
d="M460 126v-104q-83 -31 -156 -31q-117 0 -192 62.5t-75 175.5q0 114 78 177.5t183 63.5q76 0 155 -30v-108q-59 31 -118 31q-40 0 -69.5 -13t-44.5 -34t-22 -42.5t-7 -43.5q0 -55 35 -95.5t100 -40.5q43 0 133 32z" />
    <glyph glyph-name="d" unicode="d" horiz-adv-x="586" 
d="M527 682v-682h-144v37q-59 -46 -128 -46q-83 0 -149 63t-66 177q0 111 64.5 175t158.5 64q63 0 120 -29v241h144zM383 126v220q-34 27 -81 27q-46 0 -78 -32q-35 -37 -35 -112q0 -44 13 -74t33.5 -42t35 -16t27.5 -4q41 0 85 33z" />
    <glyph glyph-name="e" unicode="e" horiz-adv-x="564" 
d="M510 145v-93q-86 -61 -210 -61q-73 0 -126.5 23t-82 60t-41.5 76t-13 80q0 107 71.5 173.5t172.5 66.5q31 0 62 -7.5t63.5 -26.5t57 -47.5t40 -75.5t14.5 -106h-331q4 -62 44 -94t109 -32q39 0 72.5 10.5t50.5 21t47 32.5zM190 283h200q-4 38 -28.5 68.5t-71.5 30.5
q-48 0 -72.5 -31t-27.5 -68z" />
    <glyph glyph-name="f" unicode="f" horiz-adv-x="302" 
d="M226 461h66v-97h-66v-364h-145v364h-66v97h66q2 43 5 67t14.5 54t33.5 53q54 56 149 56q27 0 81 -8l7 -1v-117q-40 6 -65 6q-23 0 -39 -7t-24 -15.5t-12 -26t-4.5 -28.5t-0.5 -33z" />
    <glyph glyph-name="g" unicode="g" horiz-adv-x="542" 
d="M531 461v-96h-67q23 -37 23 -78q0 -13 -3.5 -28.5t-14 -40t-39 -46t-70.5 -32.5q-32 -8 -84 -11q-25 -2 -35 -12t-10 -19q0 -17 22.5 -23t81.5 -10q22 -1 43.5 -5t47 -14t44 -25t31.5 -40.5t13 -57.5q0 -30 -10.5 -54.5t-28 -39.5t-30 -23t-25.5 -13q-54 -23 -143 -23
q-96 0 -148 18q-101 37 -101 116q0 84 124 116q-57 18 -57 61q0 17 8 30t24 20.5t26.5 11t26.5 7.5q-50 9 -89.5 47t-39.5 97q0 97 90 142q49 25 134 25h256zM354 294q0 31 -23.5 56t-61.5 25q-39 0 -60.5 -27t-21.5 -57q0 -34 24.5 -58t58.5 -24q37 0 60.5 26.5t23.5 58.5z
M385 -86q0 51 -110 51q-113 0 -113 -56q0 -5 1.5 -11t8.5 -14t18 -13.5t32.5 -10t50.5 -4.5q56 0 85 17q27 16 27 41z" />
    <glyph glyph-name="h" unicode="h" horiz-adv-x="585" 
d="M210 682v-289q62 77 147 77q88 0 134 -68q32 -47 32 -122v-280h-144v249q0 16 -0.5 26.5t-4.5 29t-11 30t-22 20.5t-36 9q-29 0 -54.5 -20t-40.5 -50v-294h-148v682h148z" />
    <glyph glyph-name="i" unicode="i" horiz-adv-x="269" 
d="M201 461v-461h-139v461h139zM135 692q33 0 56 -23t23 -56t-23 -56.5t-56 -23.5t-56.5 23t-23.5 57q0 33 23.5 56t56.5 23z" />
    <glyph glyph-name="j" unicode="j" horiz-adv-x="271" 
d="M210 461v-420q0 -46 -1.5 -71t-12.5 -62.5t-32 -66.5q-22 -30 -56.5 -49.5t-70.5 -20.5l-46 130q33 5 50.5 28.5t21 48t3.5 63.5v420h144zM137 693q32 0 55.5 -23.5t23.5 -56.5q0 -32 -23 -55.5t-56 -23.5t-56.5 23t-23.5 56t23.5 56.5t56.5 23.5z" />
    <glyph glyph-name="k" unicode="k" horiz-adv-x="568" 
d="M209 682v-449l182 228h169l-180 -228l188 -233h-177l-182 227v-227h-146v682h146z" />
    <glyph glyph-name="l" unicode="l" horiz-adv-x="270" 
d="M208 682v-682h-146v682h146z" />
    <glyph glyph-name="m" unicode="m" horiz-adv-x="958" 
d="M206 461v-59q75 68 162 68q76 0 123 -42q25 -22 42 -56q82 98 182 98q94 0 143 -65q38 -50 38 -127v-278h-146v249q0 18 -0.5 28.5t-5 29.5t-13 30.5t-26 20.5t-41.5 9q-64 0 -114 -72v-295h-145v257q0 47 -12 69q-24 42 -76 42q-58 0 -111 -59v-309h-144v461h144z" />
    <glyph glyph-name="n" unicode="n" horiz-adv-x="588" 
d="M207 461v-66q65 75 150 75q58 0 95.5 -26.5t55.5 -63.5q18 -36 18 -108v-272h-146v260q0 49 -7 66q-15 43 -65 43q-58 0 -101 -72v-297h-145v461h145z" />
    <glyph glyph-name="o" unicode="o" horiz-adv-x="593" 
d="M556 229q0 -64 -25 -112.5t-65 -74.5t-82.5 -38.5t-85.5 -12.5q-110 0 -185.5 64t-75.5 173q0 106 75.5 174t186.5 68q43 0 85 -12.5t82 -39t65 -75.5t25 -114zM401 238q0 143 -107 143q-101 0 -101 -156q0 -144 105 -144q103 0 103 157z" />
    <glyph glyph-name="p" unicode="p" horiz-adv-x="588" 
d="M208 461v-40q58 49 132 49q84 0 148.5 -64.5t64.5 -169.5q0 -115 -64 -180t-162 -65q-67 0 -119 32v-244h-146v682h146zM208 330v-212q40 -30 83 -30t78 32.5t35 107.5q0 65 -26 100q-27 39 -81 39q-23 0 -49 -11t-40 -26z" />
    <glyph glyph-name="q" unicode="q" horiz-adv-x="588" 
d="M530 461v-682h-144v246q-50 -34 -120 -34q-96 0 -161 64.5t-65 169.5q0 55 20 108.5t70 95t121 41.5q75 0 135 -46v37h144zM386 119v216q-46 32 -93 32q-38 0 -72 -32.5t-34 -107.5q0 -41 12 -70t31 -42t37 -18.5t36 -5.5q47 0 83 28z" />
    <glyph glyph-name="r" unicode="r" horiz-adv-x="446" 
d="M207 461v-132q67 141 149 141q39 0 96 -42l-40 -128q-51 34 -85 34q-37 0 -61 -26t-47 -75q-1 -2 -6 -17t-6 -17v-199h-145v461h145z" />
    <glyph glyph-name="s" unicode="s" horiz-adv-x="427" 
d="M377 436v-103q-83 45 -143 45q-64 0 -64 -32q0 -13 10.5 -21.5t46.5 -23.5q44 -17 67 -28.5t52 -31t41.5 -45t12.5 -58.5q0 -70 -49.5 -108.5t-138.5 -38.5q-49 0 -96.5 11t-68.5 23v102q83 -43 147 -43q34 0 52 10t18 25q0 18 -15.5 28t-72.5 34q-56 24 -77 36
q-61 37 -61 110q0 61 50 102t138 41q86 0 151 -34z" />
    <glyph glyph-name="t" unicode="t" horiz-adv-x="409" 
d="M379 461v-100h-166v-101q0 -88 4 -112q9 -50 65 -50q41 0 97 27v-105q-75 -29 -135 -29q-100 0 -150 69q-28 39 -28 134v167h-66v27l193 218h20v-145h166z" />
    <glyph glyph-name="u" unicode="u" horiz-adv-x="583" 
d="M521 461v-461h-146v66q-53 -75 -146 -75q-63 0 -102.5 31t-55.5 71q-10 28 -10 80v288h146v-246q0 -23 0.5 -35t4 -31.5t10.5 -30t21 -18.5t34 -8q56 0 98 65v304h146z" />
    <glyph glyph-name="v" unicode="v" horiz-adv-x="510" 
d="M507 461l-205 -470h-88l-212 470h154l100 -245l97 245h154z" />
    <glyph glyph-name="w" unicode="w" horiz-adv-x="781" 
d="M782 461l-211 -470h-68l-112 251l-116 -251h-68l-208 470h148l97 -245l103 245h87l102 -245l99 245h147z" />
    <glyph glyph-name="x" unicode="x" horiz-adv-x="561" 
d="M544 461l-177 -225l191 -236h-177l-104 134l-101 -134h-172l184 236l-184 225h178l95 -124l90 124h177z" />
    <glyph glyph-name="y" unicode="y" horiz-adv-x="510" 
d="M509 461l-309 -682h-154l135 296l-180 386h155l97 -228l104 228h152z" />
    <glyph glyph-name="z" unicode="z" horiz-adv-x="521" 
d="M42 461h450l-236 -361h236v-100h-473l237 359h-214v102z" />
    <glyph glyph-name="braceleft" unicode="{" horiz-adv-x="385" 
d="M29 169v114q66 3 86.5 40.5t20.5 128.5q0 110 17 151q32 79 184 79h26v-113q-68 0 -83 -12.5t-17 -61.5q-3 -113 -7.5 -147t-23.5 -66q-18 -31 -60 -56q57 -32 71.5 -78t17.5 -139q3 -83 7 -94q5 -15 21.5 -22.5t31 -8.5t42.5 -1v-113h-26q-37 0 -58.5 1.5t-54.5 13.5
t-54 36q-22 24 -28 61.5t-6 99.5t-2.5 87.5t-12.5 47.5t-26.5 33.5t-30 14.5t-35.5 4z" />
    <glyph glyph-name="bar" unicode="|" horiz-adv-x="281" 
d="M86 -230v921h109v-921h-109z" />
    <glyph glyph-name="braceright" unicode="}" horiz-adv-x="385" 
d="M48 -230h-26v113q46 0 66.5 7t26.5 20.5t7 46.5q4 114 8.5 147.5t22.5 64.5q20 34 61 57q-58 36 -72.5 78t-17.5 138q-4 88 -6 95q-6 22 -27.5 27t-68.5 5v113h26q37 0 59 -1.5t55 -13.5t54 -36t27 -61.5t6 -98.5q0 -63 2.5 -88.5t12.5 -47.5q15 -32 37 -41.5t55 -10.5
v-114q-65 -3 -86 -40t-21 -129q0 -65 -2.5 -94.5t-13.5 -56.5q-33 -79 -185 -79z" />
    <glyph glyph-name="asciitilde" unicode="~" horiz-adv-x="583" 
d="M16 241v131q87 72 160 72q47 0 137 -44q71 -34 108 -34q28 0 58.5 14t46.5 26t41 34v-131q-89 -71 -158 -71q-35 0 -89 22q-8 3 -56 25t-57 25q-21 7 -38 7q-63 0 -153 -76z" />
    <glyph glyph-name="uni00A0" unicode="&#xa0;" horiz-adv-x="278" 
 />
    <glyph glyph-name="exclamdown" unicode="&#xa1;" horiz-adv-x="271" 
d="M218 -119q0 -51 -21 -81.5t-64 -30.5q-82 0 -82 114q0 57 17 164t32 160q9 31 13.5 38.5t17.5 7.5q19 0 23.5 -3t9.5 -22q19 -64 36.5 -176t17.5 -171zM222 383q0 -34 -24.5 -60.5t-61.5 -26.5q-36 0 -61.5 26t-25.5 61t25.5 61t61.5 26q38 0 62 -26t24 -61z" />
    <glyph glyph-name="cent" unicode="&#xa2;" horiz-adv-x="500" 
d="M471 632l-55 -177q17 -5 39 -14v-107q-30 16 -69 26l-83 -262q89 -5 159 31v-107q-98 -38 -192 -31l-57 -180h-71l60 189q-161 57 -161 227q0 110 74.5 176.5t189.5 66.5q28 0 43 -3l52 165h71zM240 124l76 239q-50 -3 -86.5 -37.5t-36.5 -95.5q0 -67 47 -106z" />
    <glyph glyph-name="sterling" unicode="&#xa3;" horiz-adv-x="521" 
d="M336 394v-118h-97q-1 -4 -7 -36l-11.5 -59t-7.5 -35q14 5 33 5q18 0 93 -15q35 -7 60 -7q37 0 81 17v-135q-45 -20 -88 -20q-19 0 -67 9q-70 16 -124 16q-68 0 -154 -25q1 31 20 132t32 153h-45v118h77q41 149 94 214q36 45 82.5 64t82.5 19q16 0 29 -9l61 -127
q-27 9 -51 9t-42 -5t-41 -20.5t-41.5 -52t-32.5 -92.5h64z" />
    <glyph glyph-name="currency" unicode="&#xa4;" horiz-adv-x="552" 
d="M86 446l-64 63l80 86l68 -66q48 29 106 29q54 0 106 -29l66 66l82 -83l-65 -66q27 -49 27 -106q0 -55 -27 -105l65 -65l-82 -83l-66 65q-50 -27 -106 -27q-58 0 -106 27l-63 -65l-85 83l64 65q-27 50 -27 106t27 105zM177 341q0 -41 29 -70t70 -29t69.5 29t28.5 70
t-28.5 70t-69.5 29t-70 -29t-29 -70z" />
    <glyph glyph-name="yen" unicode="&#xa5;" horiz-adv-x="552" 
d="M206 133h-181v99h181v68h-181v99h132l-156 317h151l97 -208q20 -44 26 -69q6 26 27 69l99 208h151l-159 -317h134v-99h-183v-68h183v-99h-183v-133h-138v133z" />
    <glyph glyph-name="brokenbar" unicode="&#xa6;" horiz-adv-x="281" 
d="M86 -230v377h109v-377h-109zM86 314v377h109v-377h-109z" />
    <glyph glyph-name="section" unicode="&#xa7;" horiz-adv-x="521" 
d="M406 25q46 -60 46 -113q0 -69 -54 -105.5t-140 -36.5q-83 0 -136.5 30.5t-53.5 76.5q0 29 22 51t52 22q10 0 20.5 -2.5t24.5 -15.5t19 -35q3 -12 5.5 -18t14 -13t29.5 -7q20 0 38.5 10.5t18.5 35.5q0 14 -4.5 23.5t-31.5 33.5t-85 65q-72 50 -84 62q-47 45 -64 82.5
t-17 81.5q0 98 87 182q-20 27 -27 38t-13.5 28.5t-6.5 38.5q0 77 68 121q45 30 133 30q80 0 124 -22q62 -34 62 -87q0 -31 -21.5 -52.5t-52.5 -21.5q-49 0 -61 47q-2 9 -4 14t-7.5 13.5t-16 13t-25.5 4.5q-25 0 -41.5 -14.5t-16.5 -34.5q0 -18 11.5 -31t43.5 -37
q35 -27 87 -62q146 -98 146 -217q0 -40 -15.5 -76.5t-30.5 -55t-43 -47.5zM260 312l-73 57q-34 -39 -34 -80q0 -27 14 -50.5t53 -57.5q7 -6 31 -24.5l51 -39l32 -24.5l18 23t11 22.5t5 30.5q0 35 -23 65.5t-85 77.5z" />
    <glyph glyph-name="dieresis" unicode="&#xa8;" 
d="M268 657q27 0 46 -18.5t19 -46.5q0 -26 -19 -45.5t-46 -19.5t-46 19.5t-19 45.5q0 27 19 46t46 19zM65 657q27 0 46 -19t19 -46t-19 -46t-46 -19t-46 19.5t-19 45.5q0 27 19 46t46 19z" />
    <glyph glyph-name="copyright" unicode="&#xa9;" horiz-adv-x="740" 
d="M460 262l79 -27q-20 -68 -65 -97.5t-99 -29.5q-76 0 -132.5 50.5t-56.5 155.5q0 95 50 152.5t140 57.5q120 0 163 -118l-79 -19q-25 68 -87 68q-32 0 -54 -15t-31 -39.5t-12.5 -44t-3.5 -39.5q0 -9 0.5 -17.5t3 -27t9 -33t16.5 -29.5t27.5 -23.5t40.5 -8.5q69 0 91 84z
M744 317q0 -156 -110 -265t-264 -109q-155 0 -264.5 109.5t-109.5 264.5t109.5 264.5t264.5 109.5q154 0 264 -109.5t110 -264.5zM670 317q0 125 -88.5 213t-211.5 88q-124 0 -212.5 -88t-88.5 -213q0 -124 88 -212t213 -88q124 0 212 87.5t88 212.5z" />
    <glyph glyph-name="ordfeminine" unicode="&#xaa;" horiz-adv-x="354" 
d="M353 486v-57q-48 -27 -93 -27t-56 27q-50 -27 -94 -27q-36 0 -62 20.5t-26 53.5q0 59 87 85q43 15 89 26q0 11 -2 18.5t-12.5 15t-30.5 7.5q-61 0 -115 -54v82q61 35 130 35q95 0 124 -45q11 -15 11 -51v-109q0 -18 9 -18q8 0 41 18zM198 477v59q-40 -13 -55 -22t-15 -28
q0 -12 8 -19t17 -7q25 0 45 17z" />
    <glyph glyph-name="guillemotleft" unicode="&#xab;" horiz-adv-x="594" 
d="M583 454l-159 -225l159 -222h-144l-160 222l160 225h144zM317 454l-161 -225l161 -222h-143l-163 222l163 225h143z" />
    <glyph glyph-name="logicalnot" unicode="&#xac;" horiz-adv-x="583" 
d="M414 169v216h-373v129h501v-345h-128z" />
    <glyph glyph-name="uni00AD" unicode="&#xad;" 
d="M297 298v-133h-261v133h261z" />
    <glyph glyph-name="registered" unicode="&#xae;" horiz-adv-x="740" 
d="M546 117h-99l-32 64q-18 34 -42 65q-17 22 -33 28t-44 6h-15v-163h-80v397h141q62 0 90 -4t49 -20q41 -32 41 -87q0 -40 -25.5 -72t-81.5 -40q26 -10 40.5 -26.5t44.5 -67.5zM281 451v-108h33q68 0 84 4q39 12 39 51q0 28 -23 41q-14 9 -31 10.5t-69 1.5h-33zM744 317
q0 -156 -110 -265t-264 -109q-155 0 -264.5 109.5t-109.5 264.5t109.5 264.5t264.5 109.5q154 0 264 -109t110 -265zM671 317q0 125 -88.5 213t-212.5 88t-212.5 -88.5t-88.5 -212.5t88.5 -212t212.5 -88t212.5 87.5t88.5 212.5z" />
    <glyph glyph-name="macron" unicode="&#xaf;" 
d="M360 642v-100h-387v100h387z" />
    <glyph glyph-name="degree" unicode="&#xb0;" horiz-adv-x="396" 
d="M42 535q0 65 45.5 110.5t110.5 45.5t110.5 -45.5t45.5 -110.5q0 -64 -46 -109.5t-110 -45.5t-110 45.5t-46 109.5zM123 535q0 -31 22 -52.5t53 -21.5t52.5 21.5t21.5 52.5t-21.5 53t-52.5 22t-53 -22t-22 -53z" />
    <glyph glyph-name="plusminus" unicode="&#xb1;" horiz-adv-x="583" 
d="M41 -12v128h501v-128h-501zM227 162v186h-186v128h186v186h129v-186h186v-128h-186v-186h-129z" />
    <glyph glyph-name="two.superior" unicode="&#xb2;" 
d="M312 350v-77h-278v13q3 3 20 22l44 51t44 55q48 63 48 103q0 20 -14 33t-34 13q-40 0 -103 -51v85q64 35 118 35q69 0 101.5 -29.5t32.5 -71.5q0 -62 -106 -181h127z" />
    <glyph glyph-name="three.superior" unicode="&#xb3;" 
d="M42 547v68q45 17 98 17q58 0 96.5 -24.5t38.5 -63.5q0 -51 -57 -81q68 -28 68 -90q0 -49 -42.5 -77t-107.5 -28q-58 0 -104 22v77q50 -32 94 -32q23 0 38.5 11.5t15.5 30.5q0 42 -62 46v67q25 2 38.5 12t15 16t1.5 12q0 14 -12.5 26t-38.5 12q-24 0 -80 -21z" />
    <glyph glyph-name="acute" unicode="&#xb4;" 
d="M319 664l-164 -146h-75l75 146h164z" />
    <glyph glyph-name="mu" unicode="&#xb5;" horiz-adv-x="615" 
d="M392 459h145v-301q0 -56 28 -56q7 0 21 5v-94q-48 -23 -91 -23q-45 0 -64 37q-40 -37 -91 -37q-42 0 -73 23t-48 51v-294h-145v689h145v-295q52 -66 104 -66q44 0 64 57q5 15 5 64v240z" />
    <glyph glyph-name="paragraph" unicode="&#xb6;" horiz-adv-x="552" 
d="M308 -230h-117v511q-69 5 -115.5 37.5t-62 78t-14 94t23.5 91t56 63.5q27 18 56.5 26t52 9.5t72.5 1.5h291v-127h-55v-785h-117v785h-71v-785z" />
    <glyph glyph-name="periodcentered" unicode="&#xb7;" horiz-adv-x="271" 
d="M223 346q0 -33 -24.5 -60t-62.5 -27q-35 0 -61 26t-26 61t25 61t61 26q38 0 63 -27t25 -60z" />
    <glyph glyph-name="cedilla" unicode="&#xb8;" 
d="M234 8l-13 -31q62 -22 62 -73q0 -32 -25.5 -57.5t-82.5 -25.5q-55 0 -75 10v50q29 0 42 1t23.5 8t10.5 22q0 14 -10.5 19.5t-30.5 8.5l39 68h60z" />
    <glyph glyph-name="one.superior" unicode="&#xb9;" 
d="M219 632v-359h-104v359h104z" />
    <glyph glyph-name="ordmasculine" unicode="&#xba;" horiz-adv-x="396" 
d="M370 546q0 -73 -53.5 -108.5t-117.5 -35.5q-73 0 -123 39.5t-50 104.5q0 64 50 104.5t123 40.5q38 0 74.5 -12t66.5 -46.5t30 -86.5zM258 551q0 81 -62 81q-59 0 -59 -88q0 -82 62 -82q59 0 59 89z" />
    <glyph glyph-name="guillemotright" unicode="&#xbb;" horiz-adv-x="594" 
d="M11 454h144l160 -226l-160 -221h-144l159 221zM277 454h145l161 -226l-161 -221h-145l161 221z" />
    <glyph glyph-name="onequarter" unicode="&#xbc;" horiz-adv-x="896" 
d="M842 360v-212h28v-62h-28v-86h-101v86h-156v62l192 212h65zM741 148v78l-71 -78h71zM222 691v-359h-104v359h104zM746 691l-479 -718h-94l479 718h94z" />
    <glyph glyph-name="onehalf" unicode="&#xbd;" horiz-adv-x="896" 
d="M222 691v-359h-104v359h104zM728 691l-478 -718h-94l478 718h94zM870 77v-77h-278v14l84.5 96.5t49 69t23.5 64.5q0 20 -14.5 33t-33.5 13q-48 0 -103 -51v85q65 36 118 36q68 0 101 -29.5t33 -71.5q0 -28 -21 -66.5t-37.5 -59l-47.5 -56.5h126z" />
    <glyph glyph-name="threequarters" unicode="&#xbe;" horiz-adv-x="896" 
d="M45 606v68q45 17 98 17q58 0 96.5 -24.5t38.5 -63.5q0 -50 -56 -81q67 -29 67 -90q0 -49 -42.5 -77t-107.5 -28q-58 0 -104 22v77q50 -32 94 -32q23 0 38.5 11.5t15.5 30.5q0 42 -61 46v67q25 2 38.5 12t15 16t1.5 12q0 15 -13.5 26.5t-37.5 11.5q-15 0 -43 -7
q-1 0 -17.5 -6.5t-20.5 -7.5zM746 691l-479 -718h-94l479 718h94zM842 360v-212h28v-62h-28v-86h-101v86h-156v62l192 212h65zM741 148v78l-71 -78h71z" />
    <glyph glyph-name="questiondown" unicode="&#xbf;" horiz-adv-x="375" 
d="M325 -89l-24 -123q-63 -18 -122 -18q-80 0 -120 41.5t-40 99.5q0 35 12.5 68.5t27 54.5t45.5 62q60 78 60 129v21q3 7 31 7q15 0 20 -3t14 -19q19 -37 19 -92q0 -49 -37 -114q-29 -54 -34.5 -66t-5.5 -27q0 -25 16.5 -41t40.5 -16q40 0 89 36h8zM278 383
q0 -32 -24.5 -59.5t-61.5 -27.5q-36 0 -61.5 26t-25.5 61q0 36 25 61.5t61 25.5q38 0 62.5 -27.5t24.5 -59.5z" />
    <glyph glyph-name="Agrave" unicode="&#xc0;" horiz-adv-x="781" 
d="M475 682l303 -682h-183l-56 135h-305l-51 -135h-180l275 682h197zM489 254l-110 264l-100 -264h210zM193 918h192l117 -189h-101z" />
    <glyph glyph-name="Aacute" unicode="&#xc1;" horiz-adv-x="781" 
d="M475 682l303 -682h-183l-56 135h-305l-51 -135h-180l275 682h197zM489 254l-110 264l-100 -264h210zM588 918l-208 -189h-101l117 189h192z" />
    <glyph glyph-name="Acircumflex" unicode="&#xc2;" horiz-adv-x="781" 
d="M475 682l303 -682h-183l-56 135h-305l-51 -135h-180l275 682h197zM489 254l-110 264l-100 -264h210zM480 899l117 -170h-93l-116 103l-114 -103h-91l115 170h182z" />
    <glyph glyph-name="Atilde" unicode="&#xc3;" horiz-adv-x="781" 
d="M475 682l303 -682h-183l-56 135h-305l-51 -135h-180l275 682h197zM489 254l-110 264l-100 -264h210zM243 734h-74q0 71 33.5 115.5t97.5 44.5q52 0 118 -34q45 -24 72 -24q39 0 47 58h75q0 -70 -33.5 -115t-94.5 -45q-55 0 -137 42q-35 18 -59 18q-41 0 -45 -60z" />
    <glyph glyph-name="Adieresis" unicode="&#xc4;" horiz-adv-x="781" 
d="M475 682l303 -682h-183l-56 135h-305l-51 -135h-180l275 682h197zM489 254l-110 264l-100 -264h210zM533 894q33 0 56.5 -23.5t23.5 -56.5t-23.5 -56.5t-56.5 -23.5t-56.5 23.5t-23.5 56.5t23.5 56.5t56.5 23.5zM248 894q33 0 56.5 -23.5t23.5 -56.5t-23.5 -56.5
t-56.5 -23.5t-56.5 23.5t-23.5 56.5t23.5 56.5t56.5 23.5z" />
    <glyph glyph-name="Aring" unicode="&#xc5;" horiz-adv-x="781" 
d="M475 682l303 -682h-183l-56 135h-305l-51 -135h-180l275 682h197zM489 254l-110 264l-100 -264h210zM390 957q46 0 80 -33.5t34 -80.5q0 -48 -33.5 -81t-80.5 -33t-80.5 33t-33.5 81t33.5 81t80.5 33zM390 904q-26 0 -43.5 -18t-17.5 -43q0 -26 17.5 -44t43.5 -18
q25 0 43 18t18 44q0 25 -18 43t-43 18z" />
    <glyph glyph-name="AE" unicode="&#xc6;" horiz-adv-x="1073" 
d="M1007 682v-129h-316v-142h302v-128h-302v-156h326v-127h-497v283h-183l-168 -283h-176l409 682h605zM520 411v180l-107 -180h107z" />
    <glyph glyph-name="Ccedilla" unicode="&#xc7;" horiz-adv-x="761" 
d="M695 633v-158q-114 74 -233 74q-107 0 -178 -56t-71 -152q0 -44 15 -79.5t39.5 -59t56.5 -39.5t64.5 -23t65.5 -7q119 0 248 84v-157q-111 -60 -226 -69l-10 -12q42 -6 66 -30t24 -51q0 -33 -22 -55.5t-49 -30.5q-33 -11 -86 -11q-68 0 -117 14v56q26 -2 43 -2
q69 0 69 35q0 29 -65 29l58 58q-95 11 -161 43q-83 42 -137 121.5t-54 182.5q0 69 28 132t79 112.5t130.5 79t176.5 29.5q125 0 246 -58z" />
    <glyph glyph-name="Egrave" unicode="&#xc8;" horiz-adv-x="635" 
d="M581 125v-125h-503v682h496v-127h-324v-138h309v-128h-309v-164h331zM135 918h192l117 -189h-101z" />
    <glyph glyph-name="Eacute" unicode="&#xc9;" horiz-adv-x="635" 
d="M581 125v-125h-503v682h496v-127h-324v-138h309v-128h-309v-164h331zM555 918l-208 -189h-101l117 189h192z" />
    <glyph glyph-name="Ecircumflex" unicode="&#xca;" horiz-adv-x="635" 
d="M581 125v-125h-503v682h496v-127h-324v-138h309v-128h-309v-164h331zM422 899l117 -170h-93l-116 103l-114 -103h-91l115 170h182z" />
    <glyph glyph-name="Edieresis" unicode="&#xcb;" horiz-adv-x="635" 
d="M581 125v-125h-503v682h496v-127h-324v-138h309v-128h-309v-164h331zM475 894q33 0 56.5 -23.5t23.5 -56.5t-23.5 -56.5t-56.5 -23.5t-56.5 23.5t-23.5 56.5t23.5 56.5t56.5 23.5zM190 894q33 0 56.5 -23.5t23.5 -56.5t-23.5 -56.5t-56.5 -23.5t-56.5 23.5t-23.5 56.5
t23.5 56.5t56.5 23.5z" />
    <glyph glyph-name="Igrave" unicode="&#xcc;" 
d="M253 682v-682h-172v682h172zM-31 918h192l117 -189h-101z" />
    <glyph glyph-name="Iacute" unicode="&#xcd;" 
d="M253 682v-682h-172v682h172zM364 918l-208 -189h-101l117 189h192z" />
    <glyph glyph-name="Icircumflex" unicode="&#xce;" 
d="M253 682v-682h-172v682h172zM256 899l117 -170h-93l-116 103l-114 -103h-91l115 170h182z" />
    <glyph glyph-name="Idieresis" unicode="&#xcf;" 
d="M253 682v-682h-172v682h172zM309 894q33 0 56.5 -23.5t23.5 -56.5t-23.5 -56.5t-56.5 -23.5t-56.5 23.5t-23.5 56.5t23.5 56.5t56.5 23.5zM24 894q33 0 56.5 -23.5t23.5 -56.5t-23.5 -56.5t-56.5 -23.5t-56.5 23.5t-23.5 56.5t23.5 56.5t56.5 23.5z" />
    <glyph glyph-name="Eth" unicode="&#xd0;" horiz-adv-x="802" 
d="M75 296h-83v91h83v295h278q107 0 185 -27q21 -7 44 -19t55.5 -38.5t57.5 -59.5t43 -84.5t18 -111.5q0 -32 -5.5 -64t-21 -75t-51.5 -83.5t-88 -68.5q-95 -51 -250 -51h-265v296zM397 296h-150v-166h69q103 0 150 20q53 23 83.5 72.5t30.5 120.5q0 144 -115 191
q-44 18 -132 18h-86v-165h150v-91z" />
    <glyph glyph-name="Ntilde" unicode="&#xd1;" horiz-adv-x="840" 
d="M764 682v-682h-142l-377 422v-422h-169v682h155l365 -402v402h168zM273 734h-74q0 71 33.5 115.5t97.5 44.5q52 0 118 -34q45 -24 72 -24q39 0 47 58h75q0 -70 -33.5 -115t-94.5 -45q-55 0 -137 42q-35 18 -59 18q-41 0 -45 -60z" />
    <glyph glyph-name="Ograve" unicode="&#xd2;" horiz-adv-x="853" 
d="M818 340q0 -61 -25 -121.5t-72 -112t-124.5 -83.5t-172.5 -32q-86 0 -160 29.5t-123.5 78.5t-77.5 111.5t-28 129.5q0 61 25.5 122t72.5 113t124 84t170 32q88 0 162.5 -30t124 -79t77 -112t27.5 -130zM642 336q0 96 -58.5 153t-157.5 57q-94 0 -154 -55.5t-60 -153.5
q0 -47 14.5 -84t37.5 -59.5t52.5 -38t57 -21t53.5 -5.5q88 0 151.5 55.5t63.5 151.5zM239 918h192l117 -189h-101z" />
    <glyph glyph-name="Oacute" unicode="&#xd3;" horiz-adv-x="853" 
d="M818 340q0 -61 -25 -121.5t-72 -112t-124.5 -83.5t-172.5 -32q-86 0 -160 29.5t-123.5 78.5t-77.5 111.5t-28 129.5q0 61 25.5 122t72.5 113t124 84t170 32q88 0 162.5 -30t124 -79t77 -112t27.5 -130zM642 336q0 96 -58.5 153t-157.5 57q-94 0 -154 -55.5t-60 -153.5
q0 -47 14.5 -84t37.5 -59.5t52.5 -38t57 -21t53.5 -5.5q88 0 151.5 55.5t63.5 151.5zM624 918l-208 -189h-101l117 189h192z" />
    <glyph glyph-name="Ocircumflex" unicode="&#xd4;" horiz-adv-x="853" 
d="M818 340q0 -61 -25 -121.5t-72 -112t-124.5 -83.5t-172.5 -32q-86 0 -160 29.5t-123.5 78.5t-77.5 111.5t-28 129.5q0 61 25.5 122t72.5 113t124 84t170 32q88 0 162.5 -30t124 -79t77 -112t27.5 -130zM642 336q0 96 -58.5 153t-157.5 57q-94 0 -154 -55.5t-60 -153.5
q0 -47 14.5 -84t37.5 -59.5t52.5 -38t57 -21t53.5 -5.5q88 0 151.5 55.5t63.5 151.5zM516 899l117 -170h-93l-116 103l-114 -103h-91l115 170h182z" />
    <glyph glyph-name="Otilde" unicode="&#xd5;" horiz-adv-x="853" 
d="M818 340q0 -61 -25 -121.5t-72 -112t-124.5 -83.5t-172.5 -32q-86 0 -160 29.5t-123.5 78.5t-77.5 111.5t-28 129.5q0 61 25.5 122t72.5 113t124 84t170 32q88 0 162.5 -30t124 -79t77 -112t27.5 -130zM642 336q0 96 -58.5 153t-157.5 57q-94 0 -154 -55.5t-60 -153.5
q0 -47 14.5 -84t37.5 -59.5t52.5 -38t57 -21t53.5 -5.5q88 0 151.5 55.5t63.5 151.5zM279 734h-74q0 71 33.5 115.5t97.5 44.5q52 0 118 -34q45 -24 72 -24q39 0 47 58h75q0 -70 -33.5 -115t-94.5 -45q-55 0 -137 42q-35 18 -59 18q-41 0 -45 -60z" />
    <glyph glyph-name="Odieresis" unicode="&#xd6;" horiz-adv-x="853" 
d="M818 340q0 -61 -25 -121.5t-72 -112t-124.5 -83.5t-172.5 -32q-86 0 -160 29.5t-123.5 78.5t-77.5 111.5t-28 129.5q0 61 25.5 122t72.5 113t124 84t170 32q88 0 162.5 -30t124 -79t77 -112t27.5 -130zM642 336q0 96 -58.5 153t-157.5 57q-94 0 -154 -55.5t-60 -153.5
q0 -47 14.5 -84t37.5 -59.5t52.5 -38t57 -21t53.5 -5.5q88 0 151.5 55.5t63.5 151.5zM569 894q33 0 56.5 -23.5t23.5 -56.5t-23.5 -56.5t-56.5 -23.5t-56.5 23.5t-23.5 56.5t23.5 56.5t56.5 23.5zM284 894q33 0 56.5 -23.5t23.5 -56.5t-23.5 -56.5t-56.5 -23.5t-56.5 23.5
t-23.5 56.5t23.5 56.5t56.5 23.5z" />
    <glyph glyph-name="multiply" unicode="&#xd7;" horiz-adv-x="583" 
d="M54 193l148 148l-148 148l90 90l147 -148l149 148l89 -90l-148 -148l148 -148l-89 -90l-149 148l-147 -148z" />
    <glyph glyph-name="Oslash" unicode="&#xd8;" horiz-adv-x="853" 
d="M830 626l-83 -74q77 -100 77 -211q0 -142 -109 -246t-279 -104q-57 0 -108 12.5t-75.5 24.5t-58.5 32l-110 -97l-61 76l99 88q-79 98 -79 213q0 62 25.5 123.5t73 112.5t124 83t169.5 32q61 0 117.5 -16t82.5 -30.5t39 -26.5l87 77zM625 444l-314 -280q53 -33 124 -33
q92 0 153 57t61 151q0 47 -24 105zM244 235l314 281q-57 32 -129 32q-89 0 -149.5 -54.5t-60.5 -153.5q0 -61 25 -105z" />
    <glyph glyph-name="Ugrave" unicode="&#xd9;" horiz-adv-x="823" 
d="M754 682v-371q0 -138 -59 -210q-92 -110 -287 -110q-193 0 -287 121q-52 69 -52 194v376h172v-338q0 -68 12 -106q16 -54 60 -82t98 -28q66 0 105 31.5t54 68.5q12 30 12 116v338h172zM214 918h192l117 -189h-101z" />
    <glyph glyph-name="Uacute" unicode="&#xda;" horiz-adv-x="823" 
d="M754 682v-371q0 -138 -59 -210q-92 -110 -287 -110q-193 0 -287 121q-52 69 -52 194v376h172v-338q0 -68 12 -106q16 -54 60 -82t98 -28q66 0 105 31.5t54 68.5q12 30 12 116v338h172zM609 918l-208 -189h-101l117 189h192z" />
    <glyph glyph-name="Ucircumflex" unicode="&#xdb;" horiz-adv-x="823" 
d="M754 682v-371q0 -138 -59 -210q-92 -110 -287 -110q-193 0 -287 121q-52 69 -52 194v376h172v-338q0 -68 12 -106q16 -54 60 -82t98 -28q66 0 105 31.5t54 68.5q12 30 12 116v338h172zM501 899l117 -170h-93l-116 103l-114 -103h-91l115 170h182z" />
    <glyph glyph-name="Udieresis" unicode="&#xdc;" horiz-adv-x="823" 
d="M754 682v-371q0 -138 -59 -210q-92 -110 -287 -110q-193 0 -287 121q-52 69 -52 194v376h172v-338q0 -68 12 -106q16 -54 60 -82t98 -28q66 0 105 31.5t54 68.5q12 30 12 116v338h172zM554 894q33 0 56.5 -23.5t23.5 -56.5t-23.5 -56.5t-56.5 -23.5t-56.5 23.5
t-23.5 56.5t23.5 56.5t56.5 23.5zM269 894q33 0 56.5 -23.5t23.5 -56.5t-23.5 -56.5t-56.5 -23.5t-56.5 23.5t-23.5 56.5t23.5 56.5t56.5 23.5z" />
    <glyph glyph-name="Yacute" unicode="&#xdd;" horiz-adv-x="708" 
d="M709 682l-269 -363v-319h-171v319l-269 363h205l150 -214l150 214h204zM582 918l-208 -189h-101l117 189h192z" />
    <glyph glyph-name="Thorn" unicode="&#xde;" horiz-adv-x="656" 
d="M77 682h172v-137h107q97 0 149 -28q46 -24 75 -70.5t29 -103.5q0 -53 -26 -99.5t-72 -74.5q-24 -15 -54 -22.5t-50 -8.5t-57 -1h-101v-137h-172v682zM309 419h-60v-157h56q23 0 35.5 0.5t33 4.5t31 12t19.5 24t9 39q0 22 -9 37.5t-20 23t-31 11.5t-31.5 4.5t-32.5 0.5z
" />
    <glyph glyph-name="germandbls" unicode="&#xdf;" horiz-adv-x="604" 
d="M65 0v453q0 116 47 170q60 68 174 68q105 0 171 -45q67 -47 67 -127q0 -47 -25.5 -82.5t-62.5 -50.5q36 -12 60 -35q56 -55 56 -151q0 -100 -59 -154.5t-143 -54.5q-35 0 -68 9v95q18 -3 24 -3q47 0 74.5 32t27.5 97q0 95 -67 120q-24 10 -53 8v72q94 0 94 89
q0 49 -25 69.5t-58 20.5q-30 0 -49.5 -12.5t-27.5 -36.5t-10 -42.5t-2 -47.5v-461h-145z" />
    <glyph glyph-name="agrave" unicode="&#xe0;" horiz-adv-x="531" 
d="M532 114v-81q-68 -42 -136 -42q-31 0 -50 10t-23.5 18.5t-8.5 22.5q-79 -51 -152 -51q-54 0 -91.5 33.5t-37.5 87.5q0 92 128 137q85 30 146 47q0 14 -1.5 23t-7.5 24t-24 23t-46 8q-41 0 -81 -17.5t-59.5 -32.5t-30.5 -28v118q89 56 201 56q139 0 181 -75q14 -24 14 -84
v-182q0 -37 23 -37q15 0 56 22zM307 112v111q-2 -1 -19.5 -7.5t-33 -13l-20.5 -8.5q-54 -25 -54 -67q0 -22 14.5 -35.5t31.5 -13.5q44 0 81 34zM93 664h165l74 -146h-74z" />
    <glyph glyph-name="aacute" unicode="&#xe1;" horiz-adv-x="531" 
d="M532 114v-81q-68 -42 -136 -42q-31 0 -50 10t-23.5 18.5t-8.5 22.5q-79 -51 -152 -51q-54 0 -91.5 33.5t-37.5 87.5q0 92 128 137q85 30 146 47q0 14 -1.5 23t-7.5 24t-24 23t-46 8q-41 0 -81 -17.5t-59.5 -32.5t-30.5 -28v118q89 56 201 56q139 0 181 -75q14 -24 14 -84
v-182q0 -37 23 -37q15 0 56 22zM307 112v111q-2 -1 -19.5 -7.5t-33 -13l-20.5 -8.5q-54 -25 -54 -67q0 -22 14.5 -35.5t31.5 -13.5q44 0 81 34zM398 664l-164 -146h-75l75 146h164z" />
    <glyph glyph-name="acircumflex" unicode="&#xe2;" horiz-adv-x="531" 
d="M532 114v-81q-68 -42 -136 -42q-31 0 -50 10t-23.5 18.5t-8.5 22.5q-79 -51 -152 -51q-54 0 -91.5 33.5t-37.5 87.5q0 92 128 137q85 30 146 47q0 14 -1.5 23t-7.5 24t-24 23t-46 8q-41 0 -81 -17.5t-59.5 -32.5t-30.5 -28v118q89 56 201 56q139 0 181 -75q14 -24 14 -84
v-182q0 -37 23 -37q15 0 56 22zM307 112v111q-2 -1 -19.5 -7.5t-33 -13l-20.5 -8.5q-54 -25 -54 -67q0 -22 14.5 -35.5t31.5 -13.5q44 0 81 34zM314 693l99 -175h-89l-78 87l-80 -87h-88l99 175h137z" />
    <glyph glyph-name="atilde" unicode="&#xe3;" horiz-adv-x="531" 
d="M532 114v-81q-68 -42 -136 -42q-31 0 -50 10t-23.5 18.5t-8.5 22.5q-79 -51 -152 -51q-54 0 -91.5 33.5t-37.5 87.5q0 92 128 137q85 30 146 47q0 14 -1.5 23t-7.5 24t-24 23t-46 8q-41 0 -81 -17.5t-59.5 -32.5t-30.5 -28v118q89 56 201 56q139 0 181 -75q14 -24 14 -84
v-182q0 -37 23 -37q15 0 56 22zM307 112v111q-2 -1 -19.5 -7.5t-33 -13l-20.5 -8.5q-54 -25 -54 -67q0 -22 14.5 -35.5t31.5 -13.5q44 0 81 34zM117 520h-66q2 23 7.5 44.5t17.5 47.5t36 41.5t58 15.5q31 0 91 -30q48 -24 67 -24q35 0 44 54h68q-4 -66 -32.5 -108.5
t-84.5 -42.5q-31 0 -87 28t-74 28q-39 0 -45 -54z" />
    <glyph glyph-name="adieresis" unicode="&#xe4;" horiz-adv-x="531" 
d="M532 114v-81q-68 -42 -136 -42q-31 0 -50 10t-23.5 18.5t-8.5 22.5q-79 -51 -152 -51q-54 0 -91.5 33.5t-37.5 87.5q0 92 128 137q85 30 146 47q0 14 -1.5 23t-7.5 24t-24 23t-46 8q-41 0 -81 -17.5t-59.5 -32.5t-30.5 -28v118q89 56 201 56q139 0 181 -75q14 -24 14 -84
v-182q0 -37 23 -37q15 0 56 22zM307 112v111q-2 -1 -19.5 -7.5t-33 -13l-20.5 -8.5q-54 -25 -54 -67q0 -22 14.5 -35.5t31.5 -13.5q44 0 81 34zM347 657q27 0 46 -18.5t19 -46.5q0 -26 -19 -45.5t-46 -19.5t-46 19.5t-19 45.5q0 27 19 46t46 19zM144 657q27 0 46 -19t19 -46
t-19 -46t-46 -19t-46 19.5t-19 45.5q0 27 19 46t46 19z" />
    <glyph glyph-name="aring" unicode="&#xe5;" horiz-adv-x="531" 
d="M532 114v-81q-68 -42 -136 -42q-31 0 -50 10t-23.5 18.5t-8.5 22.5q-79 -51 -152 -51q-54 0 -91.5 33.5t-37.5 87.5q0 92 128 137q85 30 146 47q0 14 -1.5 23t-7.5 24t-24 23t-46 8q-41 0 -81 -17.5t-59.5 -32.5t-30.5 -28v118q89 56 201 56q139 0 181 -75q14 -24 14 -84
v-182q0 -37 23 -37q15 0 56 22zM307 112v111q-2 -1 -19.5 -7.5t-33 -13l-20.5 -8.5q-54 -25 -54 -67q0 -22 14.5 -35.5t31.5 -13.5q44 0 81 34zM246 699q41 0 71 -29.5t30 -71.5t-29.5 -72t-71.5 -30q-43 0 -72.5 29.5t-29.5 72.5q0 42 30 71.5t72 29.5zM245 652
q-23 0 -38.5 -16t-15.5 -38q0 -23 16 -39t38 -16q23 0 39 16t16 39t-16 38.5t-39 15.5z" />
    <glyph glyph-name="ae" unicode="&#xe6;" horiz-adv-x="797" 
d="M741 149v-95q-86 -63 -200 -63q-118 0 -187 63q-27 -18 -45.5 -28.5t-58 -22.5t-81.5 -12q-39 0 -67 13t-41.5 33t-19 37.5t-5.5 33.5q0 37 22.5 69t55.5 50q71 38 200 69q0 24 -2 31q-8 26 -33 37t-47 11q-51 0 -100 -26.5t-76 -52.5v115q104 59 194 59q48 0 79.5 -12.5
t66.5 -38.5q60 51 137 51q44 0 81 -15.5t60 -39.5t34.5 -41.5t18.5 -32.5q21 -51 21 -133h-289q-3 -65 30.5 -96.5t85.5 -31.5q79 0 166 69zM459 285h150q-8 96 -77 96q-70 0 -73 -96zM314 110v113q-131 -38 -131 -99q0 -19 12.5 -33.5t32.5 -14.5q40 0 86 34z" />
    <glyph glyph-name="ccedilla" unicode="&#xe7;" horiz-adv-x="496" 
d="M459 128v-105q-58 -28 -141 -32l-8 -20q77 -24 77 -81q0 -27 -14.5 -46t-39 -27.5t-44.5 -11.5t-42 -3q-23 0 -77 9v58q95 -6 95 32q0 27 -50 31l27 59q-59 12 -101.5 38.5t-64 60.5t-30.5 67t-9 67q0 116 77 181t184 65q72 0 155 -29v-108q-34 15 -56 21q-29 9 -64 9
q-43 0 -73 -14t-43.5 -36t-19 -42t-5.5 -40q0 -34 14.5 -65.5t38.5 -47.5q31 -21 85 -21q56 0 129 31z" />
    <glyph glyph-name="egrave" unicode="&#xe8;" horiz-adv-x="564" 
d="M510 145v-93q-86 -61 -210 -61q-73 0 -126.5 23t-82 60t-41.5 76t-13 80q0 107 71.5 173.5t172.5 66.5q31 0 62 -7.5t63.5 -26.5t57 -47.5t40 -75.5t14.5 -106h-331q4 -62 44 -94t109 -32q39 0 72.5 10.5t50.5 21t47 32.5zM190 283h200q-4 38 -28.5 68.5t-71.5 30.5
q-48 0 -72.5 -31t-27.5 -68zM139 664h165l74 -146h-74z" />
    <glyph glyph-name="eacute" unicode="&#xe9;" horiz-adv-x="564" 
d="M510 145v-93q-86 -61 -210 -61q-73 0 -126.5 23t-82 60t-41.5 76t-13 80q0 107 71.5 173.5t172.5 66.5q31 0 62 -7.5t63.5 -26.5t57 -47.5t40 -75.5t14.5 -106h-331q4 -62 44 -94t109 -32q39 0 72.5 10.5t50.5 21t47 32.5zM190 283h200q-4 38 -28.5 68.5t-71.5 30.5
q-48 0 -72.5 -31t-27.5 -68zM444 664l-164 -146h-75l75 146h164z" />
    <glyph glyph-name="ecircumflex" unicode="&#xea;" horiz-adv-x="564" 
d="M510 145v-93q-86 -61 -210 -61q-73 0 -126.5 23t-82 60t-41.5 76t-13 80q0 107 71.5 173.5t172.5 66.5q31 0 62 -7.5t63.5 -26.5t57 -47.5t40 -75.5t14.5 -106h-331q4 -62 44 -94t109 -32q39 0 72.5 10.5t50.5 21t47 32.5zM190 283h200q-4 38 -28.5 68.5t-71.5 30.5
q-48 0 -72.5 -31t-27.5 -68zM355 693l99 -175h-89l-78 87l-80 -87h-88l99 175h137z" />
    <glyph glyph-name="edieresis" unicode="&#xeb;" horiz-adv-x="564" 
d="M510 145v-93q-86 -61 -210 -61q-73 0 -126.5 23t-82 60t-41.5 76t-13 80q0 107 71.5 173.5t172.5 66.5q31 0 62 -7.5t63.5 -26.5t57 -47.5t40 -75.5t14.5 -106h-331q4 -62 44 -94t109 -32q39 0 72.5 10.5t50.5 21t47 32.5zM190 283h200q-4 38 -28.5 68.5t-71.5 30.5
q-48 0 -72.5 -31t-27.5 -68zM388 657q27 0 46 -18.5t19 -46.5q0 -26 -19 -45.5t-46 -19.5t-46 19.5t-19 45.5q0 27 19 46t46 19zM185 657q27 0 46 -19t19 -46t-19 -46t-46 -19t-46 19.5t-19 45.5q0 27 19 46t46 19z" />
    <glyph glyph-name="igrave" unicode="&#xec;" horiz-adv-x="274" 
d="M206 461v-461h-144v461h144zM-20 664h165l74 -146h-74z" />
    <glyph glyph-name="iacute" unicode="&#xed;" horiz-adv-x="274" 
d="M206 461v-461h-144v461h144zM285 664l-164 -146h-75l75 146h164z" />
    <glyph glyph-name="icircumflex" unicode="&#xee;" horiz-adv-x="274" 
d="M206 461v-461h-144v461h144zM201 693l99 -175h-89l-78 87l-80 -87h-88l99 175h137z" />
    <glyph glyph-name="idieresis" unicode="&#xef;" horiz-adv-x="274" 
d="M206 461v-461h-144v461h144zM234 657q27 0 46 -18.5t19 -46.5q0 -26 -19 -45.5t-46 -19.5t-46 19.5t-19 45.5q0 27 19 46t46 19zM31 657q27 0 46 -19t19 -46t-19 -46t-46 -19t-46 19.5t-19 45.5q0 27 19 46t46 19z" />
    <glyph glyph-name="eth" unicode="&#xf0;" horiz-adv-x="615" 
d="M329 639l143 51l23 -61l-100 -35l40 -36t44 -49.5t46 -69t31 -86t14 -109.5q0 -61 -19 -107.5t-47 -73.5t-65.5 -44t-69.5 -22.5t-64 -5.5q-112 0 -186.5 65t-74.5 172q0 108 70.5 175t162.5 67q49 0 95 -25q-37 65 -84 111l-168 -61l-22 61l130 47q-45 30 -80 43l66 44
q60 -16 115 -51zM412 237q0 143 -109 143q-103 0 -103 -155q0 -64 24 -100q27 -42 81 -42q30 0 52 14t32 31.5t16 43t6.5 38t0.5 27.5z" />
    <glyph glyph-name="ntilde" unicode="&#xf1;" horiz-adv-x="588" 
d="M207 461v-66q65 75 150 75q58 0 95.5 -26.5t55.5 -63.5q18 -36 18 -108v-272h-146v260q0 49 -7 66q-15 43 -65 43q-58 0 -101 -72v-297h-145v461h145zM165 520h-66q2 23 7.5 44.5t17.5 47.5t36 41.5t58 15.5q31 0 91 -30q48 -24 67 -24q35 0 44 54h68
q-4 -66 -32.5 -108.5t-84.5 -42.5q-31 0 -87 28t-74 28q-39 0 -45 -54z" />
    <glyph glyph-name="ograve" unicode="&#xf2;" horiz-adv-x="594" 
d="M556 229q0 -64 -25 -112.5t-65 -74.5t-82.5 -38.5t-85.5 -12.5q-110 0 -185.5 64t-75.5 173q0 106 75.5 174t186.5 68q43 0 85 -12.5t82 -39t65 -75.5t25 -114zM401 238q0 143 -107 143q-101 0 -101 -156q0 -144 105 -144q103 0 103 157zM155 664h165l74 -146h-74z" />
    <glyph glyph-name="oacute" unicode="&#xf3;" horiz-adv-x="594" 
d="M556 229q0 -64 -25 -112.5t-65 -74.5t-82.5 -38.5t-85.5 -12.5q-110 0 -185.5 64t-75.5 173q0 106 75.5 174t186.5 68q43 0 85 -12.5t82 -39t65 -75.5t25 -114zM401 238q0 143 -107 143q-101 0 -101 -156q0 -144 105 -144q103 0 103 157zM450 664l-164 -146h-75l75 146
h164z" />
    <glyph glyph-name="ocircumflex" unicode="&#xf4;" horiz-adv-x="594" 
d="M556 229q0 -64 -25 -112.5t-65 -74.5t-82.5 -38.5t-85.5 -12.5q-110 0 -185.5 64t-75.5 173q0 106 75.5 174t186.5 68q43 0 85 -12.5t82 -39t65 -75.5t25 -114zM401 238q0 143 -107 143q-101 0 -101 -156q0 -144 105 -144q103 0 103 157zM376 693l99 -175h-89l-78 87
l-80 -87h-88l99 175h137z" />
    <glyph glyph-name="otilde" unicode="&#xf5;" horiz-adv-x="594" 
d="M556 229q0 -64 -25 -112.5t-65 -74.5t-82.5 -38.5t-85.5 -12.5q-110 0 -185.5 64t-75.5 173q0 106 75.5 174t186.5 68q43 0 85 -12.5t82 -39t65 -75.5t25 -114zM401 238q0 143 -107 143q-101 0 -101 -156q0 -144 105 -144q103 0 103 157zM179 520h-66q2 23 7.5 44.5
t17.5 47.5t36 41.5t58 15.5q31 0 91 -30q48 -24 67 -24q35 0 44 54h68q-4 -66 -32.5 -108.5t-84.5 -42.5q-31 0 -87 28t-74 28q-39 0 -45 -54z" />
    <glyph glyph-name="odieresis" unicode="&#xf6;" horiz-adv-x="594" 
d="M556 229q0 -64 -25 -112.5t-65 -74.5t-82.5 -38.5t-85.5 -12.5q-110 0 -185.5 64t-75.5 173q0 106 75.5 174t186.5 68q43 0 85 -12.5t82 -39t65 -75.5t25 -114zM401 238q0 143 -107 143q-101 0 -101 -156q0 -144 105 -144q103 0 103 157zM409 657q27 0 46 -18.5t19 -46.5
q0 -26 -19 -45.5t-46 -19.5t-46 19.5t-19 45.5q0 27 19 46t46 19zM206 657q27 0 46 -19t19 -46t-19 -46t-46 -19t-46 19.5t-19 45.5q0 27 19 46t46 19z" />
    <glyph glyph-name="divide" unicode="&#xf7;" horiz-adv-x="583" 
d="M41 277v128h501v-128h-501zM292 611q30 0 51 -21.5t21 -51.5t-21 -51.5t-51 -21.5t-51.5 21t-21.5 52t21.5 52t51.5 21zM292 217q30 0 51 -21.5t21 -51.5t-21 -51.5t-51 -21.5t-51.5 21t-21.5 52t21.5 52t51.5 21z" />
    <glyph glyph-name="oslash" unicode="&#xf8;" horiz-adv-x="594" 
d="M552 471l-62 -71q22 -25 32.5 -39.5t23 -50t12.5 -78.5q0 -53 -17.5 -96t-44.5 -69t-62 -44t-68 -25t-65 -7q-61 0 -137 29l-65 -74l-51 45l60 69q-72 68 -72 172q0 95 70.5 166.5t195.5 71.5q62 0 132 -29l65 81zM397 290l-161 -188q28 -20 61 -20q103 0 103 153
q0 37 -3 55zM199 167l164 191q-33 22 -70 22q-28 0 -55.5 -18t-38.5 -67q-7 -25 -7 -67q0 -26 7 -61z" />
    <glyph glyph-name="ugrave" unicode="&#xf9;" horiz-adv-x="583" 
d="M521 461v-461h-146v66q-53 -75 -146 -75q-63 0 -102.5 31t-55.5 71q-10 28 -10 80v288h146v-246q0 -23 0.5 -35t4 -31.5t10.5 -30t21 -18.5t34 -8q56 0 98 65v304h146zM139 664h165l74 -146h-74z" />
    <glyph glyph-name="uacute" unicode="&#xfa;" horiz-adv-x="583" 
d="M521 461v-461h-146v66q-53 -75 -146 -75q-63 0 -102.5 31t-55.5 71q-10 28 -10 80v288h146v-246q0 -23 0.5 -35t4 -31.5t10.5 -30t21 -18.5t34 -8q56 0 98 65v304h146zM444 664l-164 -146h-75l75 146h164z" />
    <glyph glyph-name="ucircumflex" unicode="&#xfb;" horiz-adv-x="583" 
d="M521 461v-461h-146v66q-53 -75 -146 -75q-63 0 -102.5 31t-55.5 71q-10 28 -10 80v288h146v-246q0 -23 0.5 -35t4 -31.5t10.5 -30t21 -18.5t34 -8q56 0 98 65v304h146zM360 693l99 -175h-89l-78 87l-80 -87h-88l99 175h137z" />
    <glyph glyph-name="udieresis" unicode="&#xfc;" horiz-adv-x="583" 
d="M521 461v-461h-146v66q-53 -75 -146 -75q-63 0 -102.5 31t-55.5 71q-10 28 -10 80v288h146v-246q0 -23 0.5 -35t4 -31.5t10.5 -30t21 -18.5t34 -8q56 0 98 65v304h146zM393 657q27 0 46 -18.5t19 -46.5q0 -26 -19 -45.5t-46 -19.5t-46 19.5t-19 45.5q0 27 19 46t46 19z
M190 657q27 0 46 -19t19 -46t-19 -46t-46 -19t-46 19.5t-19 45.5q0 27 19 46t46 19z" />
    <glyph glyph-name="yacute" unicode="&#xfd;" horiz-adv-x="510" 
d="M509 461l-309 -682h-154l135 296l-180 386h155l97 -228l104 228h152zM408 664l-164 -146h-75l75 146h164z" />
    <glyph glyph-name="thorn" unicode="&#xfe;" horiz-adv-x="583" 
d="M203 682v-261q58 49 132 49q84 0 148.5 -64.5t64.5 -169.5q0 -115 -64 -180t-162 -65q-67 0 -119 32v-244h-146v903h146zM203 330v-212q40 -30 83 -30t78 32.5t35 107.5q0 65 -26 100q-27 39 -81 39q-23 0 -49 -11t-40 -26z" />
    <glyph glyph-name="ydieresis" unicode="&#xff;" horiz-adv-x="510" 
d="M509 461l-309 -682h-154l135 296l-180 386h155l97 -228l104 228h152zM367 657q27 0 46 -18.5t19 -46.5q0 -26 -19 -45.5t-46 -19.5t-46 19.5t-19 45.5q0 27 19 46t46 19zM164 657q27 0 46 -19t19 -46t-19 -46t-46 -19t-46 19.5t-19 45.5q0 27 19 46t46 19z" />
    <glyph glyph-name="Amacron" unicode="&#x100;" horiz-adv-x="781" 
d="M475 682l303 -682h-183l-56 135h-305l-51 -135h-180l275 682h197zM489 254l-110 264l-100 -264h210zM610 854v-117h-440v117h440z" />
    <glyph glyph-name="amacron" unicode="&#x101;" horiz-adv-x="531" 
d="M532 114v-81q-68 -42 -136 -42q-31 0 -50 10t-23.5 18.5t-8.5 22.5q-79 -51 -152 -51q-54 0 -91.5 33.5t-37.5 87.5q0 92 128 137q85 30 146 47q0 14 -1.5 23t-7.5 24t-24 23t-46 8q-41 0 -81 -17.5t-59.5 -32.5t-30.5 -28v118q89 56 201 56q139 0 181 -75q14 -24 14 -84
v-182q0 -37 23 -37q15 0 56 22zM307 112v111q-2 -1 -19.5 -7.5t-33 -13l-20.5 -8.5q-54 -25 -54 -67q0 -22 14.5 -35.5t31.5 -13.5q44 0 81 34zM439 642v-100h-387v100h387z" />
    <glyph glyph-name="Abreve" unicode="&#x102;" horiz-adv-x="781" 
d="M475 682l303 -682h-183l-56 135h-305l-51 -135h-180l275 682h197zM489 254l-110 264l-100 -264h210zM178 912h111q22 -74 100 -74q74 0 103 74h110q-6 -67 -63 -125t-149 -58q-91 0 -149 58.5t-63 124.5z" />
    <glyph glyph-name="abreve" unicode="&#x103;" horiz-adv-x="531" 
d="M532 114v-81q-68 -42 -136 -42q-31 0 -50 10t-23.5 18.5t-8.5 22.5q-79 -51 -152 -51q-54 0 -91.5 33.5t-37.5 87.5q0 92 128 137q85 30 146 47q0 14 -1.5 23t-7.5 24t-24 23t-46 8q-41 0 -81 -17.5t-59.5 -32.5t-30.5 -28v118q89 56 201 56q139 0 181 -75q14 -24 14 -84
v-182q0 -37 23 -37q15 0 56 22zM307 112v111q-2 -1 -19.5 -7.5t-33 -13l-20.5 -8.5q-54 -25 -54 -67q0 -22 14.5 -35.5t31.5 -13.5q44 0 81 34zM63 689h100q7 -31 31 -46.5t51 -15.5q66 0 84 62h99q-5 -56 -53 -113.5t-127 -57.5q-73 0 -119.5 45.5t-65.5 125.5z" />
    <glyph glyph-name="Aogonek" unicode="&#x104;" horiz-adv-x="781" 
d="M772 -103v-89q-40 -17 -85 -17q-53 0 -83.5 34.5t-30.5 91.5q0 45 22 83l-56 135h-305l-51 -135h-180l275 682h197l303 -682h-93q-14 -33 -14 -50q0 -33 21.5 -46t39.5 -13q8 0 40 6zM489 254l-110 264l-100 -264h210z" />
    <glyph glyph-name="aogonek" unicode="&#x105;" horiz-adv-x="531" 
d="M524 -93v-80q-37 -15 -76 -15q-57 0 -80.5 34t-23.5 75q0 39 17 74q-21 6 -31.5 16t-15.5 31q-79 -51 -152 -51q-54 0 -91.5 33.5t-37.5 87.5q0 92 128 137q85 30 146 47q0 14 -1.5 23t-7.5 24t-24 23t-46 8q-41 0 -81 -17.5t-59.5 -32.5t-30.5 -28v118q89 56 201 56
q139 0 181 -75q14 -24 14 -84v-182q0 -37 23 -37q15 0 56 22v-81q-40 -24 -88 -36q-11 -26 -11 -42q0 -27 18.5 -40t38.5 -13q12 0 34 5zM307 112v111q-2 -1 -19.5 -7.5t-33 -13l-20.5 -8.5q-54 -25 -54 -67q0 -22 14.5 -35.5t31.5 -13.5q44 0 81 34z" />
    <glyph glyph-name="Cacute" unicode="&#x106;" horiz-adv-x="759" 
d="M700 216v-157q-128 -68 -268 -68q-96 0 -173.5 29.5t-125 79t-73 111t-25.5 128.5q0 66 26 128t75.5 112.5t130 81t180.5 30.5q145 0 245 -60v-157q-20 15 -47 29.5t-79.5 29.5t-106.5 15q-108 0 -177.5 -57t-69.5 -150q0 -97 70.5 -153t171.5 -56q89 0 181 47zM611 918
l-208 -189h-101l117 189h192z" />
    <glyph glyph-name="cacute" unicode="&#x107;" horiz-adv-x="497" 
d="M460 126v-104q-83 -31 -156 -31q-117 0 -192 62.5t-75 175.5q0 114 78 177.5t183 63.5q76 0 155 -30v-108q-59 31 -118 31q-40 0 -69.5 -13t-44.5 -34t-22 -42.5t-7 -43.5q0 -55 35 -95.5t100 -40.5q43 0 133 32zM430 664l-164 -146h-75l75 146h164z" />
    <glyph glyph-name="Ccircumflex" unicode="&#x108;" horiz-adv-x="759" 
d="M700 216v-157q-128 -68 -268 -68q-96 0 -173.5 29.5t-125 79t-73 111t-25.5 128.5q0 66 26 128t75.5 112.5t130 81t180.5 30.5q145 0 245 -60v-157q-20 15 -47 29.5t-79.5 29.5t-106.5 15q-108 0 -177.5 -57t-69.5 -150q0 -97 70.5 -153t171.5 -56q89 0 181 47zM493 899
l117 -170h-93l-116 103l-114 -103h-91l115 170h182z" />
    <glyph glyph-name="ccircumflex" unicode="&#x109;" horiz-adv-x="500" 
d="M463 126v-104q-83 -31 -156 -31q-117 0 -192 62.5t-75 175.5q0 114 78 177.5t183 63.5q76 0 155 -30v-108q-59 31 -118 31q-40 0 -69.5 -13t-44.5 -34t-22 -42.5t-7 -43.5q0 -55 35 -95.5t100 -40.5q43 0 133 32zM334 693l99 -175h-89l-78 87l-80 -87h-88l99 175h137z
" />
    <glyph glyph-name="Cdotaccent" unicode="&#x10a;" horiz-adv-x="771" 
d="M712 216v-157q-128 -68 -268 -68q-96 0 -173.5 29.5t-125 79t-73 111t-25.5 128.5q0 66 26 128t75.5 112.5t130 81t180.5 30.5q145 0 245 -60v-157q-20 15 -47 29.5t-79.5 29.5t-106.5 15q-108 0 -177.5 -57t-69.5 -150q0 -97 70.5 -153t171.5 -56q89 0 181 47zM425 894
q33 0 56.5 -23.5t23.5 -56.5t-23.5 -56.5t-56.5 -23.5t-56.5 23.5t-23.5 56.5t23.5 56.5t56.5 23.5z" />
    <glyph glyph-name="cdotaccent" unicode="&#x10b;" horiz-adv-x="500" 
d="M463 126v-104q-83 -31 -156 -31q-117 0 -192 62.5t-75 175.5q0 114 78 177.5t183 63.5q76 0 155 -30v-108q-59 31 -118 31q-40 0 -69.5 -13t-44.5 -34t-22 -42.5t-7 -43.5q0 -55 35 -95.5t100 -40.5q43 0 133 32zM266 657q27 0 46 -19t19 -46q0 -26 -19 -45.5t-46 -19.5
t-46 19t-19 46t19 46t46 19z" />
    <glyph glyph-name="Ccaron" unicode="&#x10c;" horiz-adv-x="759" 
d="M700 216v-157q-128 -68 -268 -68q-96 0 -173.5 29.5t-125 79t-73 111t-25.5 128.5q0 66 26 128t75.5 112.5t130 81t180.5 30.5q145 0 245 -60v-157q-20 15 -47 29.5t-79.5 29.5t-106.5 15q-108 0 -177.5 -57t-69.5 -150q0 -97 70.5 -153t171.5 -56q89 0 181 47zM318 729
l-117 170h93l116 -104l114 104h91l-115 -170h-182z" />
    <glyph glyph-name="ccaron" unicode="&#x10d;" horiz-adv-x="497" 
d="M460 126v-104q-83 -31 -156 -31q-117 0 -192 62.5t-75 175.5q0 114 78 177.5t183 63.5q76 0 155 -30v-108q-59 31 -118 31q-40 0 -69.5 -13t-44.5 -34t-22 -42.5t-7 -43.5q0 -55 35 -95.5t100 -40.5q43 0 133 32zM204 518l-99 175h89l78 -93l80 93h88l-99 -175h-137z" />
    <glyph glyph-name="Dcaron" unicode="&#x10e;" horiz-adv-x="802" 
d="M75 682h278q107 0 185 -27q21 -7 44 -19t55.5 -38.5t57.5 -59.5t43 -84.5t18 -111.5q0 -32 -5.5 -64t-21 -75t-51.5 -83.5t-88 -68.5q-95 -51 -250 -51h-265v682zM333 552h-86v-422h69q103 0 150 20q53 23 83.5 72.5t30.5 120.5q0 144 -115 191q-44 18 -132 18zM281 729
l-117 170h93l116 -104l114 104h91l-115 -170h-182z" />
    <glyph glyph-name="dcaron" unicode="&#x10f;" horiz-adv-x="698" 
d="M524 682v-682h-144v37q-59 -46 -128 -46q-83 0 -148.5 63t-65.5 177q0 111 64 175t158 64q63 0 120 -29v241h144zM380 126v220q-34 27 -80 27q-47 0 -79 -32q-35 -37 -35 -112q0 -44 13 -74t34 -42t35 -16t27 -4q41 0 85 33zM566 408v28q46 53 40 114q-45 21 -45 70
q0 31 23 51t52 20q33 0 60.5 -26.5t27.5 -77.5q0 -63 -44 -117t-114 -62z" />
    <glyph glyph-name="Dcroat" unicode="&#x110;" horiz-adv-x="802" 
d="M75 296h-83v91h83v295h278q107 0 185 -27q21 -7 44 -19t55.5 -38.5t57.5 -59.5t43 -84.5t18 -111.5q0 -32 -5.5 -64t-21 -75t-51.5 -83.5t-88 -68.5q-95 -51 -250 -51h-265v296zM397 296h-150v-166h69q103 0 150 20q53 23 83.5 72.5t30.5 120.5q0 144 -115 191
q-44 18 -132 18h-86v-165h150v-91z" />
    <glyph glyph-name="dcroat" unicode="&#x111;" horiz-adv-x="583" 
d="M523 608h55v-73h-55v-535h-144v37q-59 -46 -128 -46q-83 0 -149 63t-66 177q0 111 64.5 175t158.5 64q63 0 120 -29v94h-88v73h88v74h144v-74zM379 126v220q-34 27 -81 27q-46 0 -78 -32q-35 -37 -35 -112q0 -44 13 -74t33.5 -42t35 -16t27.5 -4q41 0 85 33z" />
    <glyph glyph-name="Emacron" unicode="&#x112;" horiz-adv-x="635" 
d="M581 125v-125h-503v682h496v-127h-324v-138h309v-128h-309v-164h331zM552 854v-117h-440v117h440z" />
    <glyph glyph-name="emacron" unicode="&#x113;" horiz-adv-x="564" 
d="M510 145v-93q-86 -61 -210 -61q-73 0 -126.5 23t-82 60t-41.5 76t-13 80q0 107 71.5 173.5t172.5 66.5q31 0 62 -7.5t63.5 -26.5t57 -47.5t40 -75.5t14.5 -106h-331q4 -62 44 -94t109 -32q39 0 72.5 10.5t50.5 21t47 32.5zM190 283h200q-4 38 -28.5 68.5t-71.5 30.5
q-48 0 -72.5 -31t-27.5 -68zM485 642v-100h-387v100h387z" />
    <glyph glyph-name="Ebreve" unicode="&#x114;" horiz-adv-x="635" 
d="M581 125v-125h-503v682h496v-127h-324v-138h309v-128h-309v-164h331zM125 912h111q22 -74 100 -74q74 0 103 74h110q-6 -67 -63 -125t-149 -58q-91 0 -149 58.5t-63 124.5z" />
    <glyph glyph-name="ebreve" unicode="&#x115;" horiz-adv-x="564" 
d="M510 145v-93q-86 -61 -210 -61q-73 0 -126.5 23t-82 60t-41.5 76t-13 80q0 107 71.5 173.5t172.5 66.5q31 0 62 -7.5t63.5 -26.5t57 -47.5t40 -75.5t14.5 -106h-331q4 -62 44 -94t109 -32q39 0 72.5 10.5t50.5 21t47 32.5zM190 283h200q-4 38 -28.5 68.5t-71.5 30.5
q-48 0 -72.5 -31t-27.5 -68zM94 689h100q7 -31 31 -46.5t51 -15.5q66 0 84 62h99q-5 -56 -53 -113.5t-127 -57.5q-73 0 -119.5 45.5t-65.5 125.5z" />
    <glyph glyph-name="Edotaccent" unicode="&#x116;" horiz-adv-x="635" 
d="M581 125v-125h-503v682h496v-127h-324v-138h309v-128h-309v-164h331zM332 894q33 0 56.5 -23.5t23.5 -56.5t-23.5 -56.5t-56.5 -23.5t-56.5 23.5t-23.5 56.5t23.5 56.5t56.5 23.5z" />
    <glyph glyph-name="edotaccent" unicode="&#x117;" horiz-adv-x="564" 
d="M510 145v-93q-86 -61 -210 -61q-73 0 -126.5 23t-82 60t-41.5 76t-13 80q0 107 71.5 173.5t172.5 66.5q31 0 62 -7.5t63.5 -26.5t57 -47.5t40 -75.5t14.5 -106h-331q4 -62 44 -94t109 -32q39 0 72.5 10.5t50.5 21t47 32.5zM190 283h200q-4 38 -28.5 68.5t-71.5 30.5
q-48 0 -72.5 -31t-27.5 -68zM287 657q27 0 46 -19t19 -46q0 -26 -19 -45.5t-46 -19.5t-46 19t-19 46t19 46t46 19z" />
    <glyph glyph-name="Eogonek" unicode="&#x118;" horiz-adv-x="635" 
d="M581 -103v-89q-40 -17 -85 -17q-53 0 -84 33.5t-31 89.5q0 45 23 86h-326v682h496v-127h-324v-138h309v-128h-309v-164h331v-125h-87q-14 -33 -14 -49q0 -30 18.5 -45t45.5 -15q17 0 37 6z" />
    <glyph glyph-name="eogonek" unicode="&#x119;" horiz-adv-x="564" 
d="M506 -93v-80q-37 -15 -78 -15q-50 0 -76 32.5t-26 78.5q0 38 16 70q-20 -2 -37 -2q-111 0 -176 48q-92 70 -92 191q0 107 71.5 173.5t172.5 66.5q31 0 62 -7.5t63.5 -26.5t57 -47.5t40 -75.5t14.5 -106h-331q4 -62 44 -94t109 -32q39 0 72.5 10.5t50.5 21t47 32.5v-93
q-34 -23 -78 -40q-17 -40 -17 -59q0 -24 17.5 -37.5t38.5 -13.5q15 0 35 5zM190 283h200q-4 38 -28.5 68.5t-71.5 30.5q-48 0 -72.5 -31t-27.5 -68z" />
    <glyph glyph-name="Ecaron" unicode="&#x11a;" horiz-adv-x="635" 
d="M581 125v-125h-503v682h496v-127h-324v-138h309v-128h-309v-164h331zM242 729l-117 170h93l116 -104l114 104h91l-115 -170h-182z" />
    <glyph glyph-name="ecaron" unicode="&#x11b;" horiz-adv-x="564" 
d="M510 145v-93q-86 -61 -210 -61q-73 0 -126.5 23t-82 60t-41.5 76t-13 80q0 107 71.5 173.5t172.5 66.5q31 0 62 -7.5t63.5 -26.5t57 -47.5t40 -75.5t14.5 -106h-331q4 -62 44 -94t109 -32q39 0 72.5 10.5t50.5 21t47 32.5zM190 283h200q-4 38 -28.5 68.5t-71.5 30.5
q-48 0 -72.5 -31t-27.5 -68zM223 518l-99 175h89l78 -93l80 93h88l-99 -175h-137z" />
    <glyph glyph-name="Gcircumflex" unicode="&#x11c;" horiz-adv-x="804" 
d="M715 635v-148q-134 62 -254 62q-94 0 -156 -39q-40 -25 -66.5 -70t-26.5 -105q0 -93 66 -147.5t159 -54.5q60 0 122 24v80h-98v127h271v-281q-52 -44 -130 -68t-162 -24q-111 0 -202 41t-147 121.5t-56 187.5q0 158 115 254t297 96q133 0 268 -56zM503 899l117 -170h-93
l-116 103l-114 -103h-91l115 170h182z" />
    <glyph glyph-name="gcircumflex" unicode="&#x11d;" horiz-adv-x="542" 
d="M531 461v-96h-67q23 -37 23 -78q0 -13 -3.5 -28.5t-14 -40t-39 -46t-70.5 -32.5q-32 -8 -84 -11q-25 -2 -35 -12t-10 -19q0 -17 22.5 -23t81.5 -10q22 -1 43.5 -5t47 -14t44 -25t31.5 -40.5t13 -57.5q0 -30 -10.5 -54.5t-28 -39.5t-30 -23t-25.5 -13q-54 -23 -143 -23
q-96 0 -148 18q-101 37 -101 116q0 84 124 116q-57 18 -57 61q0 17 8 30t24 20.5t26.5 11t26.5 7.5q-50 9 -89.5 47t-39.5 97q0 97 90 142q49 25 134 25h256zM354 294q0 31 -23.5 56t-61.5 25q-39 0 -60.5 -27t-21.5 -57q0 -34 24.5 -58t58.5 -24q37 0 60.5 26.5t23.5 58.5z
M385 -86q0 51 -110 51q-113 0 -113 -56q0 -5 1.5 -11t8.5 -14t18 -13.5t32.5 -10t50.5 -4.5q56 0 85 17q27 16 27 41zM340 693l99 -175h-89l-78 87l-80 -87h-88l99 175h137z" />
    <glyph glyph-name="Gbreve" unicode="&#x11e;" horiz-adv-x="804" 
d="M715 635v-148q-134 62 -254 62q-94 0 -156 -39q-40 -25 -66.5 -70t-26.5 -105q0 -93 66 -147.5t159 -54.5q60 0 122 24v80h-98v127h271v-281q-52 -44 -130 -68t-162 -24q-111 0 -202 41t-147 121.5t-56 187.5q0 158 115 254t297 96q133 0 268 -56zM216 912h111
q22 -74 100 -74q74 0 103 74h110q-6 -67 -63 -125t-149 -58q-91 0 -149 58.5t-63 124.5z" />
    <glyph glyph-name="gbreve" unicode="&#x11f;" horiz-adv-x="542" 
d="M531 461v-96h-67q23 -37 23 -78q0 -13 -3.5 -28.5t-14 -40t-39 -46t-70.5 -32.5q-32 -8 -84 -11q-25 -2 -35 -12t-10 -19q0 -17 22.5 -23t81.5 -10q22 -1 43.5 -5t47 -14t44 -25t31.5 -40.5t13 -57.5q0 -30 -10.5 -54.5t-28 -39.5t-30 -23t-25.5 -13q-54 -23 -143 -23
q-96 0 -148 18q-101 37 -101 116q0 84 124 116q-57 18 -57 61q0 17 8 30t24 20.5t26.5 11t26.5 7.5q-50 9 -89.5 47t-39.5 97q0 97 90 142q49 25 134 25h256zM354 294q0 31 -23.5 56t-61.5 25q-39 0 -60.5 -27t-21.5 -57q0 -34 24.5 -58t58.5 -24q37 0 60.5 26.5t23.5 58.5z
M385 -86q0 51 -110 51q-113 0 -113 -56q0 -5 1.5 -11t8.5 -14t18 -13.5t32.5 -10t50.5 -4.5q56 0 85 17q27 16 27 41zM104 689h100q7 -31 31 -46.5t51 -15.5q66 0 84 62h99q-5 -56 -53 -113.5t-127 -57.5q-73 0 -119.5 45.5t-65.5 125.5z" />
    <glyph glyph-name="Gdotaccent" unicode="&#x120;" horiz-adv-x="804" 
d="M715 635v-148q-134 62 -254 62q-94 0 -156 -39q-40 -25 -66.5 -70t-26.5 -105q0 -93 66 -147.5t159 -54.5q60 0 122 24v80h-98v127h271v-281q-52 -44 -130 -68t-162 -24q-111 0 -202 41t-147 121.5t-56 187.5q0 158 115 254t297 96q133 0 268 -56zM423 894
q33 0 56.5 -23.5t23.5 -56.5t-23.5 -56.5t-56.5 -23.5t-56.5 23.5t-23.5 56.5t23.5 56.5t56.5 23.5z" />
    <glyph glyph-name="gdotaccent" unicode="&#x121;" horiz-adv-x="542" 
d="M531 461v-96h-67q23 -37 23 -78q0 -13 -3.5 -28.5t-14 -40t-39 -46t-70.5 -32.5q-32 -8 -84 -11q-25 -2 -35 -12t-10 -19q0 -17 22.5 -23t81.5 -10q22 -1 43.5 -5t47 -14t44 -25t31.5 -40.5t13 -57.5q0 -30 -10.5 -54.5t-28 -39.5t-30 -23t-25.5 -13q-54 -23 -143 -23
q-96 0 -148 18q-101 37 -101 116q0 84 124 116q-57 18 -57 61q0 17 8 30t24 20.5t26.5 11t26.5 7.5q-50 9 -89.5 47t-39.5 97q0 97 90 142q49 25 134 25h256zM354 294q0 31 -23.5 56t-61.5 25q-39 0 -60.5 -27t-21.5 -57q0 -34 24.5 -58t58.5 -24q37 0 60.5 26.5t23.5 58.5z
M385 -86q0 51 -110 51q-113 0 -113 -56q0 -5 1.5 -11t8.5 -14t18 -13.5t32.5 -10t50.5 -4.5q56 0 85 17q27 16 27 41zM272 657q27 0 46 -19t19 -46q0 -26 -19 -45.5t-46 -19.5t-46 19t-19 46t19 46t46 19z" />
    <glyph glyph-name="Gcommaaccent" unicode="&#x122;" horiz-adv-x="804" 
d="M715 635v-148q-134 62 -254 62q-94 0 -156 -39q-40 -25 -66.5 -70t-26.5 -105q0 -93 66 -147.5t159 -54.5q60 0 122 24v80h-98v127h271v-281q-52 -44 -130 -68t-162 -24q-111 0 -202 41t-147 121.5t-56 187.5q0 158 115 254t297 96q133 0 268 -56zM324 -229v56h29
q44 0 59.5 8t15.5 28q0 7 -3.5 12.5t-10 8.5t-13 5t-16.5 2.5t-15 0.5h-15h-11l5 51q105 0 140 -8q80 -18 80 -83q0 -40 -38.5 -66t-106.5 -26q-63 0 -100 11z" />
    <glyph glyph-name="gcommaaccent" unicode="&#x123;" horiz-adv-x="542" 
d="M531 461v-96h-67q23 -37 23 -78q0 -13 -3.5 -28.5t-14 -40t-39 -46t-70.5 -32.5q-32 -8 -84 -11q-25 -2 -35 -12t-10 -19q0 -17 22.5 -23t81.5 -10q22 -1 43.5 -5t47 -14t44 -25t31.5 -40.5t13 -57.5q0 -30 -10.5 -54.5t-28 -39.5t-30 -23t-25.5 -13q-54 -23 -143 -23
q-96 0 -148 18q-101 37 -101 116q0 84 124 116q-57 18 -57 61q0 17 8 30t24 20.5t26.5 11t26.5 7.5q-50 9 -89.5 47t-39.5 97q0 97 90 142q49 25 134 25h256zM354 294q0 31 -23.5 56t-61.5 25q-39 0 -60.5 -27t-21.5 -57q0 -34 24.5 -58t58.5 -24q37 0 60.5 26.5t23.5 58.5z
M385 -86q0 51 -110 51q-113 0 -113 -56q0 -5 1.5 -11t8.5 -14t18 -13.5t32.5 -10t50.5 -4.5q56 0 85 17q27 16 27 41zM370 725v-22q-37 -41 -33 -94q37 -16 37 -55q0 -25 -18.5 -41t-41.5 -16q-28 0 -50.5 21.5t-22.5 62.5q0 53 37.5 96.5t91.5 47.5z" />
    <glyph glyph-name="Hcircumflex" unicode="&#x124;" horiz-adv-x="833" 
d="M757 682v-682h-171v276h-338v-276h-172v682h172v-274h338v274h171zM506 899l117 -170h-93l-116 103l-114 -103h-91l115 170h182z" />
    <glyph glyph-name="hcircumflex" unicode="&#x125;" horiz-adv-x="583" 
d="M210 682v-289q62 77 147 77q88 0 134 -68q32 -47 32 -122v-280h-144v249q0 16 -0.5 26.5t-4.5 29t-11 30t-22 20.5t-36 9q-29 0 -54.5 -20t-40.5 -50v-294h-148v682h148zM360 905l99 -175h-89l-78 87l-80 -87h-88l99 175h137z" />
    <glyph glyph-name="Hbar" unicode="&#x126;" horiz-adv-x="833" 
d="M757 584h76v-91h-76v-493h-171v276h-338v-276h-172v493h-76v91h76v98h172v-98h338v98h171v-98zM586 493h-338v-85h338v85z" />
    <glyph glyph-name="hbar" unicode="&#x127;" horiz-adv-x="583" 
d="M210 589h171v-72h-171v-124q62 77 147 77q88 0 134 -68q32 -47 32 -122v-280h-144v249q0 16 -0.5 26.5t-4.5 29t-11 30t-22 20.5t-36 9q-29 0 -54.5 -20t-40.5 -50v-294h-148v517h-62v72h62v93h148v-93z" />
    <glyph glyph-name="Itilde" unicode="&#x128;" 
d="M253 682v-682h-172v682h172zM19 734h-74q0 71 33.5 115.5t97.5 44.5q52 0 118 -34q45 -24 72 -24q39 0 47 58h75q0 -70 -33.5 -115t-94.5 -45q-55 0 -137 42q-35 18 -59 18q-41 0 -45 -60z" />
    <glyph glyph-name="itilde" unicode="&#x129;" horiz-adv-x="271" 
d="M209 461v-461h-144v461h144zM7 520h-66q2 23 7.5 44.5t17.5 47.5t36 41.5t58 15.5q31 0 91 -30q48 -24 67 -24q35 0 44 54h68q-4 -66 -32.5 -108.5t-84.5 -42.5q-31 0 -87 28t-74 28q-39 0 -45 -54z" />
    <glyph glyph-name="Imacron" unicode="&#x12a;" 
d="M253 682v-682h-172v682h172zM386 854v-117h-440v117h440z" />
    <glyph glyph-name="imacron" unicode="&#x12b;" horiz-adv-x="274" 
d="M206 461v-461h-144v461h144zM326 642v-100h-387v100h387z" />
    <glyph glyph-name="Ibreve" unicode="&#x12c;" 
d="M253 682v-682h-172v682h172zM-47 912h111q22 -74 100 -74q74 0 103 74h110q-6 -67 -63 -125t-149 -58q-91 0 -149 58.5t-63 124.5z" />
    <glyph glyph-name="ibreve" unicode="&#x12d;" horiz-adv-x="271" 
d="M209 461v-461h-144v461h144zM-47 689h100q7 -31 31 -46.5t51 -15.5q66 0 84 62h99q-5 -56 -53 -113.5t-127 -57.5q-73 0 -119.5 45.5t-65.5 125.5z" />
    <glyph glyph-name="Iogonek" unicode="&#x12e;" 
d="M259 -103v-89q-42 -17 -87 -17q-47 0 -80 30t-33 93q0 50 22 86v682h172v-682h-82q-14 -34 -14 -51q0 -23 13 -37t24.5 -17.5t22.5 -3.5q8 0 42 6z" />
    <glyph glyph-name="iogonek" unicode="&#x12f;" horiz-adv-x="269" 
d="M222 -93v-80q-37 -15 -76 -15q-56 0 -80 33.5t-24 75.5q0 45 20 79v461h139v-461h-58q-12 -25 -12 -46t14 -36.5t38 -15.5q11 0 39 5zM135 692q33 0 56 -23t23 -56t-23 -56.5t-56 -23.5t-56.5 23t-23.5 57q0 33 23.5 56t56.5 23z" />
    <glyph glyph-name="Idotaccent" unicode="&#x130;" 
d="M253 682v-682h-172v682h172zM166 894q33 0 56.5 -23.5t23.5 -56.5t-23.5 -56.5t-56.5 -23.5t-56.5 23.5t-23.5 56.5t23.5 56.5t56.5 23.5z" />
    <glyph glyph-name="dotlessi" unicode="&#x131;" horiz-adv-x="271" 
d="M209 461v-461h-144v461h144z" />
    <glyph glyph-name="IJ" unicode="&#x132;" horiz-adv-x="667" 
d="M253 682v-682h-172v682h172zM594 682v-580q0 -36 -1 -58t-7.5 -62t-19 -66.5t-38 -53.5t-62.5 -42q-67 -27 -164 -17v134q10 -3 21 -3q57 0 82 42q17 29 17 141v565h172z" />
    <glyph glyph-name="ij" unicode="&#x133;" horiz-adv-x="542" 
d="M203 461v-461h-139v461h139zM137 692q33 0 56 -23t23 -56t-23 -56.5t-56 -23.5t-56.5 23t-23.5 57q0 33 23.5 56t56.5 23zM481 461v-420q0 -46 -1.5 -71t-12.5 -62.5t-32 -66.5q-22 -30 -57 -49t-70 -21l-46 130q33 5 50.5 28.5t21 48t3.5 63.5v420h144zM407 693
q33 0 56.5 -23.5t23.5 -56.5t-23.5 -56t-56.5 -23t-56 23.5t-23 55.5q0 33 23 56.5t56 23.5z" />
    <glyph glyph-name="Jcircumflex" unicode="&#x134;" 
d="M260 682v-580q0 -30 -0.5 -48t-4 -51t-11.5 -56t-21.5 -49.5t-36.5 -46t-53 -31.5q-67 -27 -165 -17v134q10 -3 22 -3q57 0 81 42q18 28 18 141v565h171zM256 899l117 -170h-93l-116 103l-114 -103h-91l115 170h182z" />
    <glyph glyph-name="jcircumflex" unicode="&#x135;" horiz-adv-x="271" 
d="M210 461v-420q0 -46 -1.5 -71t-12.5 -62.5t-32 -66.5q-22 -30 -56.5 -49.5t-70.5 -20.5l-46 130q33 5 50.5 28.5t21 48t3.5 63.5v420h144zM202 682l98 -175h-89l-77 87l-80 -87h-88l99 175h137z" />
    <glyph glyph-name="Kcommaaccent" unicode="&#x136;" horiz-adv-x="719" 
d="M650 682l-222 -320l302 -362h-213l-271 320v-320h-171v682h171v-309l217 309h187zM270 -229v56h29q44 0 59.5 8t15.5 28q0 7 -3.5 12.5t-10 8.5t-13 5t-16.5 2.5t-15 0.5h-15h-11l5 51q105 0 140 -8q80 -18 80 -83q0 -40 -38.5 -66t-106.5 -26q-63 0 -100 11z" />
    <glyph glyph-name="kcommaaccent" unicode="&#x137;" horiz-adv-x="568" 
d="M209 682v-449l182 228h169l-180 -228l188 -233h-177l-182 227v-227h-146v682h146zM189 -169v50q37 -1 55 1.5t20 6t2 12.5q0 8 -10.5 15t-30.5 7v47q84 0 116 -19t32 -53q0 -33 -28 -55t-78 -22q-38 0 -78 10z" />
    <glyph glyph-name="kgreenlandic" unicode="&#x138;" horiz-adv-x="552" 
d="M209 461v-228l182 228h169l-180 -228l188 -233h-177l-182 227v-227h-146v461h146z" />
    <glyph glyph-name="Lacute" unicode="&#x139;" horiz-adv-x="615" 
d="M596 127v-127h-520v682h172v-555h348zM425 918l-208 -189h-101l117 189h192z" />
    <glyph glyph-name="lacute" unicode="&#x13a;" horiz-adv-x="270" 
d="M208 682v-682h-146v682h146zM285 876l-164 -146h-75l75 146h164z" />
    <glyph glyph-name="Lcommaaccent" unicode="&#x13b;" horiz-adv-x="615" 
d="M596 127v-127h-520v682h172v-555h348zM218 -229v56h29q44 0 59.5 8t15.5 28q0 7 -3.5 12.5t-10 8.5t-13 5t-16.5 2.5t-15 0.5h-15h-11l5 51q105 0 140 -8q80 -18 80 -83q0 -40 -38.5 -66t-106.5 -26q-63 0 -100 11z" />
    <glyph glyph-name="lcommaaccent" unicode="&#x13c;" horiz-adv-x="270" 
d="M208 682v-682h-146v682h146zM45 -169v50q37 -1 55 1.5t20 6t2 12.5q0 8 -10.5 15t-30.5 7v47q84 0 116 -19t32 -53q0 -33 -28 -55t-78 -22q-38 0 -78 10z" />
    <glyph glyph-name="Lcaron" unicode="&#x13d;" horiz-adv-x="615" 
d="M596 127v-127h-520v682h172v-555h348zM374 377v30q51 65 44 128q-50 22 -50 77q0 35 25 57t58 22q37 0 68 -29.5t31 -85.5q0 -72 -50 -131.5t-126 -67.5z" />
    <glyph glyph-name="lcaron" unicode="&#x13e;" horiz-adv-x="385" 
d="M211 682v-682h-145v682h145zM254 408v28q46 53 40 114q-45 21 -45 70q0 31 23 51t52 20q33 0 60.5 -26.5t27.5 -77.5q0 -63 -44 -117t-114 -62z" />
    <glyph glyph-name="Ldot" unicode="&#x13f;" horiz-adv-x="615" 
d="M596 127v-127h-520v682h173v-555h347zM416 450q33 0 56.5 -23t23.5 -57q0 -33 -23.5 -57t-56.5 -24t-56.5 23.5t-23.5 57.5t23.5 57t56.5 23z" />
    <glyph glyph-name="ldot" unicode="&#x140;" horiz-adv-x="427" 
d="M207 682v-682h-145v682h145zM340 427q33 0 57 -23.5t24 -56.5t-23.5 -57t-57.5 -24q-33 0 -56.5 24t-23.5 57t23.5 56.5t56.5 23.5z" />
    <glyph glyph-name="Lslash" unicode="&#x141;" horiz-adv-x="615" 
d="M246 682v-204l140 114v-132l-140 -116v-217h350v-127h-521v204l-93 -74v130l93 78v344h171z" />
    <glyph glyph-name="lslash" unicode="&#x142;" horiz-adv-x="271" 
d="M208 447l77 63v-92l-77 -63v-355h-145v235l-77 -64v91l77 64v356h145v-235z" />
    <glyph glyph-name="Nacute" unicode="&#x143;" horiz-adv-x="840" 
d="M764 682v-682h-142l-377 422v-422h-169v682h155l365 -402v402h168zM648 918l-208 -189h-101l117 189h192z" />
    <glyph glyph-name="nacute" unicode="&#x144;" horiz-adv-x="588" 
d="M207 461v-66q65 75 150 75q58 0 95.5 -26.5t55.5 -63.5q18 -36 18 -108v-272h-146v260q0 49 -7 66q-15 43 -65 43q-58 0 -101 -72v-297h-145v461h145zM461 664l-164 -146h-75l75 146h164z" />
    <glyph glyph-name="Ncommaaccent" unicode="&#x145;" horiz-adv-x="840" 
d="M764 682v-682h-142l-377 422v-422h-169v682h155l365 -402v402h168zM331 -229v56h29q44 0 59.5 8t15.5 28q0 7 -3.5 12.5t-10 8.5t-13 5t-16.5 2.5t-15 0.5h-15h-11l5 51q105 0 140 -8q80 -18 80 -83q0 -40 -38.5 -66t-106.5 -26q-63 0 -100 11z" />
    <glyph glyph-name="ncommaaccent" unicode="&#x146;" horiz-adv-x="588" 
d="M207 461v-66q65 75 150 75q58 0 95.5 -26.5t55.5 -63.5q18 -36 18 -108v-272h-146v260q0 49 -7 66q-15 43 -65 43q-58 0 -101 -72v-297h-145v461h145zM206 -169v50q37 -1 55 1.5t20 6t2 12.5q0 8 -10.5 15t-30.5 7v47q84 0 116 -19t32 -53q0 -33 -28 -55t-78 -22
q-38 0 -78 10z" />
    <glyph glyph-name="Ncaron" unicode="&#x147;" horiz-adv-x="840" 
d="M764 682v-682h-142l-377 422v-422h-169v682h155l365 -402v402h168zM330 729l-117 170h93l116 -104l114 104h91l-115 -170h-182z" />
    <glyph glyph-name="ncaron" unicode="&#x148;" horiz-adv-x="588" 
d="M207 461v-66q65 75 150 75q58 0 95.5 -26.5t55.5 -63.5q18 -36 18 -108v-272h-146v260q0 49 -7 66q-15 43 -65 43q-58 0 -101 -72v-297h-145v461h145zM225 518l-99 175h89l78 -93l80 93h88l-99 -175h-137z" />
    <glyph glyph-name="napostrophe" unicode="&#x149;" horiz-adv-x="781" 
d="M48 377v30q51 61 45 128q-51 22 -51 77q0 35 25.5 57t58.5 22q37 0 67.5 -29.5t30.5 -85.5q0 -72 -50 -131.5t-126 -67.5zM405 461v-66q67 75 150 75q106 0 151 -90q18 -36 18 -108v-272h-146v260q0 49 -7 66q-15 43 -65 43q-58 0 -101 -72v-297h-145v461h145z" />
    <glyph glyph-name="Eng" unicode="&#x14a;" horiz-adv-x="834" 
d="M465 -7v134q13 -3 27 -3q38 0 66.5 28t28.5 94v122q0 85 -42 132.5t-125 47.5q-38 0 -68 -10.5t-50 -29t-32 -35t-23 -38.5v-435h-170v681h170v-89q19 19 33.5 31.5t43 30.5t67.5 27.5t85 9.5q139 0 210 -84.5t71 -232.5v-120q0 -262 -238 -262q-32 0 -54 1z" />
    <glyph glyph-name="eng" unicode="&#x14b;" horiz-adv-x="583" 
d="M524 272v-231q0 -116 -29 -171q-23 -43 -61 -69.5t-83 -29.5l-46 130q24 4 39.5 16.5t22.5 34t9 40.5t2 47v221q0 49 -6 66q-17 43 -66 43q-26 0 -50 -17t-34.5 -31t-15.5 -24v-297h-145v461h145v-66q65 75 149 75q106 0 152 -90q17 -34 17 -108z" />
    <glyph glyph-name="Omacron" unicode="&#x14c;" horiz-adv-x="853" 
d="M818 340q0 -61 -25 -121.5t-72 -112t-124.5 -83.5t-172.5 -32q-86 0 -160 29.5t-123.5 78.5t-77.5 111.5t-28 129.5q0 61 25.5 122t72.5 113t124 84t170 32q88 0 162.5 -30t124 -79t77 -112t27.5 -130zM642 336q0 96 -58.5 153t-157.5 57q-94 0 -154 -55.5t-60 -153.5
q0 -47 14.5 -84t37.5 -59.5t52.5 -38t57 -21t53.5 -5.5q88 0 151.5 55.5t63.5 151.5zM656 854v-117h-440v117h440z" />
    <glyph glyph-name="omacron" unicode="&#x14d;" horiz-adv-x="594" 
d="M556 229q0 -64 -25 -112.5t-65 -74.5t-82.5 -38.5t-85.5 -12.5q-110 0 -185.5 64t-75.5 173q0 106 75.5 174t186.5 68q43 0 85 -12.5t82 -39t65 -75.5t25 -114zM401 238q0 143 -107 143q-101 0 -101 -156q0 -144 105 -144q103 0 103 157zM501 642v-100h-387v100h387z" />
    <glyph glyph-name="Obreve" unicode="&#x14e;" horiz-adv-x="875" 
d="M829 340q0 -61 -25 -121.5t-72 -112t-124.5 -83.5t-172.5 -32q-86 0 -160 29.5t-123.5 78.5t-77.5 111.5t-28 129.5q0 61 25.5 122t72.5 113t124 84t170 32q88 0 162.5 -30t124 -79t77 -112t27.5 -130zM653 336q0 96 -58.5 153t-157.5 57q-94 0 -154 -55.5t-60 -153.5
q0 -47 14.5 -84t37.5 -59.5t52.5 -38t57 -21t53.5 -5.5q88 0 151.5 55.5t63.5 151.5zM225 912h111q22 -74 100 -74q74 0 103 74h110q-6 -67 -63 -125t-149 -58q-91 0 -149 58.5t-63 124.5z" />
    <glyph glyph-name="obreve" unicode="&#x14f;" horiz-adv-x="594" 
d="M556 229q0 -64 -25 -112.5t-65 -74.5t-82.5 -38.5t-85.5 -12.5q-110 0 -185.5 64t-75.5 173q0 106 75.5 174t186.5 68q43 0 85 -12.5t82 -39t65 -75.5t25 -114zM401 238q0 143 -107 143q-101 0 -101 -156q0 -144 105 -144q103 0 103 157zM115 689h100q7 -31 31 -46.5
t51 -15.5q66 0 84 62h99q-5 -56 -53 -113.5t-127 -57.5q-73 0 -119.5 45.5t-65.5 125.5z" />
    <glyph glyph-name="Ohungarumlaut" unicode="&#x150;" horiz-adv-x="853" 
d="M818 340q0 -61 -25 -121.5t-72 -112t-124.5 -83.5t-172.5 -32q-86 0 -160 29.5t-123.5 78.5t-77.5 111.5t-28 129.5q0 61 25.5 122t72.5 113t124 84t170 32q88 0 162.5 -30t124 -79t77 -112t27.5 -130zM642 336q0 96 -58.5 153t-157.5 57q-94 0 -154 -55.5t-60 -153.5
q0 -47 14.5 -84t37.5 -59.5t52.5 -38t57 -21t53.5 -5.5q88 0 151.5 55.5t63.5 151.5zM480 918l-148 -189h-89l76 189h161zM685 918l-147 -189h-90l77 189h160z" />
    <glyph glyph-name="ohungarumlaut" unicode="&#x151;" horiz-adv-x="594" 
d="M556 229q0 -64 -25 -112.5t-65 -74.5t-82.5 -38.5t-85.5 -12.5q-110 0 -185.5 64t-75.5 173q0 106 75.5 174t186.5 68q43 0 85 -12.5t82 -39t65 -75.5t25 -114zM401 238q0 143 -107 143q-101 0 -101 -156q0 -144 105 -144q103 0 103 157zM381 663l-130 -145h-72l53 145
h149zM569 663l-130 -145h-72l52 145h150z" />
    <glyph glyph-name="OE" unicode="&#x152;" horiz-adv-x="1094" 
d="M1033 682v-128h-317v-137h303v-128h-303v-161h325v-128h-588q-123 0 -198 31q-92 37 -150 115t-58 198q0 122 61 198.5t150 111.5q51 20 99 24t169 4h507zM545 128v426q-107 0 -131 -4q-83 -12 -136.5 -66t-53.5 -143q0 -52 19.5 -92.5t43.5 -61t59 -34.5t52.5 -17
t37.5 -5q52 -5 109 -3z" />
    <glyph glyph-name="oe" unicode="&#x153;" horiz-adv-x="889" 
d="M837 149v-99q-91 -59 -182 -59q-97 0 -179 59q-80 -59 -179 -59q-104 0 -182.5 66.5t-78.5 175.5q0 102 75.5 169.5t186.5 67.5q92 0 171 -56q60 56 138 56q100 0 167 -65t71 -197h-297q-1 -64 37.5 -96t84.5 -32q85 0 167 69zM549 284h163q-13 99 -85 99
q-35 0 -57 -27.5t-21 -71.5zM403 237q0 57 -20 91q-29 49 -88 49q-105 0 -105 -151q0 -146 107 -146q34 0 56.5 14t32.5 40t13.5 49.5t3.5 53.5z" />
    <glyph glyph-name="Racute" unicode="&#x154;" horiz-adv-x="677" 
d="M76 682h262q41 0 63.5 -1t56 -9t59.5 -24q34 -23 61.5 -64.5t27.5 -96.5q0 -112 -117 -168q55 -27 98 -128l66 -142l23 -49h-187q-7 14 -44 96t-44 96q-17 31 -32 49.5t-32.5 26t-29 9t-34.5 1.5h-25v-278h-172v682zM334 558h-86v-156h71q37 2 48.5 3.5t24.5 8.5
q37 19 37 66q0 78 -95 78zM516 918l-208 -189h-101l117 189h192z" />
    <glyph glyph-name="racute" unicode="&#x155;" horiz-adv-x="448" 
d="M209 461v-132q67 141 149 141q39 0 96 -42l-40 -128q-51 34 -85 34q-37 0 -61 -26t-47 -75q-1 -2 -6 -17t-6 -17v-199h-145v461h145zM407 664l-164 -146h-75l75 146h164z" />
    <glyph glyph-name="Rcommaaccent" unicode="&#x156;" horiz-adv-x="677" 
d="M76 682h262q41 0 63.5 -1t56 -9t59.5 -24q34 -23 61.5 -64.5t27.5 -96.5q0 -112 -117 -168q55 -27 98 -128l66 -142l23 -49h-187q-7 14 -44 96t-44 96q-17 31 -32 49.5t-32.5 26t-29 9t-34.5 1.5h-25v-278h-172v682zM334 558h-86v-156h71q37 2 48.5 3.5t24.5 8.5
q37 19 37 66q0 78 -95 78zM249 -229v56h29q44 0 59.5 8t15.5 28q0 7 -3.5 12.5t-10 8.5t-13 5t-16.5 2.5t-15 0.5h-15h-11l5 51q105 0 140 -8q80 -18 80 -83q0 -40 -38.5 -66t-106.5 -26q-63 0 -100 11z" />
    <glyph glyph-name="rcommaaccent" unicode="&#x157;" horiz-adv-x="448" 
d="M209 461v-132q67 141 149 141q39 0 96 -42l-40 -128q-51 34 -85 34q-37 0 -61 -26t-47 -75q-1 -2 -6 -17t-6 -17v-199h-145v461h145zM87 -169v50q37 -1 55 1.5t20 6t2 12.5q0 8 -10.5 15t-30.5 7v47q84 0 116 -19t32 -53q0 -33 -28 -55t-78 -22q-38 0 -78 10z" />
    <glyph glyph-name="Rcaron" unicode="&#x158;" horiz-adv-x="677" 
d="M76 682h262q41 0 63.5 -1t56 -9t59.5 -24q34 -23 61.5 -64.5t27.5 -96.5q0 -112 -117 -168q55 -27 98 -128l66 -142l23 -49h-187q-7 14 -44 96t-44 96q-17 31 -32 49.5t-32.5 26t-29 9t-34.5 1.5h-25v-278h-172v682zM334 558h-86v-156h71q37 2 48.5 3.5t24.5 8.5
q37 19 37 66q0 78 -95 78zM208 729l-117 170h93l116 -104l114 104h91l-115 -170h-182z" />
    <glyph glyph-name="rcaron" unicode="&#x159;" horiz-adv-x="448" 
d="M209 461v-132q67 141 149 141q39 0 96 -42l-40 -128q-51 34 -85 34q-37 0 -61 -26t-47 -75q-1 -2 -6 -17t-6 -17v-199h-145v461h145zM186 518l-99 175h89l78 -93l80 93h88l-99 -175h-137z" />
    <glyph glyph-name="Sacute" unicode="&#x15a;" horiz-adv-x="604" 
d="M534 638v-140q-135 66 -219 66q-28 0 -49 -5.5t-31 -12t-15.5 -16t-6.5 -14t-1 -8.5q0 -15 10.5 -27.5t37 -25.5t48.5 -21.5l69 -25.5q38 -14 66.5 -29t58.5 -40t46.5 -62t16.5 -84q0 -56 -26.5 -97.5t-69.5 -63t-85.5 -31.5t-85.5 -10q-74 0 -145.5 24.5t-95.5 41.5v147
q40 -25 67 -39.5t75.5 -30t94.5 -15.5q102 0 102 62q0 31 -26 47.5t-103 42.5q-37 13 -61.5 23t-58 29.5t-53.5 41.5t-34.5 56.5t-14.5 75.5q0 83 67.5 138.5t190.5 55.5q108 0 231 -53zM515 918l-208 -189h-101l117 189h192z" />
    <glyph glyph-name="sacute" unicode="&#x15b;" horiz-adv-x="427" 
d="M377 436v-103q-83 45 -143 45q-64 0 -64 -32q0 -13 10.5 -21.5t46.5 -23.5q44 -17 67 -28.5t52 -31t41.5 -45t12.5 -58.5q0 -70 -49.5 -108.5t-138.5 -38.5q-49 0 -96.5 11t-68.5 23v102q83 -43 147 -43q34 0 52 10t18 25q0 18 -15.5 28t-72.5 34q-56 24 -77 36
q-61 37 -61 110q0 61 50 102t138 41q86 0 151 -34zM381 664l-164 -146h-75l75 146h164z" />
    <glyph glyph-name="Scircumflex" unicode="&#x15c;" horiz-adv-x="604" 
d="M534 638v-140q-135 66 -219 66q-28 0 -49 -5.5t-31 -12t-15.5 -16t-6.5 -14t-1 -8.5q0 -15 10.5 -27.5t37 -25.5t48.5 -21.5l69 -25.5q38 -14 66.5 -29t58.5 -40t46.5 -62t16.5 -84q0 -56 -26.5 -97.5t-69.5 -63t-85.5 -31.5t-85.5 -10q-74 0 -145.5 24.5t-95.5 41.5v147
q40 -25 67 -39.5t75.5 -30t94.5 -15.5q102 0 102 62q0 31 -26 47.5t-103 42.5q-37 13 -61.5 23t-58 29.5t-53.5 41.5t-34.5 56.5t-14.5 75.5q0 83 67.5 138.5t190.5 55.5q108 0 231 -53zM392 899l117 -170h-93l-116 103l-114 -103h-91l115 170h182z" />
    <glyph glyph-name="scircumflex" unicode="&#x15d;" horiz-adv-x="427" 
d="M377 436v-103q-83 45 -143 45q-64 0 -64 -32q0 -13 10.5 -21.5t46.5 -23.5q44 -17 67 -28.5t52 -31t41.5 -45t12.5 -58.5q0 -70 -49.5 -108.5t-138.5 -38.5q-49 0 -96.5 11t-68.5 23v102q83 -43 147 -43q34 0 52 10t18 25q0 18 -15.5 28t-72.5 34q-56 24 -77 36
q-61 37 -61 110q0 61 50 102t138 41q86 0 151 -34zM282 693l99 -175h-89l-78 87l-80 -87h-88l99 175h137z" />
    <glyph glyph-name="uni015E" unicode="&#x15e;" horiz-adv-x="604" 
d="M370 -2l-16 -19q42 -6 66 -30t24 -51q0 -45 -46 -75q-36 -22 -110 -22q-69 0 -118 14v56q26 -2 39 -2q74 0 74 35q0 29 -66 29l59 59q-68 4 -131.5 26.5t-87.5 38.5v147q40 -25 67 -39.5t75.5 -30t94.5 -15.5q102 0 102 62q0 31 -26 47.5t-103 42.5q-37 13 -61.5 23
t-58 29.5t-53.5 41.5t-34.5 56.5t-14.5 75.5q0 83 67.5 138.5t190.5 55.5q108 0 231 -53v-140q-135 66 -219 66q-28 0 -49 -5.5t-31 -12t-15.5 -16t-6.5 -14t-1 -8.5q0 -15 10.5 -27.5t37 -25.5t48.5 -21.5l69 -25.5q38 -14 66.5 -29t58.5 -40t46.5 -62t16.5 -84
q0 -51 -22 -90t-57 -60t-62 -30.5t-54 -14.5z" />
    <glyph glyph-name="uni015F" unicode="&#x15f;" horiz-adv-x="427" 
d="M259 -6l-9 -23q77 -26 77 -81q0 -27 -14.5 -46t-39 -27.5t-45 -11.5t-42.5 -3q-25 0 -76 9v58q95 -6 95 32q0 27 -51 31l28 60q-87 7 -135 33v102q83 -43 147 -43q34 0 52 10t18 25q0 18 -15.5 28t-72.5 34q-56 24 -77 36q-61 37 -61 110q0 61 50 102t138 41
q86 0 151 -34v-103q-83 45 -143 45q-64 0 -64 -32q0 -13 10.5 -21.5t46.5 -23.5q44 -17 67 -28.5t52 -31t41.5 -45t12.5 -58.5q0 -59 -36.5 -96.5t-104.5 -47.5z" />
    <glyph glyph-name="Scaron" unicode="&#x160;" horiz-adv-x="604" 
d="M534 638v-140q-135 66 -219 66q-28 0 -49 -5.5t-31 -12t-15.5 -16t-6.5 -14t-1 -8.5q0 -15 10.5 -27.5t37 -25.5t48.5 -21.5l69 -25.5q38 -14 66.5 -29t58.5 -40t46.5 -62t16.5 -84q0 -56 -26.5 -97.5t-69.5 -63t-85.5 -31.5t-85.5 -10q-74 0 -145.5 24.5t-95.5 41.5v147
q40 -25 67 -39.5t75.5 -30t94.5 -15.5q102 0 102 62q0 31 -26 47.5t-103 42.5q-37 13 -61.5 23t-58 29.5t-53.5 41.5t-34.5 56.5t-14.5 75.5q0 83 67.5 138.5t190.5 55.5q108 0 231 -53zM212 729l-117 170h93l116 -104l114 104h91l-115 -170h-182z" />
    <glyph glyph-name="scaron" unicode="&#x161;" horiz-adv-x="427" 
d="M377 436v-103q-83 45 -143 45q-64 0 -64 -32q0 -13 10.5 -21.5t46.5 -23.5q44 -17 67 -28.5t52 -31t41.5 -45t12.5 -58.5q0 -70 -49.5 -108.5t-138.5 -38.5q-49 0 -96.5 11t-68.5 23v102q83 -43 147 -43q34 0 52 10t18 25q0 18 -15.5 28t-72.5 34q-56 24 -77 36
q-61 37 -61 110q0 61 50 102t138 41q86 0 151 -34zM145 518l-99 175h89l78 -93l80 93h88l-99 -175h-137z" />
    <glyph glyph-name="Tcommaaccent" unicode="&#x162;" horiz-adv-x="719" 
d="M692 682v-128h-246v-554h-173v554h-247v128h666zM270 -229v56h29q44 0 59.5 8t15.5 28q0 7 -3.5 12.5t-10 8.5t-13 5t-16.5 2.5t-15 0.5h-15h-11l5 51q105 0 140 -8q80 -18 80 -83q0 -40 -38.5 -66t-106.5 -26q-63 0 -100 11z" />
    <glyph glyph-name="tcommaaccent" unicode="&#x163;" horiz-adv-x="406" 
d="M391 461v-100h-166v-101q0 -88 4 -112q9 -50 65 -50q41 0 97 27v-105q-75 -29 -135 -29q-100 0 -150 69q-28 39 -28 134v167h-66v27l193 218h20v-145h166zM141 -169v50q37 -1 55 1.5t20 6t2 12.5q0 8 -10.5 15t-30.5 7v47q84 0 116 -19t32 -53q0 -33 -28 -55t-78 -22
q-38 0 -78 10z" />
    <glyph glyph-name="Tcaron" unicode="&#x164;" horiz-adv-x="719" 
d="M692 682v-128h-246v-554h-173v554h-247v128h666zM269 729l-117 170h93l116 -104l114 104h91l-115 -170h-182z" />
    <glyph glyph-name="tcaron" unicode="&#x165;" horiz-adv-x="563" 
d="M393 461v-100h-166v-101q0 -88 4 -112q10 -50 65 -50q41 0 97 27v-105q-75 -29 -135 -29q-101 0 -149 69q-17 22 -22.5 51t-5.5 83v167h-67v27l193 218h20v-145h166zM430 408v28q45 52 40 114q-46 21 -46 70q0 31 23 51t52 20q34 0 61.5 -26.5t27.5 -77.5q0 -63 -44 -117
t-114 -62z" />
    <glyph glyph-name="Tbar" unicode="&#x166;" horiz-adv-x="719" 
d="M446 302h171v-91h-171v-211h-173v211h-172v91h172v252h-247v128h666v-128h-246v-252z" />
    <glyph glyph-name="tbar" unicode="&#x167;" horiz-adv-x="406" 
d="M225 297h166v-72h-166v-37t3.5 -34.5t10 -28.5t20.5 -19.5t35 -7.5q41 0 97 27v-105q-75 -29 -135 -29q-100 0 -150 69q-28 39 -28 134v31h-66v72h66v64h-66v27l193 218h20v-145h166v-100h-166v-64z" />
    <glyph glyph-name="Utilde" unicode="&#x168;" horiz-adv-x="823" 
d="M754 682v-371q0 -138 -59 -210q-92 -110 -287 -110q-193 0 -287 121q-52 69 -52 194v376h172v-338q0 -68 12 -106q16 -54 60 -82t98 -28q66 0 105 31.5t54 68.5q12 30 12 116v338h172zM264 734h-74q0 71 33.5 115.5t97.5 44.5q52 0 118 -34q45 -24 72 -24q39 0 47 58h75
q0 -70 -33.5 -115t-94.5 -45q-55 0 -137 42q-35 18 -59 18q-41 0 -45 -60z" />
    <glyph glyph-name="utilde" unicode="&#x169;" horiz-adv-x="583" 
d="M521 461v-461h-146v66q-53 -75 -146 -75q-63 0 -102.5 31t-55.5 71q-10 28 -10 80v288h146v-246q0 -23 0.5 -35t4 -31.5t10.5 -30t21 -18.5t34 -8q56 0 98 65v304h146zM163 520h-66q2 23 7.5 44.5t17.5 47.5t36 41.5t58 15.5q31 0 91 -30q48 -24 67 -24q35 0 44 54h68
q-4 -66 -32.5 -108.5t-84.5 -42.5q-31 0 -87 28t-74 28q-39 0 -45 -54z" />
    <glyph glyph-name="Umacron" unicode="&#x16a;" horiz-adv-x="823" 
d="M754 682v-371q0 -138 -59 -210q-92 -110 -287 -110q-193 0 -287 121q-52 69 -52 194v376h172v-338q0 -68 12 -106q16 -54 60 -82t98 -28q66 0 105 31.5t54 68.5q12 30 12 116v338h172zM631 854v-117h-440v117h440z" />
    <glyph glyph-name="umacron" unicode="&#x16b;" horiz-adv-x="583" 
d="M521 461v-461h-146v66q-53 -75 -146 -75q-63 0 -102.5 31t-55.5 71q-10 28 -10 80v288h146v-246q0 -23 0.5 -35t4 -31.5t10.5 -30t21 -18.5t34 -8q56 0 98 65v304h146zM485 642v-100h-387v100h387z" />
    <glyph glyph-name="Ubreve" unicode="&#x16c;" horiz-adv-x="823" 
d="M754 682v-371q0 -138 -59 -210q-92 -110 -287 -110q-193 0 -287 121q-52 69 -52 194v376h172v-338q0 -68 12 -106q16 -54 60 -82t98 -28q66 0 105 31.5t54 68.5q12 30 12 116v338h172zM199 912h111q22 -74 100 -74q74 0 103 74h110q-6 -67 -63 -125t-149 -58
q-91 0 -149 58.5t-63 124.5z" />
    <glyph glyph-name="ubreve" unicode="&#x16d;" horiz-adv-x="583" 
d="M521 461v-461h-146v66q-53 -75 -146 -75q-63 0 -102.5 31t-55.5 71q-10 28 -10 80v288h146v-246q0 -23 0.5 -35t4 -31.5t10.5 -30t21 -18.5t34 -8q56 0 98 65v304h146zM109 689h100q7 -31 31 -46.5t51 -15.5q66 0 84 62h99q-5 -56 -53 -113.5t-127 -57.5
q-73 0 -119.5 45.5t-65.5 125.5z" />
    <glyph glyph-name="Uring" unicode="&#x16e;" horiz-adv-x="823" 
d="M754 682v-371q0 -138 -59 -210q-92 -110 -287 -110q-193 0 -287 121q-52 69 -52 194v376h172v-338q0 -68 12 -106q16 -54 60 -82t98 -28q66 0 105 31.5t54 68.5q12 30 12 116v338h172zM411 957q46 0 80 -33.5t34 -80.5q0 -48 -33.5 -81t-80.5 -33t-80.5 33t-33.5 81
t33.5 81t80.5 33zM411 904q-25 0 -43 -18t-18 -43q0 -26 17.5 -44t43.5 -18q25 0 43 18t18 44q0 25 -18 43t-43 18z" />
    <glyph glyph-name="uring" unicode="&#x16f;" horiz-adv-x="583" 
d="M521 461v-461h-146v66q-53 -75 -146 -75q-63 0 -102.5 31t-55.5 71q-10 28 -10 80v288h146v-246q0 -23 0.5 -35t4 -31.5t10.5 -30t21 -18.5t34 -8q56 0 98 65v304h146zM292 699q41 0 71 -29.5t30 -71.5t-29.5 -72t-71.5 -30q-43 0 -72.5 29.5t-29.5 72.5q0 42 30 71.5
t72 29.5zM291 652q-23 0 -38.5 -16t-15.5 -38q0 -23 16 -39t38 -16q23 0 39 16t16 39t-16 38.5t-39 15.5z" />
    <glyph glyph-name="Uhungarumlaut" unicode="&#x170;" horiz-adv-x="823" 
d="M754 682v-371q0 -138 -59 -210q-92 -110 -287 -110q-193 0 -287 121q-52 69 -52 194v376h172v-338q0 -68 12 -106q16 -54 60 -82t98 -28q66 0 105 31.5t54 68.5q12 30 12 116v338h172zM465 918l-148 -189h-89l76 189h161zM670 918l-147 -189h-90l77 189h160z" />
    <glyph glyph-name="uhungarumlaut" unicode="&#x171;" horiz-adv-x="583" 
d="M521 461v-461h-146v66q-53 -75 -146 -75q-63 0 -102.5 31t-55.5 71q-10 28 -10 80v288h146v-246q0 -23 0.5 -35t4 -31.5t10.5 -30t21 -18.5t34 -8q56 0 98 65v304h146zM375 663l-130 -145h-72l53 145h149zM563 663l-130 -145h-72l52 145h150z" />
    <glyph glyph-name="Uogonek" unicode="&#x172;" horiz-adv-x="823" 
d="M721 -103v-89q-41 -17 -87 -17q-17 0 -33.5 5t-35.5 17.5t-31 39t-12 63.5q0 51 27 93q-61 -18 -142 -18q-192 0 -286 121q-52 69 -52 194v376h172v-338q0 -68 12 -106q16 -54 60 -82t98 -28q66 0 105 31.5t54 68.5q12 30 12 116v338h172v-371q0 -75 -14.5 -126
t-63.5 -119q-32 -44 -44 -67t-12 -50t18.5 -42.5t44.5 -15.5q18 0 38 6z" />
    <glyph glyph-name="uogonek" unicode="&#x173;" horiz-adv-x="583" 
d="M535 -93v-80q-37 -15 -78 -15q-45 0 -73.5 30.5t-28.5 78.5q0 44 20 79v66q-53 -75 -146 -75q-63 0 -102.5 31t-55.5 71q-10 28 -10 80v288h146v-246q0 -23 0.5 -35t4 -31.5t10.5 -30t21 -18.5t34 -8q56 0 98 65v304h146v-461h-65q-12 -27 -12 -46q0 -17 7 -29t18 -16
t18 -5.5t13 -1.5q10 0 35 5z" />
    <glyph glyph-name="Wcircumflex" unicode="&#x174;" horiz-adv-x="1167" 
d="M1167 682l-301 -691h-73l-210 445l-211 -445h-73l-300 691h180l161 -377l175 377h139l171 -377l162 377h180zM673 899l117 -170h-93l-116 103l-114 -103h-91l115 170h182z" />
    <glyph glyph-name="wcircumflex" unicode="&#x175;" horiz-adv-x="781" 
d="M782 461l-211 -470h-68l-112 251l-116 -251h-68l-208 470h148l97 -245l103 245h87l102 -245l99 245h147zM459 693l99 -175h-89l-78 87l-80 -87h-88l99 175h137z" />
    <glyph glyph-name="Ycircumflex" unicode="&#x176;" horiz-adv-x="708" 
d="M709 682l-269 -363v-319h-171v319l-269 363h205l150 -214l150 214h204zM443 899l117 -170h-93l-116 103l-114 -103h-91l115 170h182z" />
    <glyph glyph-name="ycircumflex" unicode="&#x177;" horiz-adv-x="510" 
d="M509 461l-309 -682h-154l135 296l-180 386h155l97 -228l104 228h152zM321 693l99 -175h-89l-78 87l-80 -87h-88l99 175h137z" />
    <glyph glyph-name="Ydieresis" unicode="&#x178;" horiz-adv-x="708" 
d="M709 682l-269 -363v-319h-171v319l-269 363h205l150 -214l150 214h204zM497 894q33 0 56.5 -23.5t23.5 -56.5t-23.5 -56.5t-56.5 -23.5t-56.5 23.5t-23.5 56.5t23.5 56.5t56.5 23.5zM212 894q33 0 56.5 -23.5t23.5 -56.5t-23.5 -56.5t-56.5 -23.5t-56.5 23.5t-23.5 56.5
t23.5 56.5t56.5 23.5z" />
    <glyph glyph-name="Zacute" unicode="&#x179;" horiz-adv-x="698" 
d="M666 682l-372 -554h372v-128h-662l375 554h-349v128h636zM547 918l-208 -189h-101l117 189h192z" />
    <glyph glyph-name="zacute" unicode="&#x17a;" horiz-adv-x="521" 
d="M42 461h450l-236 -361h236v-100h-473l237 359h-214v102zM413 664l-164 -146h-75l75 146h164z" />
    <glyph glyph-name="Zdotaccent" unicode="&#x17b;" horiz-adv-x="698" 
d="M666 682l-372 -554h372v-128h-662l375 554h-349v128h636zM349 894q33 0 56.5 -23.5t23.5 -56.5t-23.5 -56.5t-56.5 -23.5t-56.5 23.5t-23.5 56.5t23.5 56.5t56.5 23.5z" />
    <glyph glyph-name="zdotaccent" unicode="&#x17c;" horiz-adv-x="521" 
d="M42 461h450l-236 -361h236v-100h-473l237 359h-214v102zM261 657q27 0 46 -19t19 -46q0 -26 -19 -45.5t-46 -19.5t-46 19t-19 46t19 46t46 19z" />
    <glyph glyph-name="Zcaron" unicode="&#x17d;" horiz-adv-x="698" 
d="M666 682l-372 -554h372v-128h-662l375 554h-349v128h636zM259 729l-117 170h93l116 -104l114 104h91l-115 -170h-182z" />
    <glyph glyph-name="zcaron" unicode="&#x17e;" horiz-adv-x="521" 
d="M42 461h450l-236 -361h236v-100h-473l237 359h-214v102zM192 518l-99 175h89l78 -93l80 93h88l-99 -175h-137z" />
    <glyph glyph-name="uni018f" unicode="&#x18f;" horiz-adv-x="853" 
d="M35 340q0 36 7 68h590q-20 65 -73.5 101.5t-132.5 36.5q-78 0 -145 -24.5t-98 -47.5v157q100 60 244 60q88 0 162.5 -30t124 -79t77 -112t27.5 -130q0 -61 -25 -121.5t-72 -112t-124.5 -83.5t-172.5 -32q-86 0 -160 29.5t-123.5 78.5t-77.5 111.5t-28 129.5zM427 129
q71 0 129 39t78 108h-415q20 -77 81.5 -112t126.5 -35z" />
    <glyph glyph-name="florin" unicode="&#x192;" horiz-adv-x="552" 
d="M107 415l18 103h98l8 44q16 83 30 107q34 59 134 59q72 0 135 -20l-26 -110q-46 13 -78 13q-17 0 -28 -4t-17 -15.5t-8.5 -19t-6.5 -26.5l-5 -28h101l-18 -103h-100l-84 -477q-6 -35 -13 -56.5t-23.5 -45t-47.5 -35t-77 -11.5q-75 0 -136 19l28 108q48 -11 82 -11
q17 0 27 4t16.5 16.5t9 24.5t7.5 38l73 426h-99z" />
    <glyph glyph-name="AEacute" unicode="&#x1fc;" horiz-adv-x="1073" 
d="M1007 682v-129h-316v-142h302v-128h-302v-156h326v-127h-497v283h-183l-168 -283h-176l409 682h605zM520 411v180l-107 -180h107zM934 918l-208 -189h-101l117 189h192z" />
    <glyph glyph-name="aeacute" unicode="&#x1fd;" horiz-adv-x="781" 
d="M741 149v-95q-86 -63 -200 -63q-118 0 -187 63q-27 -18 -45.5 -28.5t-58 -22.5t-81.5 -12q-39 0 -67 13t-41.5 33t-19 37.5t-5.5 33.5q0 37 22.5 69t55.5 50q71 38 200 69q0 24 -2 31q-8 26 -33 37t-47 11q-51 0 -100 -26.5t-76 -52.5v115q104 59 194 59q48 0 79.5 -12.5
t66.5 -38.5q60 51 137 51q44 0 81 -15.5t60 -39.5t34.5 -41.5t18.5 -32.5q21 -51 21 -133h-289q-3 -65 30.5 -96.5t85.5 -31.5q79 0 166 69zM459 285h150q-8 96 -77 96q-70 0 -73 -96zM314 110v113q-131 -38 -131 -99q0 -19 12.5 -33.5t32.5 -14.5q40 0 86 34zM543 664
l-164 -146h-75l75 146h164z" />
    <glyph glyph-name="Oslashacute" unicode="&#x1fe;" horiz-adv-x="853" 
d="M830 626l-83 -74q77 -100 77 -211q0 -142 -109 -246t-279 -104q-57 0 -108 12.5t-75.5 24.5t-58.5 32l-110 -97l-61 76l99 88q-79 98 -79 213q0 62 25.5 123.5t73 112.5t124 83t169.5 32q61 0 117.5 -16t82.5 -30.5t39 -26.5l87 77zM625 444l-314 -280q53 -33 124 -33
q92 0 153 57t61 151q0 47 -24 105zM244 235l314 281q-57 32 -129 32q-89 0 -149.5 -54.5t-60.5 -153.5q0 -61 25 -105zM633 918l-208 -189h-101l117 189h192z" />
    <glyph glyph-name="oslashacute" unicode="&#x1ff;" horiz-adv-x="594" 
d="M552 471l-62 -71q22 -25 32.5 -39.5t23 -50t12.5 -78.5q0 -53 -17.5 -96t-44.5 -69t-62 -44t-68 -25t-65 -7q-61 0 -137 29l-65 -74l-51 45l60 69q-72 68 -72 172q0 95 70.5 166.5t195.5 71.5q62 0 132 -29l65 81zM397 290l-161 -188q28 -20 61 -20q103 0 103 153
q0 37 -3 55zM199 167l164 191q-33 22 -70 22q-28 0 -55.5 -18t-38.5 -67q-7 -25 -7 -67q0 -26 7 -61zM450 664l-164 -146h-75l75 146h164z" />
    <glyph glyph-name="uni0218" unicode="&#x218;" horiz-adv-x="604" 
d="M534 638v-140q-135 66 -219 66q-28 0 -49 -5.5t-31 -12t-15.5 -16t-6.5 -14t-1 -8.5q0 -15 10.5 -27.5t37 -25.5t48.5 -21.5l69 -25.5q38 -14 66.5 -29t58.5 -40t46.5 -62t16.5 -84q0 -56 -26.5 -97.5t-69.5 -63t-85.5 -31.5t-85.5 -10q-74 0 -145.5 24.5t-95.5 41.5v147
q40 -25 67 -39.5t75.5 -30t94.5 -15.5q102 0 102 62q0 31 -26 47.5t-103 42.5q-37 13 -61.5 23t-58 29.5t-53.5 41.5t-34.5 56.5t-14.5 75.5q0 83 67.5 138.5t190.5 55.5q108 0 231 -53zM188 -229v56h29q44 0 59.5 8t15.5 28q0 7 -3.5 12.5t-10 8.5t-13 5t-16.5 2.5t-15 0.5
h-15h-11l5 51q105 0 140 -8q80 -18 80 -83q0 -40 -38.5 -66t-106.5 -26q-63 0 -100 11z" />
    <glyph glyph-name="uni0219" unicode="&#x219;" horiz-adv-x="427" 
d="M377 436v-103q-83 45 -143 45q-64 0 -64 -32q0 -13 10.5 -21.5t46.5 -23.5q44 -17 67 -28.5t52 -31t41.5 -45t12.5 -58.5q0 -70 -49.5 -108.5t-138.5 -38.5q-49 0 -96.5 11t-68.5 23v102q83 -43 147 -43q34 0 52 10t18 25q0 18 -15.5 28t-72.5 34q-56 24 -77 36
q-61 37 -61 110q0 61 50 102t138 41q86 0 151 -34zM111 -169v50q37 -1 55 1.5t20 6t2 12.5q0 8 -10.5 15t-30.5 7v47q84 0 116 -19t32 -53q0 -33 -28 -55t-78 -22q-38 0 -78 10z" />
    <glyph glyph-name="uni021A" unicode="&#x21a;" horiz-adv-x="719" 
d="M692 682v-128h-246v-554h-173v554h-247v128h666zM270 -229v56h29q44 0 59.5 8t15.5 28q0 7 -3.5 12.5t-10 8.5t-13 5t-16.5 2.5t-15 0.5h-15h-11l5 51q105 0 140 -8q80 -18 80 -83q0 -40 -38.5 -66t-106.5 -26q-63 0 -100 11z" />
    <glyph glyph-name="uni021B" unicode="&#x21b;" horiz-adv-x="406" 
d="M391 461v-100h-166v-101q0 -88 4 -112q9 -50 65 -50q41 0 97 27v-105q-75 -29 -135 -29q-100 0 -150 69q-28 39 -28 134v167h-66v27l193 218h20v-145h166zM141 -169v50q37 -1 55 1.5t20 6t2 12.5q0 8 -10.5 15t-30.5 7v47q84 0 116 -19t32 -53q0 -33 -28 -55t-78 -22
q-38 0 -78 10z" />
    <glyph glyph-name="uni0259" unicode="&#x259;" horiz-adv-x="564" 
d="M106 328v93q72 49 172 49q63 0 112 -23t76 -60t41 -76.5t14 -79.5q0 -107 -71.5 -173.5t-172.5 -66.5q-40 0 -80 14t-79 45t-61 91.5t-17 142.5h341q-7 98 -143 96q-15 0 -29.5 -3t-22.5 -5t-23 -10t-18 -9.5t-21 -12.5zM378 208h-200q4 -38 28.5 -68.5t71.5 -30.5
q48 0 72.5 31t27.5 68z" />
    <glyph glyph-name="circumflex" unicode="&#x2c6;" 
d="M235 693l99 -175h-89l-78 87l-80 -87h-88l99 175h137z" />
    <glyph glyph-name="caron" unicode="&#x2c7;" 
d="M98 518l-99 175h89l78 -93l80 93h88l-99 -175h-137z" />
    <glyph glyph-name="uni02C9" unicode="&#x2c9;" 
d="M360 642v-100h-387v100h387z" />
    <glyph glyph-name="breve" unicode="&#x2d8;" 
d="M-16 689h100q7 -31 31 -46.5t51 -15.5q66 0 84 62h99q-5 -56 -53 -113.5t-127 -57.5q-73 0 -119.5 45.5t-65.5 125.5z" />
    <glyph glyph-name="dotaccent" unicode="&#x2d9;" 
d="M167 657q27 0 46 -19t19 -46q0 -26 -19 -45.5t-46 -19.5t-46 19t-19 46t19 46t46 19z" />
    <glyph glyph-name="ring" unicode="&#x2da;" 
d="M167 699q41 0 71 -29.5t30 -71.5t-29.5 -72t-71.5 -30q-43 0 -72.5 29.5t-29.5 72.5q0 42 30 71.5t72 29.5zM166 652q-22 0 -38 -16t-16 -38q0 -23 16 -39t38 -16q23 0 39 16t16 39t-16 38.5t-39 15.5z" />
    <glyph glyph-name="ogonek" unicode="&#x2db;" 
d="M254 -93v-80q-37 -15 -78 -15q-44 0 -72.5 28.5t-28.5 84.5q0 43 25 84h79q-16 -35 -16 -55q0 -26 18 -39t39 -13q9 0 34 5z" />
    <glyph glyph-name="tilde" unicode="&#x2dc;" 
d="M38 520h-66q2 23 7.5 44.5t17.5 47.5t36 41.5t58 15.5q31 0 91 -30q48 -24 67 -24q35 0 44 54h68q-4 -66 -32.5 -108.5t-84.5 -42.5q-31 0 -87 28t-74 28q-39 0 -45 -54z" />
    <glyph glyph-name="hungarumlaut" unicode="&#x2dd;" 
d="M230 663l-130 -145h-72l53 145h149zM418 663l-130 -145h-72l52 145h150z" />
    <glyph glyph-name="uni03A9" unicode="&#x3a9;" horiz-adv-x="710" 
d="M652 0h-264v128q93 101 93 242q0 92 -35 147t-98 55q-65 0 -102.5 -56t-37.5 -151q0 -141 94 -237v-128h-263v128h139q-28 23 -48.5 44t-44.5 54.5t-36.5 78.5t-12.5 99q0 134 88 221t227 87q144 0 223.5 -85t79.5 -219q0 -170 -143 -280h141v-128z" />
    <glyph glyph-name="uni03BC" unicode="&#x3bc;" horiz-adv-x="615" 
d="M392 459h145v-301q0 -56 28 -56q7 0 21 5v-94q-48 -23 -91 -23q-45 0 -64 37q-40 -37 -91 -37q-42 0 -73 23t-48 51v-294h-145v689h145v-295q52 -66 104 -66q44 0 64 57q5 15 5 64v240z" />
    <glyph glyph-name="pi" unicode="&#x3c0;" horiz-adv-x="653" 
d="M671 16q-33 -26 -102 -26q-82 0 -115.5 49t-33.5 119v230h-122v-238q0 -91 -16 -150h-159q18 69 18 160v228q-38 0 -77 -24l-41 95q61 41 168 41h469v-112h-82v-207q0 -79 39 -79q13 0 29 10z" />
    <glyph glyph-name="Wgrave" unicode="&#x1e80;" horiz-adv-x="1167" 
d="M1167 682l-301 -691h-73l-210 445l-211 -445h-73l-300 691h180l161 -377l175 377h139l171 -377l162 377h180zM386 918h192l117 -189h-101z" />
    <glyph glyph-name="wgrave" unicode="&#x1e81;" horiz-adv-x="781" 
d="M782 461l-211 -470h-68l-112 251l-116 -251h-68l-208 470h148l97 -245l103 245h87l102 -245l99 245h147zM238 664h165l74 -146h-74z" />
    <glyph glyph-name="Wacute" unicode="&#x1e82;" horiz-adv-x="1167" 
d="M1167 682l-301 -691h-73l-210 445l-211 -445h-73l-300 691h180l161 -377l175 377h139l171 -377l162 377h180zM781 918l-208 -189h-101l117 189h192z" />
    <glyph glyph-name="wacute" unicode="&#x1e83;" horiz-adv-x="781" 
d="M782 461l-211 -470h-68l-112 251l-116 -251h-68l-208 470h148l97 -245l103 245h87l102 -245l99 245h147zM543 664l-164 -146h-75l75 146h164z" />
    <glyph glyph-name="Wdieresis" unicode="&#x1e84;" horiz-adv-x="1167" 
d="M1167 682l-301 -691h-73l-210 445l-211 -445h-73l-300 691h180l161 -377l175 377h139l171 -377l162 377h180zM726 894q33 0 56.5 -23.5t23.5 -56.5t-23.5 -56.5t-56.5 -23.5t-56.5 23.5t-23.5 56.5t23.5 56.5t56.5 23.5zM441 894q33 0 56.5 -23.5t23.5 -56.5t-23.5 -56.5
t-56.5 -23.5t-56.5 23.5t-23.5 56.5t23.5 56.5t56.5 23.5z" />
    <glyph glyph-name="wdieresis" unicode="&#x1e85;" horiz-adv-x="781" 
d="M782 461l-211 -470h-68l-112 251l-116 -251h-68l-208 470h148l97 -245l103 245h87l102 -245l99 245h147zM492 657q27 0 46 -18.5t19 -46.5q0 -26 -19 -45.5t-46 -19.5t-46 19.5t-19 45.5q0 27 19 46t46 19zM289 657q27 0 46 -19t19 -46t-19 -46t-46 -19t-46 19.5
t-19 45.5q0 27 19 46t46 19z" />
    <glyph glyph-name="Ygrave" unicode="&#x1ef2;" horiz-adv-x="708" 
d="M709 682l-269 -363v-319h-171v319l-269 363h205l150 -214l150 214h204zM127 918h192l117 -189h-101z" />
    <glyph glyph-name="ygrave" unicode="&#x1ef3;" horiz-adv-x="510" 
d="M509 461l-309 -682h-154l135 296l-180 386h155l97 -228l104 228h152zM103 664h165l74 -146h-74z" />
    <glyph glyph-name="endash" unicode="&#x2013;" horiz-adv-x="500" 
d="M508 297v-132h-516v132h516z" />
    <glyph glyph-name="emdash" unicode="&#x2014;" horiz-adv-x="1000" 
d="M1007 297v-132h-1014v132h1014z" />
    <glyph glyph-name="quoteleft" unicode="&#x2018;" horiz-adv-x="271" 
d="M220 691v-30q-50 -61 -44 -128q50 -22 50 -76q0 -34 -25 -56t-58 -22q-37 0 -67.5 29.5t-30.5 85.5q0 71 49.5 130.5t125.5 66.5z" />
    <glyph glyph-name="quoteright" unicode="&#x2019;" horiz-adv-x="271" 
d="M50 377v30q51 61 45 128q-51 22 -51 77q0 35 25.5 57t58.5 22q37 0 67.5 -29.5t30.5 -85.5q0 -72 -49.5 -131.5t-126.5 -67.5z" />
    <glyph glyph-name="quotesinglbase" unicode="&#x201a;" horiz-adv-x="271" 
d="M50 -171v31q51 58 45 127q-51 22 -51 77q0 35 25.5 57t58.5 22q37 0 67.5 -29.5t30.5 -85.5q0 -72 -49.5 -131.5t-126.5 -67.5z" />
    <glyph glyph-name="quotedblleft" unicode="&#x201c;" horiz-adv-x="562" 
d="M511 691v-30q-50 -61 -44 -128q50 -22 50 -76q0 -34 -25 -56t-58 -22q-37 0 -68 29.5t-31 85.5q0 71 50 130.5t126 66.5zM232 691v-30q-50 -61 -44 -128q51 -22 51 -76q0 -34 -25.5 -56t-58.5 -22q-37 0 -67.5 29.5t-30.5 85.5q0 71 49.5 130.5t125.5 66.5z" />
    <glyph glyph-name="quotedblright" unicode="&#x201d;" horiz-adv-x="562" 
d="M63 377v30q50 64 44 128q-51 22 -51 77q0 35 25.5 57t58.5 22q37 0 67.5 -29.5t30.5 -85.5q0 -72 -49.5 -131.5t-125.5 -67.5zM341 377v30q51 61 45 128q-51 22 -51 77q0 35 25.5 57t58.5 22q37 0 67.5 -29.5t30.5 -85.5q0 -72 -50 -131.5t-126 -67.5z" />
    <glyph glyph-name="quotedblbase" unicode="&#x201e;" horiz-adv-x="562" 
d="M57 -169v31q50 57 44 129q-50 22 -50 75q0 34 25.5 55.5t57.5 21.5q38 0 68.5 -29.5t30.5 -84.5q0 -71 -49.5 -130.5t-126.5 -67.5zM336 -169v31q50 61 44 129q-50 22 -50 75q0 34 25.5 55.5t57.5 21.5q37 0 68 -29.5t31 -84.5q0 -71 -50 -130.5t-126 -67.5z" />
    <glyph glyph-name="dagger" unicode="&#x2020;" horiz-adv-x="510" 
d="M283 443l170 36q15 3 22.5 -2t9 -12.5t1.5 -21.5v-62q0 -38 -19 -38q-5 0 -17 4l-167 34l52 -587q3 -24 -22 -24h-110q-23 0 -28 8t-3 27l54 576l-181 -36q-20 0 -20 36v62q0 40 19 40q4 0 12 -4l170 -36l-36 220q-2 16 4.5 22t31.5 6h57q25 0 34 -4.5t6 -19.5z" />
    <glyph glyph-name="daggerdbl" unicode="&#x2021;" horiz-adv-x="510" 
d="M280 429l40 -199l-40 -198l170 39q20 4 27 -9t7 -53q0 -43 -5 -56.5t-17 -13.5q-8 0 -16 3l-166 39l40 -178q4 -18 -7 -25.5t-53 -7.5q-38 0 -56 4.5t-18 20.5q0 1 3 16l40 170l-168 -39q-4 -2 -11 -2q-24 0 -24 72q0 61 20 61q1 0 5 -1t6 -1l172 -39l-40 198l40 199
l-164 -39q-4 -1 -7 -1.5t-4 -0.5q-16 0 -22 12.5t-6 52.5q0 28 2.5 43t6 19.5t10.5 4.5q2 0 6.5 -1t5.5 -1l172 -39l-40 172q-2 4 -2 14q0 26 68 26q37 0 52 -5t15 -20q0 -8 -2 -15l-40 -172l166 39q11 3 16 3q8 0 12 -3.5t7.5 -18.5t3.5 -43q0 -31 -3.5 -47t-7.5 -18
t-11 -2q-3 0 -7.5 0.5t-5.5 0.5z" />
    <glyph glyph-name="bullet" unicode="&#x2022;" horiz-adv-x="354" 
d="M321 341q0 -60 -42.5 -102t-102.5 -42q-59 0 -101.5 42t-42.5 102q0 59 42 101.5t102 42.5t102.5 -42t42.5 -102z" />
    <glyph glyph-name="ellipsis" unicode="&#x2026;" horiz-adv-x="1000" 
d="M920 78q0 -33 -24.5 -60t-61.5 -27q-36 0 -62 26t-26 61q0 34 25 60t61 26q38 0 63 -26.5t25 -59.5zM587 78q0 -33 -24.5 -60t-61.5 -27q-36 0 -62 26t-26 61q0 34 25 60t61 26q38 0 63 -26.5t25 -59.5zM254 78q0 -33 -24.5 -60t-61.5 -27q-36 0 -62 26t-26 61
q0 34 25 60t61 26q38 0 63 -26.5t25 -59.5z" />
    <glyph glyph-name="perthousand" unicode="&#x2030;" horiz-adv-x="1083" 
d="M176 690q66 0 113.5 -47t47.5 -114t-47.5 -114t-113.5 -47q-67 0 -114 47t-47 114t47 114t114 47zM176 600q-29 0 -50.5 -21t-21.5 -50q0 -30 21 -51t51 -21q29 0 50 21t21 51q0 29 -21 50t-50 21zM524 316q67 0 114.5 -47t47.5 -115q0 -67 -47.5 -114t-114.5 -47
t-114 47t-47 114q0 68 47.5 115t113.5 47zM523 224q-30 0 -50.5 -20.5t-20.5 -49.5t20.5 -50t50.5 -21q29 0 49.5 21t20.5 50t-20.5 49.5t-49.5 20.5zM907 316q67 0 114.5 -47t47.5 -115q0 -67 -47.5 -114t-114.5 -47t-114 47t-47 114q0 68 47.5 115t113.5 47zM906 224
q-30 0 -50.5 -20.5t-20.5 -49.5t20.5 -50t50.5 -21q29 0 49.5 21t20.5 50t-20.5 49.5t-49.5 20.5zM627 691l-477 -699h-83l480 699h80z" />
    <glyph glyph-name="guilsinglleft" unicode="&#x2039;" horiz-adv-x="323" 
d="M314 454l-161 -226l161 -221h-144l-162 221l162 226h144z" />
    <glyph glyph-name="guilsinglright" unicode="&#x203a;" horiz-adv-x="323" 
d="M9 454h144l161 -226l-161 -221h-144l161 221z" />
    <glyph glyph-name="fraction" unicode="&#x2044;" horiz-adv-x="219" 
d="M395 691l-478 -718h-94l479 718h93z" />
    <glyph glyph-name="Euro" unicode="&#x20ac;" horiz-adv-x="627" 
d="M100 228h-84l16 82h57q-1 31 1 64h-74l16 82h71q8 30 20.5 58.5t36.5 61.5t55.5 57.5t80.5 41t107 16.5q67 0 166 -21l-22 -126q-84 21 -135 21q-111 0 -153 -109h267l-16 -82h-270q-2 -28 0 -64h262l-16 -82h-230q41 -109 142 -109q57 0 159 47v-131q-101 -44 -181 -44
q-63 0 -113.5 21t-82 57.5t-51 75.5t-29.5 83z" />
    <glyph glyph-name="afii61289" unicode="&#x2113;" horiz-adv-x="493" 
d="M412 38q-67 -55 -141 -55q-70 0 -109 41q-46 46 -46 142v45l-49 -47q-12 23 -38 67l87 83v195q0 106 45 162.5t121 56.5q64 0 94.5 -39.5t30.5 -91.5q0 -69 -30 -129t-88 -125q-5 -5 -16.5 -18t-14.5 -16v-122q0 -96 54 -96q31 0 63 32l18.5 -42.5zM329 578q0 42 -31 42
q-40 0 -40 -81v-121l12 15q26 32 42.5 73t16.5 72z" />
    <glyph glyph-name="trademark" unicode="&#x2122;" horiz-adv-x="1000" 
d="M227 282v331h-121v69h324v-69h-121v-331h-82zM478 282v400h127l73 -275l73 275h126v-400h-76v319l-87 -319h-73l-86 319v-319h-77z" />
    <glyph glyph-name="Omega" unicode="&#x2126;" horiz-adv-x="710" 
d="M652 0h-264v128q93 101 93 242q0 92 -35 147t-98 55q-65 0 -102.5 -56t-37.5 -151q0 -141 94 -237v-128h-263v128h139q-28 23 -48.5 44t-44.5 54.5t-36.5 78.5t-12.5 99q0 134 88 221t227 87q144 0 223.5 -85t79.5 -219q0 -170 -143 -280h141v-128z" />
    <glyph glyph-name="estimated" unicode="&#x212e;" horiz-adv-x="661" 
d="M584 276h-426v-190q63 -61 152 -61q129 0 202 125l36 -22q-48 -70 -103 -105t-135 -35q-122 0 -196 82.5t-74 205.5t73.5 205.5t195.5 82.5q125 0 197.5 -81t77.5 -207zM462 313v151q-64 64 -154 64q-88 0 -150 -63v-152h304z" />
    <glyph glyph-name="onethird" unicode="&#x2153;" horiz-adv-x="896" 
d="M222 691v-359h-104v359h104zM722 691l-478 -718h-94l478 718h94zM639 288l-38 -14v69q48 17 99 17q58 0 96 -24.5t38 -64.5q0 -50 -56 -81q67 -25 67 -90q0 -49 -42 -77t-107 -28q-56 0 -104 22v77q52 -31 93 -31q23 0 38.5 11.5t15.5 30.5q0 40 -61 46v67q25 1 38.5 11
t15 16t1.5 12q0 15 -13.5 26.5t-37.5 11.5q-22 0 -43 -7z" />
    <glyph glyph-name="twothirds" unicode="&#x2154;" horiz-adv-x="896" 
d="M294 409v-77h-279v13q58 65 84.5 97t49.5 70t23 64q0 20 -14 33t-34 13q-44 0 -103 -51v85q63 35 118 35q68 0 101 -29.5t33 -71.5q0 -28 -21 -66t-37.5 -58.5l-47.5 -56.5h127zM734 691l-478 -718h-94l478 718h94zM601 274v69q48 17 99 17q58 0 96 -24.5t38 -64.5
q0 -50 -56 -81q67 -25 67 -90q0 -49 -42 -77t-107 -28q-56 0 -104 22v77q52 -31 93 -31q23 0 38.5 11.5t15.5 30.5q0 40 -61 46v67q25 1 38.5 11t15 16t1.5 12q0 14 -13 26t-39 12q-22 0 -80 -21z" />
    <glyph glyph-name="oneeighth" unicode="&#x215b;" horiz-adv-x="896" 
d="M809 188q58 -27 58 -85q0 -46 -37 -77t-105 -31q-60 0 -100 29t-40 78q0 59 59 86q-47 26 -47 74q0 42 34.5 70t93.5 28q64 0 97.5 -30.5t33.5 -68.5q0 -46 -47 -73zM758 258q0 43 -32 43t-32 -44q0 -45 33 -45q31 0 31 46zM764 103q0 53 -38 53q-16 0 -27 -12.5
t-11 -38.5q0 -27 12 -40t27 -13q16 0 26.5 13.5t10.5 37.5zM222 691v-359h-104v359h104zM725 691l-478 -718h-94l478 718h94z" />
    <glyph glyph-name="threeeighths" unicode="&#x215c;" horiz-adv-x="896" 
d="M809 188q58 -29 58 -85q0 -45 -37 -76.5t-105 -31.5q-60 0 -100 29t-40 78q0 59 59 86q-47 26 -47 74q0 42 34.5 70t93.5 28q64 0 97.5 -30.5t33.5 -68.5q0 -46 -47 -73zM758 258q0 43 -32 43t-32 -44q0 -45 33 -45q31 0 31 46zM764 103q0 53 -38 53q-16 0 -27 -12.5
t-11 -38.5q0 -27 12 -40t27 -13q16 0 26.5 13.5t10.5 37.5zM45 606v68q45 17 98 17q58 0 96.5 -24.5t38.5 -63.5q0 -50 -56 -81q67 -29 67 -90q0 -49 -42.5 -77t-107.5 -28q-58 0 -104 22v77q50 -32 94 -32q23 0 38.5 11.5t15.5 30.5q0 42 -61 46v67q25 2 38.5 12t15 16
t1.5 12q0 15 -13.5 26.5t-37.5 11.5q-15 0 -43 -7q-1 0 -17.5 -6.5t-20.5 -7.5zM734 691l-478 -718h-94l478 718h94z" />
    <glyph glyph-name="fiveeighths" unicode="&#x215d;" horiz-adv-x="896" 
d="M809 188q58 -29 58 -85q0 -45 -37 -76.5t-105 -31.5q-60 0 -100 29t-40 78q0 59 59 86q-47 26 -47 74q0 42 34.5 70t93.5 28q64 0 97.5 -30.5t33.5 -68.5q0 -46 -47 -73zM758 258q0 43 -32 43t-32 -44q0 -45 33 -45q31 0 31 46zM764 103q0 53 -38 53q-16 0 -27 -12.5
t-11 -38.5q0 -27 12 -40t27 -13q16 0 26.5 13.5t10.5 37.5zM280 687v-77h-129v-59q63 3 103 -28.5t40 -81.5q0 -46 -37.5 -80t-114.5 -34q-63 0 -103 21v71q51 -24 91 -24q29 0 43.5 13.5t14.5 31.5q0 20 -18 33.5t-55 13.5q-25 0 -55 -7v207h220zM734 691l-478 -718h-94
l478 718h94z" />
    <glyph glyph-name="seveneighths" unicode="&#x215e;" horiz-adv-x="896" 
d="M809 188q58 -33 58 -85q0 -45 -36.5 -76.5t-105.5 -31.5q-60 0 -100 29t-40 78q0 59 59 86q-47 26 -47 74q0 42 34.5 70t93.5 28q64 0 97.5 -30.5t33.5 -68.5q0 -46 -47 -73zM758 258q0 43 -32 43t-32 -44q0 -45 33 -45q31 0 31 46zM764 103q0 53 -38 53q-16 0 -27 -12.5
t-11 -38.5q0 -27 12 -40t27 -13q16 0 26.5 13.5t10.5 37.5zM297 691l-148 -364l-91 30l107 255h-147v79h279zM722 691l-478 -718h-94l478 718h94z" />
    <glyph glyph-name="partialdiff" unicode="&#x2202;" horiz-adv-x="576" 
d="M559 453q0 -97 -23 -187q-33 -124 -107 -200.5t-177 -76.5q-97 0 -158 58t-61 149q0 74 22.5 132t60 92.5t80.5 52t89 17.5q38 0 70 -15t45 -36h2q3 27 3 50q0 61 -31 94.5t-84 33.5q-48 0 -93 -25l-30 103q57 38 147 38q113 0 179 -74t66 -206zM387 330q-21 54 -71 54
q-48 0 -85.5 -58t-37.5 -141q0 -35 15.5 -56.5t43.5 -21.5q51 0 87.5 68t47.5 155z" />
    <glyph glyph-name="Delta" unicode="&#x2206;" horiz-adv-x="608" 
d="M645 0h-624v65l200 635h228l196 -635v-65zM455 129l-110 383q-15 60 -16 65h-5q-2 -17 -13 -62l-110 -386h254z" />
    <glyph glyph-name="product" unicode="&#x220f;" horiz-adv-x="719" 
d="M652 -230h-163v791h-260v-791h-162v930h585v-930z" />
    <glyph glyph-name="summation" unicode="&#x2211;" horiz-adv-x="631" 
d="M559 -230h-535v87l254 383l-239 367v93h503v-128h-314l213 -329l-226 -345h344v-128z" />
    <glyph glyph-name="minus" unicode="&#x2212;" horiz-adv-x="583" 
d="M41 277v128h501v-128h-501z" />
    <glyph glyph-name="uni2215" unicode="&#x2215;" horiz-adv-x="219" 
d="M395 691l-478 -718h-94l479 718h93z" />
    <glyph glyph-name="uni2219" unicode="&#x2219;" horiz-adv-x="271" 
d="M223 346q0 -33 -24.5 -60t-62.5 -27q-35 0 -61 26t-26 61t25 61t61 26q38 0 63 -27t25 -60z" />
    <glyph glyph-name="radical" unicode="&#x221a;" horiz-adv-x="513" 
d="M522 729l-162 -741h-128l-111 285l-54 -37l-49 74l169 117l108 -286l126 588h101z" />
    <glyph glyph-name="infinity" unicode="&#x221e;" horiz-adv-x="783" 
d="M743 294q0 -82 -53 -135.5t-130 -53.5q-51 0 -97.5 25.5t-78.5 72.5h-2q-72 -98 -175 -98q-72 0 -128 49t-56 138q0 85 56 134.5t128 49.5q107 0 175 -98h2q25 39 70.5 68.5t104.5 29.5q79 0 131.5 -52.5t52.5 -129.5zM626 293q0 34 -21 56.5t-58 22.5q-33 0 -57.5 -20
t-49.5 -61q44 -82 108 -82q36 0 57 25t21 59zM326 291q-52 81 -108 81q-35 0 -56.5 -24t-21.5 -57q0 -34 22 -58t57 -24q58 0 107 82z" />
    <glyph glyph-name="integral" unicode="&#x222b;" horiz-adv-x="491" 
d="M411 624q-20 8 -39 8q-60 0 -60 -79v-573q0 -98 -46.5 -157.5t-146.5 -59.5q-60 0 -94 15l27 111q19 -7 39 -7q61 0 61 79v571q0 100 47.5 159.5t146.5 59.5q64 0 96 -18q-6 -19 -16 -55.5z" />
    <glyph glyph-name="approxequal" unicode="&#x2248;" horiz-adv-x="583" 
d="M554 425q-34 -51 -70 -74.5t-87 -23.5q-64 0 -112 30q-50 33 -92 33q-9 0 -17 -2.5t-15.5 -7.5t-12.5 -9.5t-11 -13l-9 -12.5t-8 -13t-6 -10l-84 98q34 49 69 74t87 25q58 0 112 -30q55 -33 94 -33q19 0 36 13t24 23t19 31zM554 180q-34 -51 -70 -74.5t-87 -23.5
q-64 0 -112 31q-52 32 -92 32q-7 0 -13.5 -1.5t-12.5 -5l-10.5 -6t-10 -8.5l-8.5 -9.5t-7.5 -10.5t-6 -9.5t-6 -9.5t-4.5 -8l-84 99q34 48 69 73t87 25q58 0 112 -30q57 -33 94 -33q14 0 26.5 5.5t23.5 19.5t15 20t14 23z" />
    <glyph glyph-name="notequal" unicode="&#x2260;" horiz-adv-x="583" 
d="M514 115h-230l-40 -94h-143l40 94h-71v129h127l50 117h-177v129h234l50 117h144l-51 -117h67v-129h-124l-50 -117h174v-129z" />
    <glyph glyph-name="lessequal" unicode="&#x2264;" horiz-adv-x="583" 
d="M514 0h-444v129h444v-129zM514 148l-444 168v126l444 167v-132l-290 -99v-2l290 -98v-130z" />
    <glyph glyph-name="greaterequal" unicode="&#x2265;" horiz-adv-x="583" 
d="M513 0h-443v129h443v-129zM514 315l-444 -166v132l290 98v2l-290 98v131l444 -168v-127z" />
    <glyph glyph-name="lozenge" unicode="&#x25ca;" horiz-adv-x="559" 
d="M488 350l-195 -350h-71l-194 349l194 351h71zM377 350l-119 222l-119 -222l119 -221z" />
    <glyph glyph-name="one.alt" unicode="&#xe000;" horiz-adv-x="552" 
d="M378 0h-167v456q-59 -38 -106 -53v127q19 8 31.5 15t34 24.5t44.5 48t47 73.5h116v-691z" />
    <glyph glyph-name="zero.fitted" unicode="&#xf639;" horiz-adv-x="552" 
d="M507 344q0 -98 -20 -169.5t-54 -110t-72 -56t-82 -17.5q-102 0 -165 81q-69 89 -69 269q0 83 15.5 147t39.5 101.5t56 61t61 32t60 8.5q26 0 52.5 -6.5t60 -29t58.5 -58t42 -101.5t17 -152zM350 348q0 120 -18 167.5t-55 47.5q-44 0 -59 -57.5t-15 -171.5q0 -25 0.5 -41
t2 -45.5t6.5 -48.5t13 -39.5t21 -31t31 -10.5q49 0 64 81q9 56 9 149z" />
    <glyph glyph-name="two.fitted" unicode="&#xf63a;" horiz-adv-x="519" 
d="M483 139v-139h-451v20q2 2 30 38l64.5 85.5l56.5 78.5q114 163 114 250q0 40 -27 68t-65 28q-75 0 -164 -85v143q60 38 102.5 51.5t88.5 13.5q112 0 164 -57t52 -136q0 -40 -15.5 -86t-67.5 -131q-20 -32 -102 -142h220z" />
    <glyph glyph-name="three.fitted" unicode="&#xf63b;" horiz-adv-x="501" 
d="M53 541v120q71 30 156 30q94 0 156 -45t62 -122q0 -74 -56 -127q-19 -18 -45 -31q21 -9 35.5 -17.5t37 -28.5t35 -53.5t12.5 -76.5q0 -96 -69.5 -147.5t-173.5 -51.5q-94 0 -167 39v132q76 -52 150 -52q43 0 72 25t29 64q0 6 -0.5 12.5t-6.5 21.5t-15.5 26t-31 21.5
t-51.5 13.5v120q45 4 69.5 29t24.5 54q0 31 -26.5 55.5t-69.5 24.5q-38 0 -75 -13q-4 -1 -15 -6l-23 -10.5t-14 -6.5z" />
    <glyph glyph-name="four.fitted" unicode="&#xf63c;" horiz-adv-x="536" 
d="M442 691v-414h46v-109h-46v-168h-151v168h-266v109l321 414h96zM291 277v186l-146 -186h146z" />
    <glyph glyph-name="five.fitted" unicode="&#xf63d;" horiz-adv-x="514" 
d="M444 682v-137h-218v-128q3 0 12 0.5t15 0.5q91 0 152.5 -58t61.5 -152q0 -93 -59 -151q-66 -66 -188 -66q-51 0 -98 12.5t-67 24.5v124q77 -41 145 -41q53 0 80.5 29.5t27.5 64.5q0 40 -33 69t-102 29q-42 0 -83 -10v389h354z" />
    <glyph glyph-name="six.fitted" unicode="&#xf63e;" horiz-adv-x="543" 
d="M424 691l-158 -258q22 6 40 6q85 0 138 -63.5t53 -151.5q0 -101 -64.5 -167t-161.5 -66q-95 0 -160.5 64t-65.5 178q0 115 93 267l118 191h168zM350 220q0 42 -20 71t-57 29q-33 0 -53.5 -26.5t-20.5 -76.5t21 -74.5t54 -24.5q38 0 57 30t19 72z" />
    <glyph glyph-name="seven.fitted" unicode="&#xf63f;" horiz-adv-x="510" 
d="M486 682v-8l-249 -683l-136 52l183 503h-252v136h454z" />
    <glyph glyph-name="eight.fitted" unicode="&#xf640;" horiz-adv-x="552" 
d="M403 360q30 -15 50 -34q52 -52 52 -131q0 -35 -12 -68.5t-36.5 -65t-71.5 -51t-110 -19.5q-99 0 -163 55.5t-64 147.5q0 86 59 139q19 17 44 27q-22 15 -35.5 26t-31 44.5t-17.5 75.5q0 79 54.5 132t152.5 53q105 0 158.5 -57.5t53.5 -128.5q0 -68 -41 -112
q-10 -11 -42 -33zM340 499q0 90 -65 90q-32 0 -48 -28q-15 -28 -15 -64q0 -10 1.5 -21t7 -30.5t20.5 -31.5t37 -12q5 0 9.5 0.5t15 6t18 14.5t13.5 29t6 47zM351 195q0 57 -21.5 83.5t-52.5 26.5q-5 0 -10.5 -0.5t-18.5 -6.5t-22.5 -16t-17 -31.5t-7.5 -51.5
q0 -57 23.5 -83.5t53.5 -26.5t51.5 26t21.5 80z" />
    <glyph glyph-name="nine.fitted" unicode="&#xf641;" horiz-adv-x="543" 
d="M121 -9l157 256q-28 -7 -44 -7q-76 0 -132 62t-56 154q0 102 66 168.5t161 66.5q93 0 159 -65.5t66 -169.5q0 -124 -90 -270l-120 -195h-167zM345 461q0 57 -23.5 79.5t-51.5 22.5q-34 0 -55.5 -29t-21.5 -73q0 -51 22.5 -76t53.5 -25q34 0 55 29t21 72z" />
    <glyph glyph-name="zero.taboldstyle" unicode="&#xf643;" horiz-adv-x="526" 
d="M263 124q34 0 60.5 27.5t26.5 79.5q0 44 -22.5 75t-64.5 31q-39 0 -63 -29.5t-24 -81.5q0 -44 25.5 -73t61.5 -29zM497 230q0 -53 -15.5 -95t-39.5 -68.5t-55.5 -44t-62 -24.5t-60.5 -7q-98 0 -166.5 64t-68.5 173q0 107 68 174.5t168 67.5q39 0 78 -13t74.5 -40
t57.5 -75.5t22 -111.5z" />
    <glyph glyph-name="one.taboldstyle" unicode="&#xf644;" horiz-adv-x="526" 
d="M384 0h-147v290l-129 -103v140l163 143h113v-470z" />
    <glyph glyph-name="two.taboldstyle" unicode="&#xf645;" horiz-adv-x="526" 
d="M471 130v-130h-428v20l120 99q80 66 105 103.5t25 67.5q0 50 -61 50q-39 0 -76.5 -16.5t-94.5 -52.5v140q45 20 69.5 29.5t66 19.5t82.5 10q90 0 131 -40.5t41 -102.5q0 -59 -30.5 -103.5t-87.5 -93.5h138z" />
    <glyph glyph-name="three.taboldstyle" unicode="&#xf646;" horiz-adv-x="526" 
d="M471 461l-150 -302q65 -12 105 -60.5t40 -112.5q0 -93 -76 -154.5t-167 -61.5q-78 0 -166 39v132q78 -52 144 -52q55 0 81 30t26 65q0 41 -28.5 66.5t-65.5 29t-72 -2.5l118 247h-201v137h412z" />
    <glyph glyph-name="four.taboldstyle" unicode="&#xf647;" horiz-adv-x="526" 
d="M298 0h-298v66l356 404h81v-373h88v-97h-88v-221h-139v221zM152 97h149v177z" />
    <glyph glyph-name="five.taboldstyle" unicode="&#xf648;" horiz-adv-x="526" 
d="M486 461v-137h-227l-21 -141q115 -6 171 -63t56 -131q0 -97 -66.5 -158t-176.5 -61q-85 0 -169 36v133q95 -50 155 -50q44 0 71.5 20t27.5 60q0 10 -2 19t-9.5 24t-21 24.5t-37 19.5t-58 10.5t-83.5 -3.5l63 398h327z" />
    <glyph glyph-name="six.taboldstyle" unicode="&#xf649;" horiz-adv-x="526" 
d="M272 691l115 -58q-52 -64 -81 -104.5t-38.5 -57t-24.5 -47.5q36 15 69 15q73 0 125 -57t52 -151q0 -108 -64 -174t-164 -66t-162 66t-62 178q0 106 55 206t180 250zM342 220q0 42 -20 71t-57 29q-33 0 -53.5 -26.5t-20.5 -76.5t21 -74.5t54 -24.5q38 0 57 30t19 72z" />
    <glyph glyph-name="seven.taboldstyle" unicode="&#xf64a;" horiz-adv-x="526" 
d="M499 461v-8l-249 -683l-136 52l183 502h-252v137h454z" />
    <glyph glyph-name="eight.taboldstyle" unicode="&#xf64b;" horiz-adv-x="526" 
d="M378 360q114 -52 114 -167q0 -32 -11 -64t-35 -64.5t-72 -53t-113 -20.5q-100 0 -163.5 56.5t-63.5 144.5q0 40 12.5 71.5t33 50.5t37 29.5t33.5 16.5q-19 11 -30.5 19.5t-29.5 26t-27 43.5t-9 59q0 76 54 129.5t153 53.5q56 0 99 -18t66.5 -46.5t35 -59t11.5 -61.5
q0 -98 -95 -146zM326 499q0 90 -64 90q-30 0 -45.5 -25t-15.5 -67q0 -36 14.5 -65.5t49.5 -29.5q61 0 61 97zM338 195q0 52 -20.5 81t-53.5 29q-37 0 -56.5 -28t-19.5 -78q0 -48 20.5 -79.5t56.5 -31.5q33 0 53 28t20 79z" />
    <glyph glyph-name="nine.taboldstyle" unicode="&#xf64c;" horiz-adv-x="526" 
d="M254 -230l-115 58q52 64 81 104.5t38.5 57t24.5 47.5q-36 -15 -69 -15q-73 0 -125 57t-52 151q0 108 64 174t164 66t162 -66t62 -178q0 -106 -55 -206t-180 -250zM184 241q0 -42 20 -71t57 -29q33 0 53.5 26.5t20.5 76.5t-21 74.5t-54 24.5q-38 0 -57 -30t-19 -72z" />
    <glyph glyph-name="zero.denominator" unicode="&#xf655;" 
d="M309 183q0 -89 -36.5 -138.5t-104.5 -49.5q-40 0 -69 15.5t-44.5 42.5t-22.5 58t-7 67q0 87 36.5 134.5t105.5 47.5q61 0 101.5 -45.5t40.5 -131.5zM204 182q0 106 -37 106q-20 0 -28.5 -25t-8.5 -89q0 -107 37 -107q21 0 29 25.5t8 89.5z" />
    <glyph glyph-name="one.denominator" unicode="&#xf656;" 
d="M219 360v-360h-104v360h104z" />
    <glyph glyph-name="two.denominator" unicode="&#xf657;" 
d="M311 77v-77h-278v14q1 0 16.5 17.5l38 44t36.5 44.5q65 79 65 123q0 22 -14.5 34.5t-33.5 12.5q-44 0 -103 -51v85q65 36 118 36q67 0 100.5 -29.5t33.5 -72.5q0 -28 -21 -66t-37.5 -58.5l-47.5 -56.5h127z" />
    <glyph glyph-name="three.denominator" unicode="&#xf658;" 
d="M42 274v69q48 17 98 17q58 0 96.5 -25t38.5 -64q0 -51 -57 -81q68 -28 68 -90q0 -50 -42.5 -77.5t-107.5 -27.5q-54 0 -104 22v77q52 -31 94 -31q23 0 38.5 11.5t15.5 30.5q0 40 -62 46v67q25 1 38.5 11t15 16t1.5 12q0 14 -13 26t-39 12q-24 0 -79 -21z" />
    <glyph glyph-name="four.denominator" unicode="&#xf659;" 
d="M283 360v-212h27v-62h-27v-86h-101v86h-157v62l192 212h66zM182 148v78l-71 -78h71z" />
    <glyph glyph-name="five.denominator" unicode="&#xf65a;" 
d="M277 355v-76h-129v-59q64 2 103.5 -29.5t39.5 -81.5q0 -46 -37.5 -80t-114.5 -34q-63 0 -103 21v72q53 -25 91 -25q28 0 43 14t15 32q0 19 -18.5 32.5t-55.5 13.5q-25 0 -55 -7v207h221z" />
    <glyph glyph-name="six.denominator" unicode="&#xf65b;" 
d="M262 360l-88 -130q30 1 39 -2q35 -15 48 -23.5t26 -29.5q15 -27 15 -58q0 -52 -40 -87t-99 -35q-58 0 -98.5 33.5t-40.5 93.5q0 62 57 139l70 99h111zM204 117q0 17 -10 32t-30 15q-37 0 -37 -50q0 -47 38 -47q39 0 39 50z" />
    <glyph glyph-name="seven.denominator" unicode="&#xf65c;" 
d="M321 357l-149 -362l-91 31l108 255h-147v76h279z" />
    <glyph glyph-name="eight.denominator" unicode="&#xf65d;" 
d="M250 188q58 -28 58 -85q0 -45 -37 -76.5t-105 -31.5q-59 0 -99.5 29t-40.5 78q0 42 31 68q7 7 27 18q-47 26 -47 74q0 43 35 70.5t93 27.5q64 0 98 -30.5t34 -68.5q0 -46 -47 -73zM198 260q0 41 -31 41q-32 0 -32 -44q0 -45 33 -45q30 0 30 48zM205 104q0 23 -10 37.5
t-28 14.5q-16 0 -27.5 -13t-11.5 -38q0 -27 12 -40t28 -13q14 0 25.5 12t11.5 40z" />
    <glyph glyph-name="nine.denominator" unicode="&#xf65e;" 
d="M61 -5l91 129q-58 -6 -95.5 28.5t-37.5 83.5q0 53 40 88.5t99 35.5q57 0 98 -34.5t41 -89.5q0 -63 -55 -141l-71 -100h-110zM195 242q0 19 -10.5 32t-28.5 13t-28.5 -14t-10.5 -34q0 -25 11.5 -37t27.5 -12q15 0 27 12t12 40z" />
    <glyph glyph-name="zero.numerator" unicode="&#xf661;" 
d="M309 510q0 -63 -19 -106q-37 -77 -122 -77q-40 0 -69.5 17t-43 38.5t-21 52t-8.5 44.5t-1 30q0 81 30 124q38 58 112 58q23 0 45.5 -7.5t45.5 -26t37 -56.5t14 -91zM204 513q0 106 -37 106q-22 0 -29.5 -28t-7.5 -86q0 -107 37 -107q12 0 19.5 7.5t12.5 34t5 73.5z" />
    <glyph glyph-name="one.numerator" unicode="&#xf662;" 
d="M219 691v-359h-104v359h104z" />
    <glyph glyph-name="two.numerator" unicode="&#xf663;" 
d="M311 409v-77h-278v13q3 3 20 22l44 51t44 55q48 63 48 103q0 20 -14 33t-34 13q-40 0 -103 -51v85q64 35 118 35q69 0 101.5 -29.5t32.5 -71.5q0 -62 -106 -181h127z" />
    <glyph glyph-name="three.numerator" unicode="&#xf664;" 
d="M42 606v68q45 17 98 17q58 0 96.5 -24.5t38.5 -63.5q0 -51 -57 -81q68 -28 68 -90q0 -49 -42.5 -77t-107.5 -28q-58 0 -104 22v77q50 -32 94 -32q23 0 38.5 11.5t15.5 30.5q0 42 -62 46v67q25 2 38.5 12t15 16t1.5 12q0 14 -12.5 26t-38.5 12q-24 0 -80 -21z" />
    <glyph glyph-name="four.numerator" unicode="&#xf665;" 
d="M283 691v-211h27v-62h-27v-86h-101v86h-157v62l192 211h66zM182 480v78l-71 -78h71z" />
    <glyph glyph-name="five.numerator" unicode="&#xf666;" 
d="M277 686v-77h-129v-59q42 1 72.5 -11t44.5 -31.5t20 -36t6 -31.5q0 -48 -37.5 -81t-114.5 -33q-63 0 -103 21v71q51 -24 91 -24q27 0 42.5 13t15.5 32q0 20 -20 33.5t-54 13.5q-25 0 -55 -7v207h221z" />
    <glyph glyph-name="six.numerator" unicode="&#xf667;" 
d="M262 691l-92 -130q64 5 98 -30.5t34 -81.5q0 -53 -39.5 -87.5t-99.5 -34.5q-58 0 -98.5 33.5t-40.5 93.5q0 61 57 139l70 98h111zM204 447q0 20 -10 34t-30 14q-37 0 -37 -49q0 -48 38 -48q21 0 30 15.5t9 33.5z" />
    <glyph glyph-name="seven.numerator" unicode="&#xf668;" 
d="M321 688l-149 -361l-91 30l108 255h-147v76h279z" />
    <glyph glyph-name="eight.numerator" unicode="&#xf669;" 
d="M250 519q58 -31 58 -84q0 -45 -36.5 -76.5t-105.5 -31.5q-60 0 -100 29t-40 78q0 58 58 85q-47 27 -47 74q0 43 35 70.5t93 27.5q64 0 98 -30t34 -68q0 -48 -47 -74zM198 590q0 43 -31 43q-32 0 -32 -44q0 -46 33 -46q30 0 30 47zM205 434q0 26 -10.5 39.5t-27.5 13.5
q-16 0 -27.5 -12.5t-11.5 -37.5q0 -27 12 -40.5t28 -13.5t26.5 13.5t10.5 37.5z" />
    <glyph glyph-name="nine.numerator" unicode="&#xf66a;" 
d="M61 327l91 129q-59 -6 -96 28.5t-37 83.5q0 53 40 88t99 35q57 0 98 -34t41 -90q0 -62 -55 -140l-71 -100h-110zM195 570q0 49 -39 49q-18 0 -28.5 -14t-10.5 -34q0 -24 11.5 -36.5t27.5 -12.5q18 0 28.5 14t10.5 34z" />
    <glyph glyph-name="abreve.sc" unicode="&#xf66d;" horiz-adv-x="569" 
d="M380 79h-208l-27 -79h-139l194 495h146l217 -495h-151zM202 175h143l-79 189zM72 733h111q12 -39 42 -56.5t63 -17.5q70 0 98 74h110q-3 -17 -9 -36t-22 -47t-37.5 -49t-58 -36.5t-81.5 -15.5q-52 0 -94.5 20t-67 50.5t-38 60t-16.5 53.5z" />
    <glyph glyph-name="amacron.sc" unicode="&#xf66e;" horiz-adv-x="569" 
d="M380 79h-208l-27 -79h-139l194 495h146l217 -495h-151zM202 175h143l-79 189zM504 692v-117h-440v117h440z" />
    <glyph glyph-name="aogonek.sc" unicode="&#xf66f;" horiz-adv-x="569" 
d="M590 -102v-89q-45 -17 -84 -17q-47 0 -81.5 30.5t-34.5 96.5q0 37 22 81l-32 79h-208l-27 -79h-139l194 495h146l217 -495h-61q-14 -32 -14 -54q0 -23 14.5 -36t25.5 -15t21 -2q11 0 41 5zM202 175h143l-79 189z" />
    <glyph glyph-name="aeacute.sc" unicode="&#xf670;" horiz-adv-x="760" 
d="M712 495v-106h-218v-84h208v-106h-208v-93h224v-106h-356v92h-171l-53 -92h-138l303 495h409zM246 198h116v195zM730 738l-208 -189h-101l117 189h192z" />
    <glyph glyph-name="cacute.sc" unicode="&#xf671;" horiz-adv-x="559" 
d="M511 167v-122q-96 -51 -190 -51q-71 0 -127 23t-88.5 60.5t-49 80.5t-16.5 88q0 120 86 187.5t207 67.5q100 0 172 -39v-132q-77 55 -167 55q-70 0 -114.5 -37.5t-44.5 -100.5q0 -64 45 -100.5t110 -36.5q68 0 177 57zM529 738l-208 -189h-101l117 189h192z" />
    <glyph glyph-name="ccaron.sc" unicode="&#xf672;" horiz-adv-x="559" 
d="M511 167v-122q-96 -51 -190 -51q-71 0 -127 23t-88.5 60.5t-49 80.5t-16.5 88q0 120 86 187.5t207 67.5q100 0 172 -39v-132q-77 55 -167 55q-70 0 -114.5 -37.5t-44.5 -100.5q0 -64 45 -100.5t110 -36.5q68 0 177 57zM215 549l-117 170h93l116 -104l114 104h91
l-115 -170h-182z" />
    <glyph glyph-name="ccircumflex.sc" unicode="&#xf673;" horiz-adv-x="559" 
d="M511 167v-122q-96 -51 -190 -51q-71 0 -127 23t-88.5 60.5t-49 80.5t-16.5 88q0 120 86 187.5t207 67.5q100 0 172 -39v-132q-77 55 -167 55q-70 0 -114.5 -37.5t-44.5 -100.5q0 -64 45 -100.5t110 -36.5q68 0 177 57zM399 719l117 -170h-93l-116 103l-114 -103h-91
l115 170h182z" />
    <glyph glyph-name="cdotaccent.sc" unicode="&#xf674;" horiz-adv-x="559" 
d="M511 167v-122q-96 -51 -190 -51q-71 0 -127 23t-88.5 60.5t-49 80.5t-16.5 88q0 120 86 187.5t207 67.5q100 0 172 -39v-132q-77 55 -167 55q-70 0 -114.5 -37.5t-44.5 -100.5q0 -64 45 -100.5t110 -36.5q68 0 177 57zM310 715q33 0 56.5 -23t23.5 -57t-23.5 -57.5
t-56.5 -23.5t-56.5 24t-23.5 57q0 34 23.5 57t56.5 23z" />
    <glyph glyph-name="dcaron.sc" unicode="&#xf675;" horiz-adv-x="580" 
d="M59 0v495h198q124 0 197 -59q43 -34 64.5 -85t21.5 -105q0 -62 -28.5 -119t-89.5 -92q-63 -35 -166 -35h-197zM192 387v-279h60q57 0 93 26q57 39 57 117q0 70 -52 110q-33 26 -97 26h-61zM166 549l-117 170h93l116 -104l114 104h91l-115 -170h-182z" />
    <glyph glyph-name="dcroat.sc" unicode="&#xf676;" horiz-adv-x="580" 
d="M59 206h-59v81h59v208h198q124 0 197 -59q43 -34 64.5 -85t21.5 -105q0 -62 -28.5 -119t-89.5 -92q-63 -35 -166 -35h-197v206zM285 206h-93v-98h60q57 0 93 26q57 39 57 117q0 70 -52 110q-33 26 -97 26h-61v-100h93v-81z" />
    <glyph glyph-name="ebreve.sc" unicode="&#xf677;" horiz-adv-x="467" 
d="M422 106v-106h-361v495h356v-106h-223v-80h213v-106h-213v-97h228zM31 733h111q12 -39 42 -56.5t63 -17.5q70 0 98 74h110q-3 -17 -9 -36t-22 -47t-37.5 -49t-58 -36.5t-81.5 -15.5q-52 0 -94.5 20t-67 50.5t-38 60t-16.5 53.5z" />
    <glyph glyph-name="ecaron.sc" unicode="&#xf678;" horiz-adv-x="467" 
d="M422 106v-106h-361v495h356v-106h-223v-80h213v-106h-213v-97h228zM154 549l-117 170h93l116 -104l114 104h91l-115 -170h-182z" />
    <glyph glyph-name="edotaccent.sc" unicode="&#xf679;" horiz-adv-x="467" 
d="M422 106v-106h-361v495h356v-106h-223v-80h213v-106h-213v-97h228zM252 715q33 0 56.5 -23t23.5 -57t-23.5 -57.5t-56.5 -23.5t-56.5 24t-23.5 57q0 34 23.5 57t56.5 23z" />
    <glyph glyph-name="emacron.sc" unicode="&#xf67a;" horiz-adv-x="467" 
d="M422 106v-106h-361v495h356v-106h-223v-80h213v-106h-213v-97h228zM463 692v-117h-440v117h440z" />
    <glyph glyph-name="eng.sc" unicode="&#xf67b;" horiz-adv-x="601" 
d="M308 -7v100q18 -2 28 -2q40 0 54.5 28t14.5 79v49q0 77 -17 109q-21 41 -71 41q-76 0 -127 -86v-311h-133v495h134v-67q18 20 32.5 33t49 28t75.5 15q24 0 49.5 -6.5t55 -22t51 -49t27.5 -79.5q8 -32 8 -95v-55q0 -108 -41 -156.5t-144 -48.5q-7 0 -22 0.5t-24 0.5z" />
    <glyph glyph-name="eogonek.sc" unicode="&#xf67c;" horiz-adv-x="467" 
d="M422 -102v-89q-43 -17 -87 -17q-49 0 -80.5 32.5t-31.5 93.5q0 45 20 82h-182v495h356v-106h-223v-80h213v-106h-213v-97h228v-106h-89q-13 -32 -13 -50q0 -27 20 -42t43 -15q17 0 39 5z" />
    <glyph glyph-name="gbreve.sc" unicode="&#xf67d;" horiz-adv-x="587" 
d="M522 466v-123q-64 23 -100.5 32.5t-77.5 9.5q-83 0 -123 -39q-42 -41 -42 -102q0 -57 40.5 -95.5t104.5 -38.5q37 0 77 14v45h-71v103h203v-209q-79 -69 -208 -69q-119 0 -201.5 69t-82.5 184t80.5 184.5t211.5 69.5q87 0 189 -35zM91 733h111q12 -39 42 -56.5t63 -17.5
q70 0 98 74h110q-3 -17 -9 -36t-22 -47t-37.5 -49t-58 -36.5t-81.5 -15.5q-52 0 -94.5 20t-67 50.5t-38 60t-16.5 53.5z" />
    <glyph glyph-name="gcircumflex.sc" unicode="&#xf67e;" horiz-adv-x="587" 
d="M522 466v-123q-64 23 -100.5 32.5t-77.5 9.5q-83 0 -123 -39q-42 -41 -42 -102q0 -57 40.5 -95.5t104.5 -38.5q37 0 77 14v45h-71v103h203v-209q-79 -69 -208 -69q-119 0 -201.5 69t-82.5 184t80.5 184.5t211.5 69.5q87 0 189 -35zM401 719l117 -170h-93l-116 103
l-114 -103h-91l115 170h182z" />
    <glyph glyph-name="gcommaaccent.sc" unicode="&#xf67f;" horiz-adv-x="587" 
d="M522 466v-123q-64 23 -100.5 32.5t-77.5 9.5q-83 0 -123 -39q-42 -41 -42 -102q0 -57 40.5 -95.5t104.5 -38.5q37 0 77 14v45h-71v103h203v-209q-79 -69 -208 -69q-119 0 -201.5 69t-82.5 184t80.5 184.5t211.5 69.5q87 0 189 -35zM204 -229v56h29q44 0 59.5 8t15.5 28
q0 7 -3.5 12.5t-10 8.5t-13 5t-16.5 2.5t-15 0.5h-15h-11l5 51q105 0 140 -8q80 -18 80 -83q0 -40 -38.5 -66t-106.5 -26q-63 0 -100 11z" />
    <glyph glyph-name="gdotaccent.sc" unicode="&#xf680;" horiz-adv-x="587" 
d="M522 466v-123q-64 23 -100.5 32.5t-77.5 9.5q-83 0 -123 -39q-42 -41 -42 -102q0 -57 40.5 -95.5t104.5 -38.5q37 0 77 14v45h-71v103h203v-209q-79 -69 -208 -69q-119 0 -201.5 69t-82.5 184t80.5 184.5t211.5 69.5q87 0 189 -35zM319 715q33 0 56.5 -23t23.5 -57
t-23.5 -57.5t-56.5 -23.5t-56.5 24t-23.5 57q0 34 23.5 57t56.5 23z" />
    <glyph glyph-name="hbar.sc" unicode="&#xf681;" horiz-adv-x="601" 
d="M409 444v51h132v-51h50v-99h-50v-345h-132v193h-217v-193h-132v345h-50v99h50v51h132v-51h217zM409 303v42h-217v-42h217z" />
    <glyph glyph-name="hcircumflex.sc" unicode="&#xf682;" horiz-adv-x="601" 
d="M192 303h217v192h132v-495h-132v193h-217v-193h-132v495h132v-192zM390 719l117 -170h-93l-116 103l-114 -103h-91l115 170h182z" />
    <glyph glyph-name="ibreve.sc" unicode="&#xf683;" horiz-adv-x="262" 
d="M197 495v-495h-132v495h132zM-81 733h111q12 -39 42 -56.5t63 -17.5q70 0 98 74h110q-3 -17 -9 -36t-22 -47t-37.5 -49t-58 -36.5t-81.5 -15.5q-52 0 -94.5 20t-67 50.5t-38 60t-16.5 53.5z" />
    <glyph glyph-name="i_j.sc" unicode="&#xf684;" horiz-adv-x="524" 
d="M197 495v-495h-132v495h132zM467 495v-415q0 -24 -1.5 -43.5t-6 -47t-16 -48t-28.5 -40t-46 -30t-67 -10.5q-30 0 -61 11l6 109q19 -8 31 -8q17 0 28 7t16.5 15.5t8.5 27t3.5 30.5t0.5 38v404h132z" />
    <glyph glyph-name="imacron.sc" unicode="&#xf685;" horiz-adv-x="262" 
d="M197 495v-495h-132v495h132zM351 692v-117h-440v117h440z" />
    <glyph glyph-name="iogonek.sc" unicode="&#xf686;" horiz-adv-x="262" 
d="M243 -102v-89q-45 -17 -84 -17q-47 0 -81.5 30.5t-34.5 96.5q0 40 22 81v495h132v-495h-43q-13 -33 -13 -54q0 -23 14.5 -36t25.5 -15t21 -2q11 0 41 5z" />
    <glyph glyph-name="itilde.sc" unicode="&#xf687;" horiz-adv-x="262" 
d="M197 495v-495h-132v495h132zM-15 554h-74q0 60 23 100q34 61 108 61q54 0 118 -35q43 -24 72 -24q39 0 47 58h75q0 -67 -33.5 -113.5t-94.5 -46.5q-55 0 -137 42q-35 18 -59 18q-41 0 -45 -60z" />
    <glyph glyph-name="jcircumflex.sc" unicode="&#xf688;" horiz-adv-x="262" 
d="M204 495v-415q0 -24 -1.5 -43.5t-6 -47t-16 -48t-28.5 -40t-46 -30t-67 -10.5q-30 0 -61 11l6 109q19 -8 31 -8q17 0 28 7t16.5 15.5t8.5 27t3.5 30.5t0.5 38v404h132zM221 719l117 -170h-93l-116 103l-114 -103h-91l115 170h182z" />
    <glyph glyph-name="kcommaaccent.sc" unicode="&#xf689;" horiz-adv-x="550" 
d="M194 288l139 207h143l-156 -228l224 -267h-174l-176 210v-210h-132v495h132v-207zM186 -229v56h29q44 0 59.5 8t15.5 28q0 7 -3.5 12.5t-10 8.5t-13 5t-16.5 2.5t-15 0.5h-15h-11l5 51q105 0 140 -8q80 -18 80 -83q0 -40 -38.5 -66t-106.5 -26q-63 0 -100 11z" />
    <glyph glyph-name="lacute.sc" unicode="&#xf68a;" horiz-adv-x="453" 
d="M432 106v-106h-372v495h133v-389h239zM446 738l-208 -189h-101l117 189h192z" />
    <glyph glyph-name="lcaron.sc" unicode="&#xf68b;" horiz-adv-x="453" 
d="M432 106v-106h-372v495h133v-389h239zM267 266v23q40 43 40 75q0 8 -5 20q-40 20 -40 59q0 24 20 41t46 17q30 0 54 -22t24 -64q0 -54 -39.5 -98.5t-99.5 -50.5z" />
    <glyph glyph-name="lcommaaccent.sc" unicode="&#xf68c;" horiz-adv-x="453" 
d="M432 106v-106h-372v495h133v-389h239zM137 -229v56h29q44 0 59.5 8t15.5 28q0 7 -3.5 12.5t-10 8.5t-13 5t-16.5 2.5t-15 0.5h-15h-11l5 51q105 0 140 -8q80 -18 80 -83q0 -40 -38.5 -66t-106.5 -26q-63 0 -100 11z" />
    <glyph glyph-name="ldot.sc" unicode="&#xf68d;" horiz-adv-x="453" 
d="M432 106v-106h-372v495h133v-389h239zM325 387q32 0 54.5 -22t22.5 -54q0 -31 -22.5 -53.5t-54.5 -22.5q-31 0 -53.5 22.5t-22.5 53.5q0 32 22.5 54t53.5 22z" />
    <glyph glyph-name="nacute.sc" unicode="&#xf68e;" horiz-adv-x="609" 
d="M548 495v-495h-110l-244 280v-280h-133v495h119l235 -266v266h133zM524 738l-208 -189h-101l117 189h192z" />
    <glyph glyph-name="ncaron.sc" unicode="&#xf68f;" horiz-adv-x="609" 
d="M548 495v-495h-110l-244 280v-280h-133v495h119l235 -266v266h133zM215 549l-117 170h93l116 -104l114 104h91l-115 -170h-182z" />
    <glyph glyph-name="ncommaaccent.sc" unicode="&#xf690;" horiz-adv-x="609" 
d="M548 495v-495h-110l-244 280v-280h-133v495h119l235 -266v266h133zM215 -229v56h29q44 0 59.5 8t15.5 28q0 7 -3.5 12.5t-10 8.5t-13 5t-16.5 2.5t-15 0.5h-15h-11l5 51q105 0 140 -8q80 -18 80 -83q0 -40 -38.5 -66t-106.5 -26q-63 0 -100 11z" />
    <glyph glyph-name="obreve.sc" unicode="&#xf691;" horiz-adv-x="630" 
d="M590 246q0 -103 -78.5 -177.5t-196.5 -74.5q-116 0 -195.5 72.5t-79.5 178.5q0 104 79 180t195 76q69 0 131 -29.5t103.5 -89t41.5 -136.5zM451 244q0 70 -42.5 105.5t-91.5 35.5q-54 0 -96 -39t-42 -100q0 -59 40 -97.5t98 -38.5q59 0 96.5 40t37.5 94zM103 733h111
q12 -39 42 -56.5t63 -17.5q70 0 98 74h110q-3 -17 -9 -36t-22 -47t-37.5 -49t-58 -36.5t-81.5 -15.5q-52 0 -94.5 20t-67 50.5t-38 60t-16.5 53.5z" />
    <glyph glyph-name="ohungarumlaut.sc" unicode="&#xf692;" horiz-adv-x="630" 
d="M590 246q0 -103 -78.5 -177.5t-196.5 -74.5q-116 0 -195.5 72.5t-79.5 178.5q0 104 79 180t195 76q69 0 131 -29.5t103.5 -89t41.5 -136.5zM451 244q0 70 -42.5 105.5t-91.5 35.5q-54 0 -96 -39t-42 -100q0 -59 40 -97.5t98 -38.5q59 0 96.5 40t37.5 94zM368 738
l-148 -189h-89l76 189h161zM573 738l-147 -189h-90l77 189h160z" />
    <glyph glyph-name="omacron.sc" unicode="&#xf693;" horiz-adv-x="630" 
d="M590 246q0 -103 -78.5 -177.5t-196.5 -74.5q-116 0 -195.5 72.5t-79.5 178.5q0 104 79 180t195 76q69 0 131 -29.5t103.5 -89t41.5 -136.5zM451 244q0 70 -42.5 105.5t-91.5 35.5q-54 0 -96 -39t-42 -100q0 -59 40 -97.5t98 -38.5q59 0 96.5 40t37.5 94zM535 692v-117
h-440v117h440z" />
    <glyph glyph-name="oslashacute.sc" unicode="&#xf694;" horiz-adv-x="630" 
d="M205 14l-15 -20h-94l41 58q-32 26 -48 47q-49 65 -49 146q0 104 78.5 180t195.5 76q60 0 122 -26l18 26h94l-47 -66q33 -29 48 -52q41 -61 41 -134q0 -107 -79 -181t-197 -74q-59 0 -109 20zM426 329l-150 -213q18 -6 40 -6q59 0 97 39t38 99q0 53 -25 81zM211 157
l154 219q-25 9 -48 9q-55 0 -96.5 -39.5t-41.5 -99.5q0 -51 32 -89zM535 738l-208 -189h-101l117 189h192z" />
    <glyph glyph-name="racute.sc" unicode="&#xf695;" horiz-adv-x="497" 
d="M60 495h161q80 0 120 -9.5t68 -35.5q43 -41 43 -100q0 -86 -75 -128q21 -19 32 -38.5t35 -79.5q17 -41 47 -104h-147q-41 121 -60 153.5t-57 32.5h-34v-186h-133v495zM238 395h-45v-109h42q78 0 78 54q0 55 -75 55zM468 738l-208 -189h-101l117 189h192z" />
    <glyph glyph-name="rcaron.sc" unicode="&#xf696;" horiz-adv-x="497" 
d="M60 495h161q80 0 120 -9.5t68 -35.5q43 -41 43 -100q0 -86 -75 -128q21 -19 32 -38.5t35 -79.5q17 -41 47 -104h-147q-41 121 -60 153.5t-57 32.5h-34v-186h-133v495zM238 395h-45v-109h42q78 0 78 54q0 55 -75 55zM149 549l-117 170h93l116 -104l114 104h91l-115 -170
h-182z" />
    <glyph glyph-name="rcommaaccent.sc" unicode="&#xf697;" horiz-adv-x="497" 
d="M60 495h161q80 0 120 -9.5t68 -35.5q43 -41 43 -100q0 -86 -75 -128q21 -19 32 -38.5t35 -79.5q17 -41 47 -104h-147q-41 121 -60 153.5t-57 32.5h-34v-186h-133v495zM238 395h-45v-109h42q78 0 78 54q0 55 -75 55zM159 -229v56h29q44 0 59.5 8t15.5 28q0 7 -3.5 12.5
t-10 8.5t-13 5t-16.5 2.5t-15 0.5h-15h-11l5 51q105 0 140 -8q80 -18 80 -83q0 -40 -38.5 -66t-106.5 -26q-63 0 -100 11z" />
    <glyph glyph-name="sacute.sc" unicode="&#xf698;" horiz-adv-x="446" 
d="M390 467v-118q-104 46 -159 46q-26 0 -43.5 -9.5t-17.5 -27.5q0 -25 59 -48q37 -14 47 -17q62 -22 98.5 -55t36.5 -95q0 -40 -19 -71t-49 -47t-60.5 -23.5t-60.5 -7.5q-91 0 -175 38v125q54 -30 91 -43.5t77 -13.5q11 0 23 1.5t26 10.5t14 24q0 16 -13.5 25t-80.5 37
q-36 15 -54.5 24.5t-43.5 28.5t-36 45t-11 61q0 60 48 102t137 42q79 0 166 -34zM458 738l-208 -189h-101l117 189h192z" />
    <glyph glyph-name="scedilla.sc" unicode="&#xf699;" horiz-adv-x="446" 
d="M270 -2l-11 -23q82 -26 82 -81q0 -37 -34 -65t-110 -28q-69 0 -101 11v56q29 0 42 0.5t30 3.5t23.5 10.5t6.5 19.5q0 11 -8.5 18t-18 9t-27.5 5l43 61q-73 8 -140 37v125q54 -30 91 -43.5t77 -13.5q11 0 23 1.5t26 10.5t14 24q0 16 -13.5 25t-80.5 37q-36 15 -54.5 24.5
t-43.5 28.5t-36 45t-11 61q0 60 48 102t137 42q79 0 166 -34v-118q-104 46 -159 46q-26 0 -43.5 -9.5t-17.5 -27.5q0 -25 59 -48q37 -14 47 -17q62 -22 98.5 -55t36.5 -95q0 -33 -13 -59t-28 -40t-40 -25.5t-34.5 -14z" />
    <glyph glyph-name="scircumflex.sc" unicode="&#xf69a;" horiz-adv-x="446" 
d="M390 467v-118q-104 46 -159 46q-26 0 -43.5 -9.5t-17.5 -27.5q0 -25 59 -48q37 -14 47 -17q62 -22 98.5 -55t36.5 -95q0 -40 -19 -71t-49 -47t-60.5 -23.5t-60.5 -7.5q-91 0 -175 38v125q54 -30 91 -43.5t77 -13.5q11 0 23 1.5t26 10.5t14 24q0 16 -13.5 25t-80.5 37
q-36 15 -54.5 24.5t-43.5 28.5t-36 45t-11 61q0 60 48 102t137 42q79 0 166 -34zM313 719l117 -170h-93l-116 103l-114 -103h-91l115 170h182z" />
    <glyph glyph-name="scommaaccent.sc" unicode="&#xf69b;" horiz-adv-x="446" 
d="M390 467v-118q-104 46 -159 46q-26 0 -43.5 -9.5t-17.5 -27.5q0 -25 59 -48q37 -14 47 -17q62 -22 98.5 -55t36.5 -95q0 -40 -19 -71t-49 -47t-60.5 -23.5t-60.5 -7.5q-91 0 -175 38v125q54 -30 91 -43.5t77 -13.5q11 0 23 1.5t26 10.5t14 24q0 16 -13.5 25t-80.5 37
q-36 15 -54.5 24.5t-43.5 28.5t-36 45t-11 61q0 60 48 102t137 42q79 0 166 -34zM134 -229v56h29q44 0 59.5 8t15.5 28q0 7 -3.5 12.5t-10 8.5t-13 5t-16.5 2.5t-15 0.5h-15h-11l5 51q105 0 140 -8q80 -18 80 -83q0 -40 -38.5 -66t-106.5 -26q-63 0 -100 11z" />
    <glyph glyph-name="tbar.sc" unicode="&#xf69c;" horiz-adv-x="524" 
d="M328 169v-169h-132v169h-151v95h151v121h-170v110h472v-110h-170v-121h151v-95h-151z" />
    <glyph glyph-name="tcaron.sc" unicode="&#xf69d;" horiz-adv-x="524" 
d="M498 495v-110h-170v-385h-132v385h-170v110h472zM173 549l-117 170h93l116 -104l114 104h91l-115 -170h-182z" />
    <glyph glyph-name="tcommaaccent.sc" unicode="&#xf69e;" horiz-adv-x="524" 
d="M498 495v-110h-170v-385h-132v385h-170v110h472zM173 -229v56h29q44 0 59.5 8t15.5 28q0 7 -3.5 12.5t-10 8.5t-13 5t-16.5 2.5t-15 0.5h-15h-11l5 51q105 0 140 -8q80 -18 80 -83q0 -40 -38.5 -66t-106.5 -26q-63 0 -100 11z" />
    <glyph glyph-name="ubreve.sc" unicode="&#xf69f;" horiz-adv-x="595" 
d="M539 495v-268q0 -101 -42 -153q-64 -80 -202 -80q-112 0 -180 62q-59 55 -59 167v272h132v-245q0 -77 36 -110q32 -30 76 -30q28 0 52.5 12.5t35.5 31.5q19 34 19 96v245h132zM85 733h111q12 -39 42 -56.5t63 -17.5q70 0 98 74h110q-3 -17 -9 -36t-22 -47t-37.5 -49
t-58 -36.5t-81.5 -15.5q-52 0 -94.5 20t-67 50.5t-38 60t-16.5 53.5z" />
    <glyph glyph-name="uhungarumlaut.sc" unicode="&#xf6a0;" horiz-adv-x="595" 
d="M539 495v-268q0 -101 -42 -153q-64 -80 -202 -80q-112 0 -180 62q-59 55 -59 167v272h132v-245q0 -77 36 -110q32 -30 76 -30q28 0 52.5 12.5t35.5 31.5q19 34 19 96v245h132zM350 738l-148 -189h-89l76 189h161zM555 738l-147 -189h-90l77 189h160z" />
    <glyph glyph-name="umacron.sc" unicode="&#xf6a1;" horiz-adv-x="595" 
d="M539 495v-268q0 -101 -42 -153q-64 -80 -202 -80q-112 0 -180 62q-59 55 -59 167v272h132v-245q0 -77 36 -110q32 -30 76 -30q28 0 52.5 12.5t35.5 31.5q19 34 19 96v245h132zM517 692v-117h-440v117h440z" />
    <glyph glyph-name="uogonek.sc" unicode="&#xf6a2;" horiz-adv-x="595" 
d="M481 -101v-89q-44 -17 -84 -17q-54 0 -86.5 33.5t-32.5 89.5q0 36 21 78q-116 0 -184 62q-59 55 -59 167v272h132v-245q0 -59 21 -93q31 -47 91 -47q28 0 52.5 12.5t35.5 31.5q19 34 19 96v245h132v-268q0 -26 -1 -43.5t-9 -46.5t-21.5 -49.5t-42 -43t-67.5 -36.5
q-20 -26 -20 -64q0 -25 19.5 -37.5t42.5 -12.5q21 0 41 5z" />
    <glyph glyph-name="uring.sc" unicode="&#xf6a3;" horiz-adv-x="595" 
d="M539 495v-268q0 -101 -42 -153q-64 -80 -202 -80q-112 0 -180 62q-59 55 -59 167v272h132v-245q0 -77 36 -110q32 -30 76 -30q28 0 52.5 12.5t35.5 31.5q19 34 19 96v245h132zM298 777q46 0 80 -33.5t34 -80.5q0 -48 -33.5 -81t-80.5 -33t-80.5 33t-33.5 81t33.5 81
t80.5 33zM298 724q-26 0 -43.5 -18t-17.5 -43q0 -26 17.5 -44t43.5 -18q25 0 43 18t18 44q0 25 -18 43t-43 18z" />
    <glyph glyph-name="utilde.sc" unicode="&#xf6a4;" horiz-adv-x="595" 
d="M539 495v-268q0 -101 -42 -153q-64 -80 -202 -80q-112 0 -180 62q-59 55 -59 167v272h132v-245q0 -77 36 -110q32 -30 76 -30q28 0 52.5 12.5t35.5 31.5q19 34 19 96v245h132zM151 554h-74q0 60 23 100q34 61 108 61q54 0 118 -35q43 -24 72 -24q39 0 47 58h75
q0 -67 -33.5 -113.5t-94.5 -46.5q-55 0 -137 42q-35 18 -59 18q-41 0 -45 -60z" />
    <glyph glyph-name="wacute.sc" unicode="&#xf6a5;" horiz-adv-x="850" 
d="M380 495h91l115 -255l115 255h143l-227 -501h-62l-130 286l-130 -286h-62l-227 501h143l115 -255zM645 738l-208 -189h-101l117 189h192z" />
    <glyph glyph-name="wcircumflex.sc" unicode="&#xf6a6;" horiz-adv-x="850" 
d="M380 495h91l115 -255l115 255h143l-227 -501h-62l-130 286l-130 -286h-62l-227 501h143l115 -255zM515 719l117 -170h-93l-116 103l-114 -103h-91l115 170h182z" />
    <glyph glyph-name="wdieresis.sc" unicode="&#xf6a7;" horiz-adv-x="850" 
d="M380 495h91l115 -255l115 255h143l-227 -501h-62l-130 286l-130 -286h-62l-227 501h143l115 -255zM567 714q33 0 56.5 -23.5t23.5 -56.5t-23.5 -56.5t-56.5 -23.5t-56.5 23.5t-23.5 56.5t23.5 56.5t56.5 23.5zM283 714q33 0 56.5 -23.5t23.5 -56.5t-23.5 -56.5
t-56.5 -23.5t-56.5 23.5t-23.5 56.5t23.5 56.5t56.5 23.5z" />
    <glyph glyph-name="wgrave.sc" unicode="&#xf6a8;" horiz-adv-x="850" 
d="M380 495h91l115 -255l115 255h143l-227 -501h-62l-130 286l-130 -286h-62l-227 501h143l115 -255zM209 738h192l117 -189h-101z" />
    <glyph glyph-name="ycircumflex.sc" unicode="&#xf6a9;" horiz-adv-x="517" 
d="M517 495l-191 -289v-206h-135v206l-191 289h144l114 -171l115 171h144zM353 719l117 -170h-93l-116 103l-114 -103h-91l115 170h182z" />
    <glyph glyph-name="ygrave.sc" unicode="&#xf6aa;" horiz-adv-x="517" 
d="M517 495l-191 -289v-206h-135v206l-191 289h144l114 -171l115 171h144zM42 738h192l117 -189h-101z" />
    <glyph glyph-name="zacute.sc" unicode="&#xf6ab;" horiz-adv-x="514" 
d="M489 495l-262 -388h264v-107h-485l267 388h-242v107h458zM487 738l-208 -189h-101l117 189h192z" />
    <glyph glyph-name="zdotaccent.sc" unicode="&#xf6ac;" horiz-adv-x="514" 
d="M489 495l-262 -388h264v-107h-485l267 388h-242v107h458zM258 715q33 0 56.5 -23t23.5 -57t-23.5 -57.5t-56.5 -23.5t-56.5 24t-23.5 57q0 34 23.5 57t56.5 23z" />
    <glyph glyph-name="idotaccent.sc" unicode="&#xf6ad;" horiz-adv-x="262" 
d="M197 495v-495h-132v495h132zM132 715q33 0 56.5 -23t23.5 -57t-23.5 -57.5t-56.5 -23.5t-56.5 24t-23.5 57q0 34 23.5 57t56.5 23z" />
    <glyph glyph-name="one.fitted" unicode="&#xf6dc;" horiz-adv-x="306" 
d="M231 691v-691h-156v691h156z" />
    <glyph glyph-name="lslash.sc" unicode="&#xf6f9;" horiz-adv-x="453" 
d="M60 110l-60 -46v107l60 45v279h133v-189l128 104v-109l-128 -103v-92h239v-106h-372v110z" />
    <glyph glyph-name="oe.sc" unicode="&#xf6fa;" horiz-adv-x="779" 
d="M729 495v-106h-218v-80h209v-106h-209v-97h223v-106h-408q-164 0 -236 94q-49 65 -49 156q0 122 86 189q72 56 248 56h354zM379 107v281h-33q-78 0 -122.5 -35.5t-44.5 -104.5q0 -54 38.5 -97.5t124.5 -43.5h37z" />
    <glyph glyph-name="scaron.sc" unicode="&#xf6fd;" horiz-adv-x="446" 
d="M390 467v-118q-104 46 -159 46q-26 0 -43.5 -9.5t-17.5 -27.5q0 -25 59 -48q37 -14 47 -17q62 -22 98.5 -55t36.5 -95q0 -40 -19 -71t-49 -47t-60.5 -23.5t-60.5 -7.5q-91 0 -175 38v125q54 -30 91 -43.5t77 -13.5q11 0 23 1.5t26 10.5t14 24q0 16 -13.5 25t-80.5 37
q-36 15 -54.5 24.5t-43.5 28.5t-36 45t-11 61q0 60 48 102t137 42q79 0 166 -34zM134 549l-117 170h93l116 -104l114 104h91l-115 -170h-182z" />
    <glyph glyph-name="zcaron.sc" unicode="&#xf6ff;" horiz-adv-x="514" 
d="M489 495l-262 -388h264v-107h-485l267 388h-242v107h458zM168 549l-117 170h93l116 -104l114 104h91l-115 -170h-182z" />
    <glyph glyph-name="ampersand.sc" unicode="&#xf726;" horiz-adv-x="545" 
d="M423 116l108 -116h-165l-37 41q-63 -47 -135 -47q-65 0 -112 37.5t-47 95.5q0 28 11 51t32 40.5t32.5 25t30.5 17.5q-44 60 -44 109q0 53 41 92t110 39q68 0 106 -36.5t38 -83.5q0 -29 -16.5 -54.5t-32 -37.5t-40.5 -28l57 -72q29 37 46 76h119q-27 -57 -45 -83.5
t-57 -65.5zM247 318q38 26 38 56q0 12 -9.5 24t-26.5 12q-14 0 -25 -9t-11 -23q0 -21 34 -60zM269 110l-76 86q-37 -30 -37 -58q0 -20 15.5 -34t37.5 -14q27 0 60 20z" />
    <glyph glyph-name="zero.oldstyle" unicode="&#xf730;" horiz-adv-x="526" 
d="M263 124q11 0 24 4.5t28 15t25 33.5t10 54q0 58 -29.5 82t-57.5 24q-37 0 -62 -30q-25 -29 -25 -81q0 -50 28 -76t59 -26zM497 230q0 -53 -15.5 -95t-39.5 -68.5t-55.5 -44t-62 -24.5t-60.5 -7q-98 0 -166.5 64t-68.5 173q0 107 68 174.5t168 67.5q39 0 78 -13t74.5 -40
t57.5 -75.5t22 -111.5z" />
    <glyph glyph-name="one.oldstyle" unicode="&#xf731;" horiz-adv-x="411" 
d="M311 0h-147v290l-129 -103v140l163 143h113v-470z" />
    <glyph glyph-name="two.oldstyle" unicode="&#xf732;" horiz-adv-x="510" 
d="M463 130v-130h-428v20l120 99q60 50 91 87.5t35 51.5t4 32t-8 29.5t-21 15.5t-19.5 5t-12.5 1q-61 0 -171 -70v140q45 20 69.5 29.5t66 19.5t82.5 10q79 0 125.5 -36t46.5 -107q0 -59 -30.5 -103.5t-87.5 -93.5h138z" />
    <glyph glyph-name="three.oldstyle" unicode="&#xf733;" horiz-adv-x="465" 
d="M441 461l-150 -302q55 -13 87 -42q58 -54 58 -131q0 -87 -71 -151.5t-172 -64.5q-78 0 -166 39v132q78 -52 144 -52q55 0 80.5 30t25.5 65q0 41 -31.5 69.5t-84.5 28.5q-6 0 -49 -5l118 248l-201 -1v137h412z" />
    <glyph glyph-name="four.oldstyle" unicode="&#xf734;" horiz-adv-x="531" 
d="M301 0h-298v66l356 404h81v-373h88v-97h-88v-221h-139v221zM155 97h149v177z" />
    <glyph glyph-name="five.oldstyle" unicode="&#xf735;" horiz-adv-x="471" 
d="M459 461l1 -136l-228 -1l-21 -141q94 -8 145 -41q38 -25 60 -66t22 -87q0 -38 -13 -74.5t-40 -70t-76 -54t-114 -20.5q-85 0 -169 36v133q95 -50 155 -50q46 0 73 22t27 58q0 42 -36.5 70t-112.5 28q-25 0 -63 -4l63 398h327z" />
    <glyph glyph-name="six.oldstyle" unicode="&#xf736;" horiz-adv-x="510" 
d="M264 691l115 -58q-52 -64 -81 -104.5t-38.5 -57t-24.5 -47.5q36 15 69 15q73 0 125 -57t52 -151q0 -108 -64 -174t-164 -66t-162 66t-62 178q0 106 55 206t180 250zM334 220q0 42 -20 71t-57 29q-33 0 -53.5 -26.5t-20.5 -76.5t21 -74.5t54 -24.5q38 0 57 30t19 72z" />
    <glyph glyph-name="seven.oldstyle" unicode="&#xf737;" horiz-adv-x="494" 
d="M483 461v-8l-249 -683l-136 52l183 502h-252v137h454z" />
    <glyph glyph-name="eight.oldstyle" unicode="&#xf738;" horiz-adv-x="516" 
d="M373 360q114 -52 114 -167q0 -32 -11 -64t-35 -64.5t-72 -53t-113 -20.5q-100 0 -163.5 56.5t-63.5 144.5q0 122 116 168q-19 11 -30.5 19.5t-29.5 26t-27 43.5t-9 59q0 74 53 128.5t154 54.5q56 0 99 -18t66.5 -46.5t35 -59t11.5 -61.5q0 -70 -47 -113q-14 -13 -48 -33z
M322 499q0 90 -65 90q-32 0 -48 -28q-15 -26 -15 -64q0 -10 1.5 -21t7 -30.5t20.5 -31.5t37 -12q5 0 9.5 0.5t15 6t18 14.5t13.5 29t6 47zM333 195q0 57 -21.5 83.5t-52.5 26.5q-5 0 -10.5 -0.5t-18.5 -6.5t-22.5 -16t-17 -31.5t-7.5 -51.5q0 -57 23.5 -83.5t53.5 -26.5
t51.5 26t21.5 80z" />
    <glyph glyph-name="nine.oldstyle" unicode="&#xf739;" horiz-adv-x="510" 
d="M247 -230l-115 57q74 93 98.5 130.5t44.5 79.5q-37 -16 -69 -16q-73 0 -125 57.5t-52 151.5q0 108 64.5 174t164.5 66t161.5 -66t61.5 -178q0 -106 -55 -206t-179 -250zM177 241q0 -42 20 -71.5t56 -29.5q33 0 53.5 26.5t20.5 77.5q0 50 -21 74.5t-54 24.5
q-38 0 -56.5 -30t-18.5 -72z" />
    <glyph glyph-name="a.sc" unicode="&#xf761;" horiz-adv-x="569" 
d="M380 79h-208l-27 -79h-139l194 495h146l217 -495h-151zM202 175h143l-79 189z" />
    <glyph glyph-name="b.sc" unicode="&#xf762;" horiz-adv-x="519" 
d="M60 0v495h186q107 0 148 -25q24 -14 38.5 -40.5t14.5 -56.5q0 -32 -15 -56t-27 -32.5t-32 -18.5q36 -6 60 -23t32.5 -39.5t11 -35.5t2.5 -24q0 -71 -53 -107q-33 -22 -62 -29.5t-81 -7.5h-223zM193 395v-96h41q23 0 36.5 1.5t28.5 13t15 34.5q0 22 -15 33t-28 12.5
t-35 1.5h-43zM193 202v-102h57q21 0 32.5 1t28 5t24.5 15.5t8 29.5q0 24 -18 36t-35.5 13.5t-50.5 1.5h-46z" />
    <glyph glyph-name="c.sc" unicode="&#xf763;" horiz-adv-x="559" 
d="M511 167v-122q-96 -51 -190 -51q-71 0 -127 23t-88.5 60.5t-49 80.5t-16.5 88q0 120 86 187.5t207 67.5q100 0 172 -39v-132q-77 55 -167 55q-70 0 -114.5 -37.5t-44.5 -100.5q0 -64 45 -100.5t110 -36.5q68 0 177 57z" />
    <glyph glyph-name="d.sc" unicode="&#xf764;" horiz-adv-x="580" 
d="M59 0v495h198q124 0 197 -59q43 -34 64.5 -85t21.5 -105q0 -62 -28.5 -119t-89.5 -92q-63 -35 -166 -35h-197zM192 387v-279h60q57 0 93 26q57 39 57 117q0 70 -52 110q-33 26 -97 26h-61z" />
    <glyph glyph-name="e.sc" unicode="&#xf765;" horiz-adv-x="467" 
d="M422 106v-106h-361v495h356v-106h-223v-80h213v-106h-213v-97h228z" />
    <glyph glyph-name="f.sc" unicode="&#xf766;" horiz-adv-x="446" 
d="M398 495v-106h-205v-86h205v-106h-205v-197h-133v495h338z" />
    <glyph glyph-name="g.sc" unicode="&#xf767;" horiz-adv-x="587" 
d="M522 466v-123q-64 23 -100.5 32.5t-77.5 9.5q-83 0 -123 -39q-42 -41 -42 -102q0 -57 40.5 -95.5t104.5 -38.5q37 0 77 14v45h-71v103h203v-209q-79 -69 -208 -69q-119 0 -201.5 69t-82.5 184t80.5 184.5t211.5 69.5q87 0 189 -35z" />
    <glyph glyph-name="h.sc" unicode="&#xf768;" horiz-adv-x="601" 
d="M192 303h217v192h132v-495h-132v193h-217v-193h-132v495h132v-192z" />
    <glyph glyph-name="i.sc" unicode="&#xf769;" horiz-adv-x="262" 
d="M197 495v-495h-132v495h132z" />
    <glyph glyph-name="j.sc" unicode="&#xf76a;" horiz-adv-x="262" 
d="M204 495v-415q0 -24 -1.5 -43.5t-6 -47t-16 -48t-28.5 -40t-46 -30t-67 -10.5q-30 0 -61 11l6 109q19 -8 31 -8q17 0 28 7t16.5 15.5t8.5 27t3.5 30.5t0.5 38v404h132z" />
    <glyph glyph-name="k.sc" unicode="&#xf76b;" horiz-adv-x="550" 
d="M194 288l139 207h143l-156 -228l224 -267h-174l-176 210v-210h-132v495h132v-207z" />
    <glyph glyph-name="l.sc" unicode="&#xf76c;" horiz-adv-x="453" 
d="M432 106v-106h-372v495h133v-389h239z" />
    <glyph glyph-name="m.sc" unicode="&#xf76d;" horiz-adv-x="673" 
d="M515 495h98v-495h-133v285l-131 -159h-26l-131 159v-285h-132v495h97l179 -204z" />
    <glyph glyph-name="n.sc" unicode="&#xf76e;" horiz-adv-x="609" 
d="M548 495v-495h-110l-244 280v-280h-133v495h119l235 -266v266h133z" />
    <glyph glyph-name="o.sc" unicode="&#xf76f;" horiz-adv-x="630" 
d="M590 246q0 -103 -78.5 -177.5t-196.5 -74.5q-116 0 -195.5 72.5t-79.5 178.5q0 104 79 180t195 76q69 0 131 -29.5t103.5 -89t41.5 -136.5zM451 244q0 70 -42.5 105.5t-91.5 35.5q-54 0 -96 -39t-42 -100q0 -59 40 -97.5t98 -38.5q59 0 96.5 40t37.5 94z" />
    <glyph glyph-name="p.sc" unicode="&#xf770;" horiz-adv-x="481" 
d="M60 495h199q32 0 51.5 -2t49.5 -15.5t51 -38.5q36 -41 36 -96q0 -67 -52 -117q-43 -40 -140 -40h-62v-186h-133v495zM245 395h-52v-109h49q14 0 22.5 1t22 6t20.5 18t7 33q0 51 -69 51z" />
    <glyph glyph-name="q.sc" unicode="&#xf771;" horiz-adv-x="630" 
d="M593 -47l-93 -81q-89 19 -145.5 46.5t-119.5 82.5q-55 16 -95.5 46t-60.5 65.5t-29 68.5t-9 64q0 108 83.5 182t195.5 74q114 0 192 -75.5t78 -178.5q0 -19 -4 -41.5t-18.5 -61t-52 -75t-94.5 -59.5q78 -38 172 -57zM451 245q0 72 -41.5 106t-91.5 34q-60 0 -99 -41
t-39 -99q0 -59 40.5 -98t96.5 -39q65 0 99.5 44.5t34.5 92.5z" />
    <glyph glyph-name="r.sc" unicode="&#xf772;" horiz-adv-x="497" 
d="M60 495h161q80 0 120 -9.5t68 -35.5q43 -41 43 -100q0 -86 -75 -128q21 -19 32 -38.5t35 -79.5q17 -41 47 -104h-147q-41 121 -60 153.5t-57 32.5h-34v-186h-133v495zM238 395h-45v-109h42q78 0 78 54q0 55 -75 55z" />
    <glyph glyph-name="s.sc" unicode="&#xf773;" horiz-adv-x="446" 
d="M390 467v-118q-104 46 -159 46q-26 0 -43.5 -9.5t-17.5 -27.5q0 -25 59 -48q37 -14 47 -17q62 -22 98.5 -55t36.5 -95q0 -40 -19 -71t-49 -47t-60.5 -23.5t-60.5 -7.5q-91 0 -175 38v125q54 -30 91 -43.5t77 -13.5q11 0 23 1.5t26 10.5t14 24q0 16 -13.5 25t-80.5 37
q-36 15 -54.5 24.5t-43.5 28.5t-36 45t-11 61q0 60 48 102t137 42q79 0 166 -34z" />
    <glyph glyph-name="t.sc" unicode="&#xf774;" horiz-adv-x="524" 
d="M498 495v-110h-170v-385h-132v385h-170v110h472z" />
    <glyph glyph-name="u.sc" unicode="&#xf775;" horiz-adv-x="595" 
d="M539 495v-268q0 -101 -42 -153q-64 -80 -202 -80q-112 0 -180 62q-59 55 -59 167v272h132v-245q0 -77 36 -110q32 -30 76 -30q28 0 52.5 12.5t35.5 31.5q19 34 19 96v245h132z" />
    <glyph glyph-name="v.sc" unicode="&#xf776;" horiz-adv-x="529" 
d="M264 240l116 255h143l-228 -501h-62l-227 501h143z" />
    <glyph glyph-name="w.sc" unicode="&#xf777;" horiz-adv-x="850" 
d="M380 495h91l115 -255l115 255h143l-227 -501h-62l-130 286l-130 -286h-62l-227 501h143l115 -255z" />
    <glyph glyph-name="x.sc" unicode="&#xf778;" horiz-adv-x="595" 
d="M217 257l-196 238h161l116 -140l115 140h161l-196 -238l212 -257h-161l-131 159l-131 -159h-161z" />
    <glyph glyph-name="y.sc" unicode="&#xf779;" horiz-adv-x="517" 
d="M517 495l-191 -289v-206h-135v206l-191 289h144l114 -171l115 171h144z" />
    <glyph glyph-name="z.sc" unicode="&#xf77a;" horiz-adv-x="514" 
d="M489 495l-262 -388h264v-107h-485l267 388h-242v107h458z" />
    <glyph glyph-name="agrave.sc" unicode="&#xf7e0;" horiz-adv-x="569" 
d="M380 79h-208l-27 -79h-139l194 495h146l217 -495h-151zM202 175h143l-79 189zM63 738h192l117 -189h-101z" />
    <glyph glyph-name="aacute.sc" unicode="&#xf7e1;" horiz-adv-x="569" 
d="M380 79h-208l-27 -79h-139l194 495h146l217 -495h-151zM202 175h143l-79 189zM499 738l-208 -189h-101l117 189h192z" />
    <glyph glyph-name="acircumflex.sc" unicode="&#xf7e2;" horiz-adv-x="569" 
d="M380 79h-208l-27 -79h-139l194 495h146l217 -495h-151zM202 175h143l-79 189zM369 719l117 -170h-93l-116 103l-114 -103h-91l115 170h182z" />
    <glyph glyph-name="atilde.sc" unicode="&#xf7e3;" horiz-adv-x="569" 
d="M380 79h-208l-27 -79h-139l194 495h146l217 -495h-151zM202 175h143l-79 189zM133 554h-74q0 60 23 100q34 61 108 61q54 0 118 -35q43 -24 72 -24q39 0 47 58h75q0 -67 -33.5 -113.5t-94.5 -46.5q-55 0 -137 42q-35 18 -59 18q-41 0 -45 -60z" />
    <glyph glyph-name="adieresis.sc" unicode="&#xf7e4;" horiz-adv-x="569" 
d="M380 79h-208l-27 -79h-139l194 495h146l217 -495h-151zM202 175h143l-79 189zM421 714q33 0 56.5 -23.5t23.5 -56.5t-23.5 -56.5t-56.5 -23.5t-56.5 23.5t-23.5 56.5t23.5 56.5t56.5 23.5zM137 714q33 0 56.5 -23.5t23.5 -56.5t-23.5 -56.5t-56.5 -23.5t-56.5 23.5
t-23.5 56.5t23.5 56.5t56.5 23.5z" />
    <glyph glyph-name="aring.sc" unicode="&#xf7e5;" horiz-adv-x="569" 
d="M380 79h-208l-27 -79h-139l194 495h146l217 -495h-151zM202 175h143l-79 189zM280 777q46 0 80 -33.5t34 -80.5q0 -48 -33.5 -81t-80.5 -33t-80.5 33t-33.5 81t33.5 81t80.5 33zM280 724q-26 0 -43.5 -18t-17.5 -43q0 -26 17.5 -44t43.5 -18q25 0 43 18t18 44
q0 25 -18 43t-43 18z" />
    <glyph glyph-name="ae.sc" unicode="&#xf7e6;" horiz-adv-x="760" 
d="M712 495v-106h-218v-84h208v-106h-208v-93h224v-106h-356v92h-171l-53 -92h-138l303 495h409zM246 198h116v195z" />
    <glyph glyph-name="ccedilla.sc" unicode="&#xf7e7;" horiz-adv-x="559" 
d="M336 -6l-6 -17q18 -6 28.5 -11.5t22 -21.5t11.5 -39q0 -37 -29 -60.5t-80 -23.5q-41 0 -75 10v50q29 0 42 1t23.5 8t10.5 22q0 22 -40 28l32 56q-62 8 -109 34t-74 62t-40 75t-13 79q0 120 86 187.5t207 67.5q100 0 172 -39v-132q-77 55 -167 55q-70 0 -114.5 -37.5
t-44.5 -100.5q0 -64 45 -100.5t110 -36.5q68 0 177 57v-122q-85 -47 -175 -51z" />
    <glyph glyph-name="egrave.sc" unicode="&#xf7e8;" horiz-adv-x="467" 
d="M422 106v-106h-361v495h356v-106h-223v-80h213v-106h-213v-97h228zM17 738h192l117 -189h-101z" />
    <glyph glyph-name="eacute.sc" unicode="&#xf7e9;" horiz-adv-x="467" 
d="M422 106v-106h-361v495h356v-106h-223v-80h213v-106h-213v-97h228zM463 738l-208 -189h-101l117 189h192z" />
    <glyph glyph-name="ecircumflex.sc" unicode="&#xf7ea;" horiz-adv-x="467" 
d="M422 106v-106h-361v495h356v-106h-223v-80h213v-106h-213v-97h228zM323 719l117 -170h-93l-116 103l-114 -103h-91l115 170h182z" />
    <glyph glyph-name="edieresis.sc" unicode="&#xf7eb;" horiz-adv-x="467" 
d="M422 106v-106h-361v495h356v-106h-223v-80h213v-106h-213v-97h228zM375 714q33 0 56.5 -23.5t23.5 -56.5t-23.5 -56.5t-56.5 -23.5t-56.5 23.5t-23.5 56.5t23.5 56.5t56.5 23.5zM91 714q33 0 56.5 -23.5t23.5 -56.5t-23.5 -56.5t-56.5 -23.5t-56.5 23.5t-23.5 56.5
t23.5 56.5t56.5 23.5z" />
    <glyph glyph-name="igrave.sc" unicode="&#xf7ec;" horiz-adv-x="262" 
d="M197 495v-495h-132v495h132zM-85 738h192l117 -189h-101z" />
    <glyph glyph-name="iacute.sc" unicode="&#xf7ed;" horiz-adv-x="262" 
d="M197 495v-495h-132v495h132zM351 738l-208 -189h-101l117 189h192z" />
    <glyph glyph-name="icircumflex.sc" unicode="&#xf7ee;" horiz-adv-x="262" 
d="M197 495v-495h-132v495h132zM221 719l117 -170h-93l-116 103l-114 -103h-91l115 170h182z" />
    <glyph glyph-name="idieresis.sc" unicode="&#xf7ef;" horiz-adv-x="262" 
d="M197 495v-495h-132v495h132zM273 714q33 0 56.5 -23.5t23.5 -56.5t-23.5 -56.5t-56.5 -23.5t-56.5 23.5t-23.5 56.5t23.5 56.5t56.5 23.5zM-11 714q33 0 56.5 -23.5t23.5 -56.5t-23.5 -56.5t-56.5 -23.5t-56.5 23.5t-23.5 56.5t23.5 56.5t56.5 23.5z" />
    <glyph glyph-name="eth.sc" unicode="&#xf7f0;" horiz-adv-x="580" 
d="M59 206h-59v81h59v208h198q124 0 197 -59q43 -34 64.5 -85t21.5 -105q0 -62 -28.5 -119t-89.5 -92q-63 -35 -166 -35h-197v206zM285 206h-93v-98h60q57 0 93 26q57 39 57 117q0 70 -52 110q-33 26 -97 26h-61v-100h93v-81z" />
    <glyph glyph-name="ntilde.sc" unicode="&#xf7f1;" horiz-adv-x="609" 
d="M548 495v-495h-110l-244 280v-280h-133v495h119l235 -266v266h133zM158 554h-74q0 60 23 100q34 61 108 61q54 0 118 -35q43 -24 72 -24q39 0 47 58h75q0 -67 -33.5 -113.5t-94.5 -46.5q-55 0 -137 42q-35 18 -59 18q-41 0 -45 -60z" />
    <glyph glyph-name="ograve.sc" unicode="&#xf7f2;" horiz-adv-x="630" 
d="M590 246q0 -103 -78.5 -177.5t-196.5 -74.5q-116 0 -195.5 72.5t-79.5 178.5q0 104 79 180t195 76q69 0 131 -29.5t103.5 -89t41.5 -136.5zM451 244q0 70 -42.5 105.5t-91.5 35.5q-54 0 -96 -39t-42 -100q0 -59 40 -97.5t98 -38.5q59 0 96.5 40t37.5 94zM99 738h192
l117 -189h-101z" />
    <glyph glyph-name="oacute.sc" unicode="&#xf7f3;" horiz-adv-x="630" 
d="M590 246q0 -103 -78.5 -177.5t-196.5 -74.5q-116 0 -195.5 72.5t-79.5 178.5q0 104 79 180t195 76q69 0 131 -29.5t103.5 -89t41.5 -136.5zM451 244q0 70 -42.5 105.5t-91.5 35.5q-54 0 -96 -39t-42 -100q0 -59 40 -97.5t98 -38.5q59 0 96.5 40t37.5 94zM535 738
l-208 -189h-101l117 189h192z" />
    <glyph glyph-name="ocircumflex.sc" unicode="&#xf7f4;" horiz-adv-x="630" 
d="M590 246q0 -103 -78.5 -177.5t-196.5 -74.5q-116 0 -195.5 72.5t-79.5 178.5q0 104 79 180t195 76q69 0 131 -29.5t103.5 -89t41.5 -136.5zM451 244q0 70 -42.5 105.5t-91.5 35.5q-54 0 -96 -39t-42 -100q0 -59 40 -97.5t98 -38.5q59 0 96.5 40t37.5 94zM405 719
l117 -170h-93l-116 103l-114 -103h-91l115 170h182z" />
    <glyph glyph-name="otilde.sc" unicode="&#xf7f5;" horiz-adv-x="630" 
d="M590 246q0 -103 -78.5 -177.5t-196.5 -74.5q-116 0 -195.5 72.5t-79.5 178.5q0 104 79 180t195 76q69 0 131 -29.5t103.5 -89t41.5 -136.5zM451 244q0 70 -42.5 105.5t-91.5 35.5q-54 0 -96 -39t-42 -100q0 -59 40 -97.5t98 -38.5q59 0 96.5 40t37.5 94zM169 554h-74
q0 60 23 100q34 61 108 61q54 0 118 -35q43 -24 72 -24q39 0 47 58h75q0 -67 -33.5 -113.5t-94.5 -46.5q-55 0 -137 42q-35 18 -59 18q-41 0 -45 -60z" />
    <glyph glyph-name="odieresis.sc" unicode="&#xf7f6;" horiz-adv-x="630" 
d="M590 246q0 -103 -78.5 -177.5t-196.5 -74.5q-116 0 -195.5 72.5t-79.5 178.5q0 104 79 180t195 76q69 0 131 -29.5t103.5 -89t41.5 -136.5zM451 244q0 70 -42.5 105.5t-91.5 35.5q-54 0 -96 -39t-42 -100q0 -59 40 -97.5t98 -38.5q59 0 96.5 40t37.5 94zM457 714
q33 0 56.5 -23.5t23.5 -56.5t-23.5 -56.5t-56.5 -23.5t-56.5 23.5t-23.5 56.5t23.5 56.5t56.5 23.5zM173 714q33 0 56.5 -23.5t23.5 -56.5t-23.5 -56.5t-56.5 -23.5t-56.5 23.5t-23.5 56.5t23.5 56.5t56.5 23.5z" />
    <glyph glyph-name="oslash.sc" unicode="&#xf7f8;" horiz-adv-x="630" 
d="M205 14l-15 -20h-94l41 58q-32 26 -48 47q-49 65 -49 146q0 104 78.5 180t195.5 76q60 0 122 -26l18 26h94l-47 -66q33 -29 48 -52q41 -61 41 -134q0 -107 -79 -181t-197 -74q-59 0 -109 20zM426 329l-150 -213q18 -6 40 -6q59 0 97 39t38 99q0 53 -25 81zM211 157
l154 219q-25 9 -48 9q-55 0 -96.5 -39.5t-41.5 -99.5q0 -51 32 -89z" />
    <glyph glyph-name="ugrave.sc" unicode="&#xf7f9;" horiz-adv-x="595" 
d="M539 495v-268q0 -101 -42 -153q-64 -80 -202 -80q-112 0 -180 62q-59 55 -59 167v272h132v-245q0 -77 36 -110q32 -30 76 -30q28 0 52.5 12.5t35.5 31.5q19 34 19 96v245h132zM81 738h192l117 -189h-101z" />
    <glyph glyph-name="uacute.sc" unicode="&#xf7fa;" horiz-adv-x="595" 
d="M539 495v-268q0 -101 -42 -153q-64 -80 -202 -80q-112 0 -180 62q-59 55 -59 167v272h132v-245q0 -77 36 -110q32 -30 76 -30q28 0 52.5 12.5t35.5 31.5q19 34 19 96v245h132zM517 738l-208 -189h-101l117 189h192z" />
    <glyph glyph-name="ucircumflex.sc" unicode="&#xf7fb;" horiz-adv-x="595" 
d="M539 495v-268q0 -101 -42 -153q-64 -80 -202 -80q-112 0 -180 62q-59 55 -59 167v272h132v-245q0 -77 36 -110q32 -30 76 -30q28 0 52.5 12.5t35.5 31.5q19 34 19 96v245h132zM387 719l117 -170h-93l-116 103l-114 -103h-91l115 170h182z" />
    <glyph glyph-name="udieresis.sc" unicode="&#xf7fc;" horiz-adv-x="595" 
d="M539 495v-268q0 -101 -42 -153q-64 -80 -202 -80q-112 0 -180 62q-59 55 -59 167v272h132v-245q0 -77 36 -110q32 -30 76 -30q28 0 52.5 12.5t35.5 31.5q19 34 19 96v245h132zM439 714q33 0 56.5 -23.5t23.5 -56.5t-23.5 -56.5t-56.5 -23.5t-56.5 23.5t-23.5 56.5
t23.5 56.5t56.5 23.5zM155 714q33 0 56.5 -23.5t23.5 -56.5t-23.5 -56.5t-56.5 -23.5t-56.5 23.5t-23.5 56.5t23.5 56.5t56.5 23.5z" />
    <glyph glyph-name="yacute.sc" unicode="&#xf7fd;" horiz-adv-x="517" 
d="M517 495l-191 -289v-206h-135v206l-191 289h144l114 -171l115 171h144zM498 738l-208 -189h-101l117 189h192z" />
    <glyph glyph-name="thorn.sc" unicode="&#xf7fe;" horiz-adv-x="481" 
d="M60 495h133v-88h66q52 0 88 -10.5t65 -44.5q35 -45 35 -97q0 -69 -52 -117q-43 -41 -140 -41h-62v-97h-133v495zM245 306h-52v-109h49q14 0 22.5 1t22 6t20.5 18t7 33q0 51 -69 51z" />
    <glyph glyph-name="ydieresis.sc" unicode="&#xf7ff;" horiz-adv-x="517" 
d="M517 495l-191 -289v-206h-135v206l-191 289h144l114 -171l115 171h144zM400 714q33 0 56.5 -23.5t23.5 -56.5t-23.5 -56.5t-56.5 -23.5t-56.5 23.5t-23.5 56.5t23.5 56.5t56.5 23.5zM116 714q33 0 56.5 -23.5t23.5 -56.5t-23.5 -56.5t-56.5 -23.5t-56.5 23.5t-23.5 56.5
t23.5 56.5t56.5 23.5z" />
    </font>
</defs>
</svg>
